# Rhino
v -0.576947 165.928994 -1.151145
v -0.551967 165.970434 -0.853066
v -0.535268 166.197118 -1.164721
v -0.502171 166.225836 -0.905093
v -0.480396 165.717718 -0.885926
v -0.472638 165.688380 -1.144153
v -0.383288 166.362979 -1.137790
v -0.372934 165.937477 -0.679310
v -0.353468 165.891358 -1.375885
v -0.349373 166.060408 -1.393222
v -0.348647 165.555041 -1.117954
v -0.335050 166.188131 -0.713614
v -0.317435 165.558477 -0.896248
v -0.309826 165.741993 -0.712995
v -0.307327 165.770859 -1.353308
v -0.306548 166.259614 -1.357049
v -0.292861 166.374782 -0.923904
v -0.261534 165.648030 -1.324449
v -0.243490 166.327071 -0.816882
v -0.237439 165.627477 -0.765476
v -0.215827 165.915199 -1.416584
v -0.212532 166.016603 -1.428395
v -0.206074 166.105016 -1.426347
v -0.188002 166.310928 -1.348170
v -0.177836 166.402191 -1.111007
v -0.169713 165.793692 -1.393109
v -0.162804 166.394279 -0.969512
v -0.159519 166.345294 -0.794134
v -0.155175 165.464179 -1.084496
v -0.151661 165.567077 -1.305291
v -0.148357 166.156112 -1.425567
v -0.141148 166.199665 -0.634047
v -0.139656 165.952463 -0.582690
v -0.139629 166.027650 -1.434388
v -0.131888 165.927586 -1.422313
v -0.121159 165.487331 -0.890887
v -0.116512 165.846448 -1.408711
v -0.114081 165.748010 -1.391684
v -0.110101 165.739579 -0.639545
v -0.094676 165.586036 -0.744992
v -0.082376 166.361587 -1.321692
v -0.068960 166.423113 -1.120016
v -0.062503 166.434293 -0.980916
v -0.056061 166.175189 -1.430309
v -0.043828 166.042805 -1.435956
v -0.040508 165.946161 -1.424227
v -0.038686 165.857261 -1.412866
v -0.029683 165.742695 -1.396640
v -0.016408 165.571285 -1.322767
v -0.013460 166.407003 -0.780521
v 0.043356 165.453903 -1.106230
v 0.049339 166.256447 -0.620948
v 0.054348 166.384489 -1.336597
v 0.057995 166.216679 -1.428848
v 0.059716 165.868912 -1.418121
v 0.064934 165.962907 -1.430095
v 0.067112 166.067213 -1.440711
v 0.072825 165.761221 -1.401322
v 0.077908 165.471021 -0.913078
v 0.098144 165.577420 -0.734740
v 0.098879 166.006058 -0.559387
v 0.099378 166.486614 -1.163691
v 0.103450 165.764909 -0.609701
v 0.128092 165.604830 -1.331209
v 0.153843 166.503747 -0.962569
v 0.162230 165.785999 -1.400405
v 0.162412 166.194435 -1.427526
v 0.190018 165.864688 -1.414788
v 0.200969 166.092344 -1.433321
v 0.201391 166.423264 -0.770311
v 0.219697 165.979302 -1.426399
v 0.228338 165.503860 -1.155838
v 0.234270 166.312638 -1.375332
v 0.256164 165.699829 -1.353555
v 0.270931 165.508721 -0.948833
v 0.277482 166.252373 -0.647468
v 0.290063 165.606421 -0.766449
v 0.309421 165.784304 -0.645236
v 0.330860 166.020643 -0.606522
v 0.335514 165.838134 -1.371965
v 0.340409 166.150748 -1.384465
v 0.348243 166.429449 -1.211875
v 0.363653 166.397162 -0.835313
v 0.374540 165.994072 -1.376014
v 0.399261 165.616647 -1.200868
v 0.401609 166.436306 -0.993412
v 0.424715 165.662915 -0.820058
v 0.450783 165.610596 -0.977399
v 0.471654 166.245952 -0.770016
v 0.499352 166.225701 -1.236998
v 0.500015 165.810524 -0.761646
v 0.510230 165.799510 -1.231556
v 0.527512 166.032613 -0.735575
v 0.552016 166.262632 -0.990777
v 0.556396 166.016504 -1.220365
v 0.580772 165.789618 -0.986855
v 0.620137 166.033851 -0.954427
vn -0.957325 -0.098356 -0.271762
vn -0.873447 0.022835 0.486383
vn -0.838461 0.415802 -0.352266
vn -0.806757 0.516098 0.287724
vn -0.796448 -0.465216 0.386321
vn -0.766415 -0.558533 -0.317253
vn -0.557063 0.789958 -0.256215
vn -0.575698 -0.104375 0.810973
vn -0.534295 -0.230527 -0.813256
vn -0.518493 0.121991 -0.846335
vn -0.598254 -0.737071 -0.314355
vn -0.506573 0.442709 0.739860
vn -0.532768 -0.776487 0.336491
vn -0.456016 -0.447535 0.769261
vn -0.453628 -0.384443 -0.804006
vn -0.389460 0.598071 -0.700451
vn -0.315218 0.897209 0.309278
vn -0.388181 -0.541486 -0.745727
vn -0.283044 0.807368 0.517729
vn -0.337282 -0.655074 0.676106
vn -0.183356 -0.175046 -0.967336
vn -0.144011 -0.054660 -0.988065
vn -0.177743 0.184188 -0.966686
vn -0.236414 0.639669 -0.731390
vn -0.221194 0.959033 -0.177002
vn -0.154695 -0.238321 -0.958787
vn -0.218186 0.960513 0.172657
vn -0.329074 0.813991 0.478674
vn -0.264360 -0.941707 -0.208090
vn -0.210851 -0.676684 -0.705436
vn -0.098153 0.250203 -0.963205
vn -0.269455 0.466617 0.842415
vn -0.258697 -0.068267 0.963543
vn -0.035811 -0.033950 -0.998782
vn -0.039862 -0.151458 -0.987660
vn -0.181836 -0.912767 0.365776
vn -0.054538 -0.163669 -0.985007
vn -0.108871 -0.288194 -0.951363
vn -0.190935 -0.472920 0.860169
vn -0.147110 -0.732303 0.664899
vn -0.185832 0.716831 -0.672027
vn -0.293079 0.941769 -0.164848
vn -0.351951 0.931115 0.095686
vn -0.089000 0.229154 -0.969313
vn -0.031853 -0.033651 -0.998926
vn -0.017950 -0.129148 -0.991463
vn -0.037101 -0.145162 -0.988712
vn -0.034408 -0.272677 -0.961490
vn -0.010643 -0.644023 -0.764932
vn -0.253641 0.846759 0.467616
vn 0.056136 -0.974554 -0.217008
vn -0.101204 0.541224 0.834766
vn -0.086225 0.715349 -0.693427
vn -0.042993 0.327143 -0.943996
vn -0.002641 -0.145376 -0.989373
vn 0.009810 -0.106212 -0.994295
vn 0.009723 0.011015 -0.999892
vn 0.029972 -0.271052 -0.962098
vn 0.099332 -0.951369 0.291600
vn 0.084624 -0.733412 0.674496
vn 0.054604 0.044955 0.997496
vn -0.109358 0.945229 -0.307544
vn 0.066866 -0.400178 0.913995
vn 0.160230 -0.614570 -0.772418
vn 0.044628 0.987808 0.149145
vn 0.107625 -0.269015 -0.957104
vn 0.105366 0.254173 -0.961402
vn 0.132872 -0.184128 -0.973880
vn 0.182557 0.052569 -0.981789
vn 0.119253 0.790877 0.600243
vn 0.214431 -0.070495 -0.974192
vn 0.312890 -0.889651 -0.332598
vn 0.253826 0.507112 -0.823657
vn 0.312913 -0.462069 -0.829806
vn 0.376496 -0.908089 0.183372
vn 0.300525 0.449440 0.841242
vn 0.362591 -0.712057 0.601251
vn 0.363343 -0.375692 0.852547
vn 0.434120 0.037693 0.900066
vn 0.416515 -0.261557 -0.870691
vn 0.447372 0.206239 -0.870244
vn 0.433160 0.774492 -0.461015
vn 0.484447 0.752050 0.446913
vn 0.538575 -0.024373 -0.842225
vn 0.569236 -0.681255 -0.460285
vn 0.594231 0.804159 0.014769
vn 0.625638 -0.606878 0.490180
vn 0.678535 -0.730390 0.078235
vn 0.695441 0.418772 0.583945
vn 0.756391 0.382451 -0.530664
vn 0.737874 -0.309573 0.599755
vn 0.764981 -0.355895 -0.536789
vn 0.765122 0.063184 0.640778
vn 0.876650 0.479121 0.043909
vn 0.897412 0.031837 -0.440042
vn 0.921631 -0.385750 0.042355
vn 0.982097 0.066554 0.176226
f 1//1 2//2 4//4
f 1//1 5//5 2//2
f 1//1 4//4 3//3
f 1//1 3//3 10//10
f 1//1 6//6 5//5
f 1//1 9//9 6//6
f 1//1 10//10 9//9
f 12//12 4//4 2//2
f 8//8 2//2 5//5
f 8//8 12//12 2//2
f 7//7 3//3 4//4
f 7//7 10//10 3//3
f 7//7 4//4 17//17
f 17//17 4//4 12//12
f 13//13 5//5 6//6
f 8//8 5//5 14//14
f 14//14 5//5 13//13
f 9//9 15//15 6//6
f 11//11 13//13 6//6
f 11//11 6//6 15//15
f 7//7 16//16 10//10
f 7//7 25//25 16//16
f 7//7 17//17 25//25
f 8//8 33//33 12//12
f 8//8 14//14 33//33
f 21//21 9//9 10//10
f 21//21 15//15 9//9
f 23//23 10//10 16//16
f 21//21 10//10 22//22
f 23//23 22//22 10//10
f 11//11 29//29 13//13
f 11//11 15//15 18//18
f 11//11 18//18 29//29
f 19//19 17//17 12//12
f 19//19 12//12 32//32
f 33//33 32//32 12//12
f 20//20 14//14 13//13
f 20//20 13//13 36//36
f 29//29 36//36 13//13
f 20//20 39//39 14//14
f 14//14 39//39 33//33
f 26//26 18//18 15//15
f 21//21 26//26 15//15
f 23//23 16//16 24//24
f 25//25 24//24 16//16
f 19//19 27//27 17//17
f 17//17 27//27 25//25
f 26//26 38//38 18//18
f 18//18 30//30 29//29
f 38//38 30//30 18//18
f 19//19 28//28 27//27
f 19//19 32//32 28//28
f 20//20 36//36 40//40
f 20//20 40//40 39//39
f 21//21 22//22 35//35
f 21//21 35//35 26//26
f 23//23 34//34 22//22
f 22//22 34//34 35//35
f 23//23 24//24 31//31
f 23//23 31//31 34//34
f 41//41 24//24 25//25
f 31//31 24//24 41//41
f 42//42 25//25 27//27
f 42//42 41//41 25//25
f 35//35 37//37 26//26
f 26//26 37//37 38//38
f 43//43 27//27 28//28
f 42//42 27//27 43//43
f 28//28 32//32 52//52
f 50//50 43//43 28//28
f 50//50 28//28 52//52
f 29//29 30//30 49//49
f 51//51 36//36 29//29
f 51//51 29//29 49//49
f 49//49 30//30 38//38
f 45//45 34//34 31//31
f 44//44 31//31 41//41
f 44//44 45//45 31//31
f 61//61 32//32 33//33
f 61//61 52//52 32//32
f 33//33 39//39 63//63
f 61//61 33//33 63//63
f 46//46 35//35 34//34
f 46//46 34//34 45//45
f 46//46 37//37 35//35
f 40//40 36//36 59//59
f 51//51 59//59 36//36
f 38//38 37//37 47//47
f 46//46 47//47 37//37
f 48//48 38//38 47//47
f 48//48 49//49 38//38
f 60//60 39//39 40//40
f 60//60 63//63 39//39
f 60//60 40//40 59//59
f 42//42 53//53 41//41
f 44//44 41//41 54//54
f 41//41 53//53 54//54
f 42//42 43//43 62//62
f 42//42 62//62 53//53
f 50//50 65//65 43//43
f 43//43 65//65 62//62
f 44//44 57//57 45//45
f 44//44 54//54 57//57
f 46//46 45//45 56//56
f 45//45 57//57 56//56
f 46//46 55//55 47//47
f 46//46 56//56 55//55
f 48//48 47//47 58//58
f 47//47 55//55 58//58
f 48//48 58//58 49//49
f 51//51 49//49 64//64
f 58//58 64//64 49//49
f 50//50 52//52 70//70
f 50//50 70//70 65//65
f 51//51 72//72 59//59
f 51//51 64//64 72//72
f 61//61 76//76 52//52
f 52//52 76//76 70//70
f 67//67 54//54 53//53
f 73//73 53//53 62//62
f 67//67 53//53 73//73
f 67//67 57//57 54//54
f 68//68 55//55 56//56
f 66//66 58//58 55//55
f 66//66 55//55 68//68
f 56//56 57//57 69//69
f 71//71 68//68 56//56
f 71//71 56//56 69//69
f 67//67 69//69 57//57
f 66//66 64//64 58//58
f 60//60 59//59 75//75
f 72//72 75//75 59//59
f 60//60 77//77 63//63
f 60//60 75//75 77//77
f 61//61 63//63 78//78
f 61//61 79//79 76//76
f 61//61 78//78 79//79
f 82//82 62//62 65//65
f 82//82 73//73 62//62
f 77//77 78//78 63//63
f 66//66 74//74 64//64
f 72//72 64//64 74//74
f 83//83 65//65 70//70
f 82//82 65//65 86//86
f 83//83 86//86 65//65
f 66//66 68//68 74//74
f 67//67 73//73 69//69
f 71//71 80//80 68//68
f 68//68 80//80 74//74
f 71//71 69//69 81//81
f 73//73 81//81 69//69
f 83//83 70//70 76//76
f 71//71 84//84 80//80
f 71//71 81//81 84//84
f 85//85 72//72 74//74
f 85//85 75//75 72//72
f 82//82 81//81 73//73
f 85//85 74//74 80//80
f 77//77 75//75 88//88
f 85//85 88//88 75//75
f 89//89 76//76 79//79
f 83//83 76//76 89//89
f 87//87 78//78 77//77
f 87//87 77//77 88//88
f 79//79 78//78 91//91
f 87//87 91//91 78//78
f 93//93 89//89 79//79
f 93//93 79//79 91//91
f 92//92 80//80 84//84
f 85//85 80//80 92//92
f 82//82 90//90 81//81
f 84//84 81//81 90//90
f 82//82 86//86 90//90
f 83//83 94//94 86//86
f 83//83 89//89 94//94
f 95//95 84//84 90//90
f 95//95 92//92 84//84
f 85//85 92//92 88//88
f 86//86 94//94 90//90
f 87//87 88//88 96//96
f 87//87 96//96 91//91
f 92//92 96//96 88//88
f 93//93 97//97 89//89
f 97//97 94//94 89//89
f 95//95 90//90 94//94
f 93//93 91//91 97//97
f 91//91 96//96 97//97
f 95//95 96//96 92//92
f 95//95 94//94 97//97
f 95//95 97//97 96//96
g
