# Rhino
v 6.064643 161.491516 -2.393697
v 6.056551 161.126373 -1.787089
v 6.002113 161.946915 -2.540095
v 5.991334 160.898956 -2.345005
v 5.982387 161.486862 -1.575867
v 5.915793 161.938354 -3.261946
v 5.872205 161.111618 -1.114695
v 5.859480 161.058975 -3.215027
v 5.824455 161.847549 -1.913407
v 5.823652 160.645065 -1.689271
v 5.701207 162.249680 -2.602805
v 5.699130 160.412674 -2.532291
v 5.659172 161.586914 -3.988874
v 5.633969 162.162003 -4.067189
v 5.603240 161.610596 -0.999603
v 5.576927 160.575256 -0.916904
v 5.553481 162.597824 -3.616817
v 5.539800 160.331451 -3.402353
v 5.526408 161.155807 -0.503071
v 5.507531 160.980942 -4.007239
v 5.495796 162.438950 -4.245146
v 5.457451 162.000809 -6.212131
v 5.415357 162.306458 -6.192968
v 5.385118 162.548782 -4.248397
v 5.372211 161.556381 -6.224986
v 5.369302 159.957504 -2.769901
v 5.357612 161.543823 -0.453600
v 5.320040 162.073212 -6.826313
v 5.297367 160.287384 -0.868333
v 5.291629 161.681305 -5.669633
v 5.282309 162.553879 -6.740209
v 5.282009 162.529877 -2.772472
v 5.278531 160.480927 -4.073270
v 5.276413 160.229095 -1.790027
v 5.255527 160.617249 -0.459799
v 5.249122 162.582184 -6.128020
v 5.221256 162.031586 -5.569798
v 5.161454 161.716858 -0.738065
v 5.149182 160.866913 -6.223772
v 5.148761 161.050323 -5.593105
v 5.145701 159.808746 -3.557773
v 5.133922 162.538651 -4.104789
v 5.106420 161.341980 -6.959474
v 5.094390 161.830429 -1.698716
v 5.072140 160.266235 -4.199890
v 5.059160 162.074997 -5.423563
v 5.057189 160.457840 -0.879954
v 5.056563 161.303192 -0.437571
v 5.022206 159.776169 -2.799584
v 5.008143 162.486710 -5.914830
v 5.000456 162.614471 -3.450493
v 4.993949 160.727753 -0.452946
v 4.969053 162.620972 -6.677687
v 4.968692 161.491241 -4.714417
v 4.952348 160.485611 -5.589273
v 4.926353 162.328979 -7.245351
v 4.920169 161.732407 -0.812719
v 4.913646 160.809143 -1.682453
v 4.911733 162.383560 -2.743809
v 4.904611 161.085251 -0.866539
v 4.882988 160.216782 -6.188839
v 4.860223 161.576508 -0.836359
v 4.858023 159.868988 -4.078346
v 4.801545 160.612305 -6.906241
v 4.787734 161.786987 -7.471026
v 4.725104 159.851898 -6.144058
v 4.720703 160.257401 -2.715156
v 4.717631 160.030945 -5.654274
v 4.709650 162.324966 -6.194645
v 4.703362 161.940857 -2.717182
v 4.677230 160.727737 -4.809698
v 4.668474 161.232834 -2.583752
v 4.641352 162.242996 -3.300350
v 4.628683 159.370621 -3.533767
v 4.618700 162.064270 -4.135053
v 4.565626 160.039215 -6.646440
v 4.564060 159.829666 -6.079141
v 4.554932 159.417648 -4.049218
v 4.522553 162.050217 -7.537427
v 4.506276 161.074051 -7.476220
v 4.469832 159.755463 -4.237398
v 4.469644 158.869080 -3.756642
v 4.463348 160.023209 -3.597659
v 4.459254 161.638672 -3.433963
v 4.455618 160.227264 -5.632371
v 4.451523 162.128098 -7.048584
v 4.436298 160.818283 -3.525016
v 4.417485 161.499634 -5.154307
v 4.404763 159.001999 -3.830535
v 4.402218 159.519455 -3.897568
v 4.393967 161.741577 -6.119379
v 4.376397 160.886765 -5.180866
v 4.375985 161.287430 -4.364612
v 4.351933 160.113113 -6.409787
v 4.325379 160.465683 -7.254659
v 4.294958 160.160599 -6.931930
v 4.267468 160.879944 -6.095179
v 4.170821 161.531296 -7.566432
v 4.145108 160.551743 -6.977756
v 4.050797 161.296768 -7.083801
v 4.023417 160.954544 -7.501464
v 3.901224 160.831024 -7.552068
v 1.980804 157.246307 -6.085707
v 1.973845 157.435974 -5.471340
v 1.927808 156.689819 -5.584444
v 1.854962 156.839478 -6.345620
v 1.854913 157.849594 -5.492103
v 1.795575 157.835571 -6.134116
v 1.737717 157.598785 -5.143819
v 1.721563 156.364548 -6.210520
v 1.717191 156.419281 -5.099442
v 1.666790 156.916733 -4.984495
v 1.644274 157.549973 -6.817143
v 1.629507 156.173248 -5.528525
v 1.555140 158.108765 -6.880025
v 1.484268 156.274872 -6.598047
v 1.461854 157.843613 -5.645605
v 1.448631 156.784592 -6.798875
v 1.402742 156.091492 -6.166873
v 1.390778 158.137466 -6.502766
v 1.357690 158.298645 -7.029170
v 1.335949 156.352127 -5.103557
v 1.321296 157.279053 -5.088447
v 1.261964 156.791183 -4.928193
v 1.261940 158.272934 -7.381504
v 1.245103 156.033447 -5.602157
v 1.226888 156.328674 -6.633823
v 1.184391 158.614914 -7.698572
v 1.167740 158.189468 -6.918256
v 1.141669 158.652176 -7.723508
v 1.140506 158.571899 -7.720537
v 1.128676 157.934647 -7.306583
v 1.116369 158.346039 -7.641965
v 1.077951 157.865234 -6.316977
v 1.065942 157.448669 -5.652938
v 1.050578 156.207626 -5.465434
v 1.030513 156.834396 -6.753587
v 1.022153 156.767532 -5.411464
v 1.020020 157.934067 -6.938544
v 1.017152 156.352005 -6.090139
v 0.918712 157.278229 -6.362668
v 0.152280 157.265030 -5.221173
v 0.143460 157.364609 -4.715960
v 0.106789 156.765884 -4.816464
v 0.055665 157.693909 -4.742769
v 0.055438 156.921722 -5.446027
v 0.006906 157.743942 -5.277552
v -0.031289 157.478027 -4.471164
v -0.049207 156.527985 -4.432723
v -0.060945 156.476639 -5.318084
v -0.079583 156.935852 -4.336397
v -0.128432 156.320114 -4.767299
v -0.138660 157.547501 -5.797454
v -0.215707 157.970703 -5.871693
v -0.232922 157.724274 -4.900172
v -0.240058 156.394424 -5.610677
v -0.256790 156.904419 -5.758135
v -0.295873 158.027725 -5.629700
v -0.302983 156.250168 -5.261739
v -0.327638 156.469116 -4.423891
v -0.330649 157.232407 -4.429089
v -0.347571 158.120911 -6.009491
v -0.367390 156.828110 -4.283206
v -0.409406 156.222733 -4.813354
v -0.409494 158.051544 -6.170401
v -0.421442 156.464081 -5.641031
v -0.451904 158.091904 -6.214366
v -0.457080 158.051315 -5.935657
v -0.457946 158.153137 -6.250230
v -0.458869 158.161270 -6.248965
v -0.460719 157.779663 -6.119061
v -0.469775 158.156128 -6.262615
v -0.516994 156.959045 -5.733496
v -0.530550 157.804825 -5.478983
v -0.537852 157.409042 -4.904999
v -0.546274 156.366882 -4.696829
v -0.550505 157.861191 -5.946025
v -0.563175 156.818359 -4.671285
v -0.574306 156.497742 -5.208326
v -0.651260 157.302917 -5.497175
vn 0.996003 0.088685 -0.010590
vn 0.979971 -0.154891 0.125159
vn 0.881296 0.461380 0.102208
vn 0.938687 -0.336590 -0.074665
vn 0.905238 0.335201 0.261122
vn 0.956169 0.228811 -0.182720
vn 0.923107 -0.059332 0.379938
vn 0.938356 -0.232462 -0.255829
vn 0.619181 0.713837 0.327187
vn 0.808645 -0.571300 0.140388
vn 0.558040 0.784681 0.269941
vn 0.820296 -0.571879 -0.008252
vn 0.869078 -0.105772 -0.483234
vn 0.890437 0.125405 -0.437488
vn 0.618796 0.696881 0.362558
vn 0.774143 -0.533277 0.341054
vn 0.553798 0.830381 -0.061451
vn 0.859984 -0.439112 -0.260017
vn 0.670125 -0.003568 0.742239
vn 0.823338 -0.250205 -0.509424
vn 0.747165 0.351469 -0.564105
vn 0.999237 -0.029908 0.025105
vn 0.962389 0.238377 0.130322
vn 0.149731 0.775931 -0.612790
vn 0.970118 -0.237248 -0.050838
vn 0.675851 -0.733586 0.071252
vn 0.294276 0.563444 0.771966
vn 0.911849 -0.002090 -0.410521
vn 0.094599 -0.923056 0.372853
vn 0.932721 -0.055908 0.356239
vn 0.701885 0.641842 -0.308862
vn 0.044080 0.936305 0.348411
vn 0.765782 -0.355598 -0.535843
vn 0.021838 -0.966559 0.255513
vn 0.151131 -0.507592 0.848239
vn 0.492355 0.800717 0.341232
vn 0.806665 0.237411 0.541228
vn 0.010944 0.902761 0.430003
vn 0.930683 -0.351065 -0.102871
vn 0.933027 -0.257774 0.251022
vn 0.709847 -0.656538 -0.255098
vn -0.357650 0.832852 -0.422426
vn 0.839859 -0.279920 -0.465060
vn -0.582551 0.756523 0.297166
vn 0.615389 -0.427411 -0.662282
vn 0.646334 0.470804 0.600496
vn -0.772134 -0.606394 0.189987
vn -0.465764 0.202575 0.861410
vn 0.046983 -0.927034 0.372022
vn -0.272708 0.849709 0.451249
vn -0.426311 0.904538 0.008367
vn -0.743251 -0.327037 0.583631
vn -0.315419 0.945053 -0.085944
vn 0.510013 0.251677 -0.822524
vn 0.892791 -0.392895 0.220359
vn 0.249508 0.670048 -0.699129
vn -0.595151 0.692576 0.407594
vn -0.969533 -0.184087 0.161611
vn -0.635620 0.697040 0.331846
vn -0.995502 -0.065844 0.068120
vn 0.894407 -0.428003 -0.129810
vn -0.983412 0.115827 0.139590
vn 0.589324 -0.543598 -0.597661
vn 0.758600 -0.431547 -0.488153
vn 0.540280 -0.035318 -0.840744
vn 0.600484 -0.795438 -0.081835
vn -0.875263 -0.296693 0.381953
vn 0.409975 -0.791038 0.454070
vn -0.747205 0.616644 0.247860
vn -0.913380 0.260286 0.313030
vn 0.007217 -0.728555 0.684949
vn -0.956746 0.035955 0.288695
vn -0.867608 0.485311 0.108305
vn -0.271067 -0.818357 0.506768
vn -0.737359 0.613390 -0.282938
vn 0.282371 -0.835584 -0.471239
vn -0.408836 -0.907531 0.096123
vn 0.521363 -0.467804 -0.713681
vn -0.220243 0.565375 -0.794887
vn 0.426769 -0.283777 -0.858685
vn -0.222849 -0.408609 -0.885086
vn 0.242513 -0.847595 -0.471985
vn -0.983243 -0.059867 0.172189
vn -0.978333 0.162275 0.128576
vn -0.812222 -0.465898 0.351047
vn -0.765686 0.639343 -0.070464
vn -0.991297 -0.089581 0.096468
vn -0.851121 0.524589 -0.019975
vn -0.896518 -0.338657 -0.285599
vn -0.989967 0.039566 0.135644
vn -0.847612 0.479408 0.227422
vn -0.949589 -0.235705 0.206699
vn -0.997595 -0.058160 0.037696
vn -0.853940 -0.517823 0.051441
vn 0.030248 -0.646435 -0.762369
vn -0.572161 -0.751313 -0.328878
vn -0.986340 -0.043627 0.158837
vn -0.368986 0.192955 -0.909185
vn -0.953338 -0.301134 -0.021569
vn -0.971024 0.088281 0.222079
vn -0.143091 -0.674439 -0.724332
vn 0.168322 -0.864071 -0.474393
vn 0.980361 0.054578 -0.189508
vn 0.964232 0.121654 0.235491
vn 0.962335 -0.253432 0.098405
vn 0.886025 -0.229453 -0.402877
vn 0.529979 0.794663 0.296029
vn 0.785262 0.616327 -0.059207
vn 0.993398 0.114505 0.007003
vn 0.818513 -0.500444 -0.282121
vn 0.615944 -0.496849 0.611355
vn 0.962678 -0.199917 -0.182440
vn 0.828663 -0.043281 -0.558072
vn 0.918168 -0.394519 -0.036348
vn 0.825642 0.545466 -0.144161
vn 0.426719 -0.657388 -0.621089
vn 0.924950 -0.019975 -0.379563
vn 0.431285 -0.313860 -0.845864
vn 0.986072 0.048567 -0.159068
vn 0.992360 0.004058 -0.123309
vn 0.967006 -0.178265 -0.181990
vn 0.628859 0.482933 -0.609354
vn 0.532702 -0.434764 -0.726092
vn 0.470135 0.029372 -0.882106
vn 0.887514 -0.306848 -0.343748
vn 0.246196 0.955498 -0.162513
vn 0.556111 -0.155329 -0.816464
vn 0.666789 0.745009 -0.018796
vn 0.637193 -0.753445 -0.162190
vn -0.775864 0.630235 -0.028967
vn 0.019861 -0.275664 -0.961049
vn 0.944739 -0.223525 -0.239802
vn 0.552075 -0.438440 -0.709213
vn 0.780034 -0.570330 -0.257432
vn 0.855141 -0.389461 -0.342131
vn 0.815563 0.477855 -0.326360
vn 0.907088 -0.046791 -0.418333
vn 0.943024 -0.004111 -0.332699
vn 0.950121 -0.301423 0.080089
vn 0.878745 0.457322 0.136614
vn 0.999001 -0.038651 0.022430
vn -0.979911 -0.061417 0.189741
vn -0.963853 -0.118848 -0.238459
vn -0.967242 0.239432 -0.084349
vn -0.542211 -0.763124 -0.351638
vn -0.878545 0.205850 0.431027
vn -0.814764 -0.577480 0.051734
vn -0.993751 -0.110042 -0.018692
vn -0.648484 0.482078 -0.589126
vn -0.827427 0.480907 0.289989
vn -0.956022 0.215379 0.199084
vn -0.943137 0.329058 0.047039
vn -0.820784 0.021246 0.570843
vn -0.869356 -0.421923 0.257296
vn -0.939067 0.010829 0.343564
vn -0.412050 0.636243 0.652234
vn -0.418543 0.272399 0.866384
vn -0.984839 0.046592 0.167098
vn -0.985750 -0.002546 0.168201
vn -0.660989 -0.452638 0.598508
vn -0.532059 0.430354 0.729184
vn -0.946195 0.254148 0.200310
vn -0.456177 -0.006055 0.889868
vn -0.299850 -0.937248 0.177924
vn -0.986841 0.133591 0.091097
vn -0.553752 0.181881 0.812575
vn 0.638915 -0.268781 -0.720795
vn -0.696701 0.712267 0.085340
vn -0.773103 0.042527 0.632853
vn 0.311935 -0.730907 -0.607018
vn -0.957964 0.167745 0.232738
vn -0.600755 -0.130797 0.788660
vn -0.936765 0.032481 0.348448
vn -0.798973 0.545266 0.253630
vn -0.857543 0.373135 0.354105
vn -0.837455 -0.438315 0.326417
vn -0.957385 0.217011 -0.190578
vn -0.942403 0.017463 0.334024
vn -0.908634 -0.390486 -0.148002
vn -0.996179 0.006473 -0.087093
f 133//133 131//131 125//125
f 125//125 131//131 128//128
f 128//128 131//131 130//130
f 125//125 121//121 115//115
f 125//125 121//121 129//129
f 125//125 129//129 139//139
f 125//125 139//139 132//132
f 125//125 128//128 132//132
f 128//128 130//130 132//132
f 130//130 131//131 132//132
f 131//131 133//133 132//132
f 133//133 125//125 132//132
f 137//137 132//132 118//118
f 137//137 118//118 127//127
f 127//127 118//118 116//116
f 118//118 132//132 113//113
f 113//113 132//132 125//125
f 113//113 125//125 115//115
f 132//132 141//141 137//137
f 137//137 141//141 140//140
f 137//137 140//140 127//127
f 127//127 140//140 119//119
f 127//127 116//116 119//119
f 116//116 110//110 119//119
f 116//116 118//118 110//110
f 118//118 106//106 110//110
f 118//118 113//113 106//106
f 113//113 103//103 106//106
f 113//113 108//108 103//103
f 113//113 115//115 108//108
f 115//115 120//120 108//108
f 115//115 121//121 120//120
f 121//121 120//120 129//129
f 129//129 120//120 134//134
f 129//129 134//134 139//139
f 139//139 134//134 141//141
f 139//139 141//141 132//132
f 120//120 117//117 134//134
f 134//134 117//117 135//135
f 134//134 135//135 141//141
f 141//141 135//135 138//138
f 141//141 138//138 140//140
f 140//140 138//138 136//136
f 140//140 136//136 126//126
f 140//140 126//126 119//119
f 119//119 126//126 114//114
f 119//119 110//110 114//114
f 110//110 105//105 114//114
f 110//110 106//106 105//105
f 106//106 103//103 105//105
f 103//103 104//104 105//105
f 103//103 108//108 104//104
f 108//108 107//107 104//104
f 108//108 117//117 107//107
f 108//108 120//120 117//117
f 107//107 117//117 109//109
f 117//117 109//109 123//123
f 117//117 123//123 135//135
f 135//135 123//123 138//138
f 138//138 123//123 124//124
f 138//138 124//124 122//122
f 138//138 122//122 136//136
f 136//136 122//122 126//126
f 126//126 122//122 114//114
f 114//114 111//111 122//122
f 114//114 105//105 111//111
f 105//105 112//112 111//111
f 105//105 104//104 112//112
f 104//104 109//109 112//112
f 104//104 107//107 109//109
f 124//124 112//112 122//122
f 124//124 123//123 112//112
f 123//123 109//109 112//112
f 112//112 122//122 111//111
f 102//102 98//98 101//101
f 101//101 98//98 80//80
f 101//101 80//80 95//95
f 80//80 98//98 65//65
f 65//65 98//98 79//79
f 65//65 79//79 56//56
f 79//79 98//98 86//86
f 98//98 100//100 86//86
f 98//98 102//102 100//100
f 102//102 101//101 100//100
f 101//101 99//99 100//100
f 101//101 95//95 99//99
f 95//95 96//96 99//99
f 95//95 76//76 96//96
f 95//95 64//64 76//76
f 95//95 80//80 64//64
f 80//80 43//43 64//64
f 80//80 65//65 43//43
f 65//65 28//28 43//43
f 65//65 56//56 28//28
f 56//56 31//31 28//28
f 56//56 53//53 31//31
f 56//56 86//86 53//53
f 56//56 79//79 86//86
f 53//53 69//69 50//50
f 53//53 86//86 69//69
f 86//86 91//91 69//69
f 86//86 100//100 91//91
f 100//100 97//97 91//91
f 100//100 99//99 97//97
f 99//99 94//94 97//97
f 99//99 96//96 94//94
f 96//96 76//76 94//94
f 76//76 77//77 94//94
f 76//76 66//66 77//77
f 76//76 61//61 66//66
f 76//76 64//64 61//61
f 64//64 39//39 61//61
f 64//64 43//43 39//39
f 43//43 25//25 39//39
f 43//43 28//28 25//25
f 28//28 22//22 25//25
f 28//28 23//23 22//22
f 28//28 31//31 23//23
f 31//31 36//36 23//23
f 31//31 53//53 36//36
f 53//53 50//50 36//36
f 97//97 85//85 92//92
f 97//97 94//94 85//85
f 94//94 77//77 85//85
f 77//77 68//68 85//85
f 77//77 66//66 68//68
f 66//66 61//61 68//68
f 61//61 55//55 68//68
f 61//61 39//39 55//55
f 39//39 40//40 55//55
f 39//39 25//25 40//40
f 25//25 30//30 40//40
f 25//25 22//22 30//30
f 22//22 23//23 30//30
f 23//23 37//37 30//30
f 23//23 36//36 37//37
f 36//36 46//46 37//37
f 36//36 50//50 46//46
f 50//50 54//54 46//46
f 50//50 69//69 54//54
f 69//69 91//91 54//54
f 91//91 88//88 54//54
f 91//91 97//97 88//88
f 97//97 92//92 88//88
f 54//54 88//88 75//75
f 88//88 93//93 75//75
f 88//88 92//92 93//93
f 92//92 71//71 93//93
f 92//92 85//85 71//71
f 85//85 68//68 71//71
f 68//68 55//55 71//71
f 55//55 40//40 71//71
f 40//40 30//30 71//71
f 30//30 37//37 71//71
f 37//37 46//46 71//71
f 46//46 54//54 71//71
f 54//54 81//81 71//71
f 54//54 78//78 81//81
f 54//54 63//63 78//78
f 54//54 45//45 63//63
f 54//54 33//33 45//45
f 54//54 20//20 33//33
f 54//54 13//13 20//20
f 54//54 14//14 13//13
f 54//54 21//21 14//14
f 54//54 24//24 21//21
f 54//54 42//42 24//24
f 54//54 75//75 42//42
f 21//21 24//24 17//17
f 24//24 42//42 17//17
f 42//42 51//51 17//17
f 42//42 75//75 51//51
f 75//75 73//73 51//51
f 75//75 84//84 73//73
f 75//75 93//93 84//84
f 93//93 87//87 84//84
f 93//93 71//71 87//87
f 71//71 83//83 87//87
f 71//71 90//90 83//83
f 71//71 81//81 90//90
f 81//81 89//89 90//90
f 81//81 78//78 89//89
f 78//78 82//82 89//89
f 78//78 74//74 82//82
f 78//78 63//63 74//74
f 63//63 41//41 74//74
f 63//63 45//45 41//41
f 45//45 33//33 41//41
f 33//33 18//18 41//41
f 33//33 20//20 18//18
f 20//20 8//8 18//18
f 20//20 13//13 8//8
f 13//13 6//6 8//8
f 13//13 14//14 6//6
f 14//14 17//17 6//6
f 14//14 21//21 17//17
f 74//74 49//49 67//67
f 74//74 41//41 49//49
f 41//41 26//26 49//49
f 41//41 18//18 26//26
f 18//18 12//12 26//26
f 18//18 8//8 12//12
f 8//8 4//4 12//12
f 8//8 1//1 4//4
f 8//8 6//6 1//1
f 6//6 3//3 1//1
f 6//6 11//11 3//3
f 6//6 17//17 11//11
f 17//17 32//32 11//11
f 17//17 51//51 32//32
f 51//51 59//59 32//32
f 51//51 73//73 59//59
f 73//73 70//70 59//59
f 73//73 84//84 70//70
f 84//84 72//72 70//70
f 84//84 87//87 72//72
f 87//87 67//67 72//72
f 87//87 83//83 67//67
f 90//90 89//89 74//74
f 90//90 74//74 83//83
f 83//83 74//74 67//67
f 74//74 89//89 82//82
f 12//12 4//4 10//10
f 4//4 2//2 10//10
f 4//4 1//1 2//2
f 1//1 5//5 2//2
f 1//1 9//9 5//5
f 1//1 3//3 9//9
f 3//3 11//11 9//9
f 11//11 44//44 9//9
f 11//11 32//32 44//44
f 32//32 59//59 44//44
f 59//59 70//70 44//44
f 70//70 72//72 44//44
f 72//72 58//58 44//44
f 72//72 67//67 58//58
f 67//67 34//34 58//58
f 67//67 49//49 34//34
f 49//49 26//26 34//34
f 26//26 12//12 34//34
f 12//12 10//10 34//34
f 2//2 5//5 7//7
f 5//5 15//15 7//7
f 5//5 9//9 15//15
f 9//9 44//44 15//15
f 44//44 38//38 15//15
f 44//44 57//57 38//38
f 44//44 62//62 57//57
f 44//44 60//60 62//62
f 44//44 58//58 60//60
f 58//58 47//47 60//60
f 58//58 34//34 47//47
f 34//34 29//29 47//47
f 34//34 16//16 29//29
f 34//34 10//10 16//16
f 10//10 7//7 16//16
f 10//10 2//2 7//7
f 29//29 16//16 35//35
f 16//16 19//19 35//35
f 16//16 7//7 19//19
f 7//7 15//15 19//19
f 15//15 27//27 19//19
f 15//15 38//38 27//27
f 38//38 48//48 27//27
f 38//38 57//57 48//48
f 57//57 62//62 48//48
f 62//62 60//60 48//48
f 60//60 52//52 48//48
f 60//60 47//47 52//52
f 47//47 35//35 52//52
f 47//47 29//29 35//35
f 48//48 52//52 35//35
f 48//48 35//35 19//19
f 48//48 19//19 27//27
f 167//167 170//170 165//165
f 165//165 170//170 169//169
f 169//169 170//170 172//172
f 165//165 154//154 162//162
f 165//165 168//168 162//162
f 165//165 177//177 168//168
f 165//165 171//171 177//177
f 165//165 169//169 171//171
f 169//169 172//172 171//171
f 172//172 170//170 171//171
f 170//170 167//167 171//171
f 167//167 165//165 171//171
f 173//173 157//157 171//171
f 173//173 166//166 157//157
f 166//166 156//156 157//157
f 157//157 153//153 171//171
f 153//153 165//165 171//171
f 153//153 154//154 165//165
f 171//171 173//173 180//180
f 173//173 179//179 180//180
f 173//173 166//166 179//179
f 166//166 159//159 179//179
f 166//166 159//159 156//156
f 156//156 159//159 150//150
f 156//156 150//150 157//157
f 157//157 150//150 146//146
f 157//157 146//146 153//153
f 153//153 146//146 142//142
f 153//153 142//142 147//147
f 153//153 147//147 154//154
f 154//154 147//147 158//158
f 154//154 158//158 162//162
f 162//162 168//168 158//158
f 168//168 174//174 158//158
f 168//168 177//177 174//174
f 177//177 180//180 174//174
f 177//177 171//171 180//180
f 158//158 174//174 155//155
f 174//174 175//175 155//155
f 174//174 180//180 175//175
f 180//180 178//178 175//175
f 180//180 179//179 178//178
f 179//179 176//176 178//178
f 179//179 164//164 176//176
f 179//179 159//159 164//164
f 159//159 152//152 164//164
f 159//159 152//152 150//150
f 150//150 152//152 144//144
f 150//150 144//144 146//146
f 146//146 144//144 142//142
f 142//142 144//144 143//143
f 142//142 143//143 147//147
f 147//147 143//143 145//145
f 147//147 145//145 155//155
f 147//147 155//155 158//158
f 145//145 148//148 155//155
f 155//155 161//161 148//148
f 155//155 175//175 161//161
f 175//175 178//178 161//161
f 178//178 163//163 161//161
f 178//178 160//160 163//163
f 178//178 176//176 160//160
f 176//176 164//164 160//160
f 164//164 152//152 160//160
f 152//152 160//160 149//149
f 152//152 149//149 144//144
f 144//144 149//149 151//151
f 144//144 151//151 143//143
f 143//143 151//151 148//148
f 143//143 148//148 145//145
f 163//163 160//160 151//151
f 163//163 151//151 161//161
f 161//161 151//151 148//148
f 151//151 149//149 160//160
g
