# Rhino
v 3.150329 159.384248 2.659250
v 3.010974 158.823303 2.405517
v 2.875399 158.712250 2.436134
v 2.865056 158.701736 2.442437
v 2.854922 158.691437 2.448706
v 2.819173 158.769974 2.406937
v 2.779576 158.772369 2.391978
v 2.771659 158.760178 2.399152
v 2.766031 158.747345 2.406953
v 2.597395 158.411651 2.639779
v 2.520942 158.943176 1.782566
v 2.511124 158.994049 1.743657
v 2.492808 158.914063 1.818040
v 2.476700 158.921722 1.841957
v 2.466828 158.892715 1.790308
v 2.465148 158.991638 1.714294
v 2.455662 158.991547 1.709739
v 2.446198 158.991516 1.705136
v 2.436989 158.991455 1.700668
v 2.431612 158.888931 1.766576
v 2.427814 158.991379 1.696168
v 2.422683 158.889908 1.761292
v 2.418612 158.991211 1.691678
v 2.413539 158.890930 1.755928
v 2.409654 158.991089 1.687344
v 2.404661 158.891891 1.750713
v 2.400931 158.990982 1.683079
v 2.395792 158.892868 1.745556
v 2.392395 158.990845 1.678908
v 2.389576 158.754089 1.762020
v 2.387198 158.893829 1.740543
v 2.383673 158.990723 1.674650
v 2.378690 158.894775 1.735572
v 2.375238 158.990616 1.670578
v 2.370507 158.895752 1.730773
v 2.366876 158.990463 1.666500
v 2.362343 158.896606 1.725973
v 2.358887 159.116532 5.255487
v 2.358498 158.990387 1.662504
v 2.353930 158.897446 1.721092
v 2.352939 159.338853 5.270860
v 2.350647 158.990280 1.658670
v 2.346058 158.898315 1.716535
v 2.342469 158.990173 1.654729
v 2.338030 158.899185 1.711832
v 2.334760 158.990082 1.651012
v 2.330398 158.900085 1.707389
v 2.328251 158.990829 1.647706
v 2.322806 158.901001 1.702891
v 2.319923 159.007233 1.642307
v 2.315198 158.901855 1.698417
v 2.312611 159.007141 1.638745
v 2.309937 158.903458 1.694878
v 2.305059 159.007004 1.635069
v 2.297832 159.006897 1.631599
v 2.290692 159.006775 1.628127
v 2.283654 159.006668 1.624752
v 2.276933 159.006638 1.621483
v 2.271521 158.897095 1.675417
v 2.270183 159.006516 1.618205
v 2.263561 159.006485 1.614986
v 2.252206 158.867767 5.242180
v 2.218041 158.917999 1.636655
v 2.197769 158.947357 1.618492
v 2.197503 158.975983 1.594860
v 2.173226 158.819061 1.633763
v 2.168681 159.232179 5.400829
v 2.155428 159.326356 5.382940
v 2.154533 159.003159 1.621243
v 2.152035 159.240357 5.408652
v 2.148260 159.987216 2.674034
v 2.147739 159.564501 5.382579
v 2.143257 159.325563 5.389515
v 2.139164 159.235627 5.414632
v 2.131091 158.670395 5.224495
v 1.902281 158.502257 5.372876
v 1.849448 159.294923 5.550109
v 1.832405 158.959412 1.419585
v 1.733443 158.742645 5.582074
v 1.721240 158.335631 2.020719
v 1.704273 158.326919 2.024618
v 1.703791 158.326217 2.026248
v 1.700536 158.324111 2.027223
v 1.696832 158.321685 2.028240
v 1.696634 158.338714 1.929975
v 1.692989 158.319304 2.029116
v 1.691962 158.375853 5.564197
v 1.690048 158.317428 2.030008
v 1.686952 158.315429 2.030848
v 1.683632 158.313338 2.031743
v 1.681075 158.311675 2.032537
v 1.679074 158.323516 1.943933
v 1.678019 159.859454 1.934875
v 1.677663 158.309463 2.033489
v 1.676072 158.321410 1.945243
v 1.673662 158.307296 2.032568
v 1.672512 158.319198 1.946213
v 1.668512 158.316756 1.947403
v 1.665403 158.314727 1.948561
v 1.662832 158.312896 1.949862
v 1.659975 158.310882 1.951169
v 1.657250 158.309096 1.952174
v 1.654230 158.307067 1.953227
v 1.650074 158.304641 1.954065
v 1.598589 158.047880 2.676217
v 1.517487 159.849979 5.566527
v 1.308932 158.304473 5.620407
v 1.250942 159.413194 5.812206
v 1.231865 160.353566 2.756369
v 0.917954 159.973163 5.696717
v 0.824563 158.581237 5.877435
v 0.773689 158.311263 5.692341
v 0.719343 157.704282 2.301748
v 0.615525 159.540606 5.883289
v 0.434751 160.020419 5.810149
v 0.310056 158.354629 5.793564
v 0.013646 159.491625 5.928371
v 0.008133 159.886356 5.884479
v 0.008132 160.442495 2.616212
v 0.008132 160.011478 1.857347
v 0.008132 159.983356 5.230917
v 0.008132 159.141511 1.374289
v 0.008132 158.546157 1.499702
v 0.008132 158.402816 5.778848
v 0.008132 158.003797 4.423523
v 0.008132 157.987486 1.876434
v 0.008132 157.602185 2.813844
v 0.006998 158.447616 6.235799
v -0.293792 158.354629 5.793564
v -0.418389 160.020419 5.810148
v -0.603367 159.545870 5.881813
v -0.702984 157.704282 2.301748
v -0.757309 158.311324 5.692494
v -0.829148 158.573470 5.868121
v -0.901595 159.973163 5.696716
v -1.215508 160.353566 2.756369
v -1.234380 159.413117 5.812303
v -1.292656 158.304717 5.620826
v -1.501127 159.849979 5.566526
v -1.582924 158.047270 2.678728
v -1.633715 158.304641 1.954066
v -1.637871 158.307067 1.953228
v -1.640889 158.309096 1.952174
v -1.643617 158.310882 1.951169
v -1.646474 158.312896 1.949862
v -1.649042 158.314727 1.948564
v -1.652153 158.316756 1.947403
v -1.656152 158.319198 1.946213
v -1.657303 158.307296 2.032568
v -1.659286 159.875339 1.949263
v -1.659712 158.321410 1.945243
v -1.661303 158.309463 2.033489
v -1.662713 158.323516 1.943933
v -1.664716 158.311675 2.032537
v -1.667274 158.313338 2.031743
v -1.670592 158.315429 2.030848
v -1.673689 158.317428 2.030008
v -1.675239 158.384276 5.570217
v -1.676630 158.319304 2.029116
v -1.680473 158.321685 2.028240
v -1.684065 158.334563 1.943099
v -1.684176 158.324111 2.027223
v -1.687432 158.326217 2.026248
v -1.688004 158.327025 2.024258
v -1.698822 158.332396 2.023384
v -1.817420 158.956848 1.421101
v -1.836403 159.289186 5.548447
v -1.885961 158.502868 5.373640
v -2.114214 158.671753 5.227510
v -2.122808 159.235627 5.414630
v -2.126902 159.325547 5.389514
v -2.131481 159.564486 5.382582
v -2.131899 159.987216 2.674034
v -2.135675 159.240373 5.408651
v -2.139071 159.326341 5.382942
v -2.152324 159.232179 5.400829
v -2.233880 158.865479 5.242648
v -2.336578 159.338822 5.270863
v -2.342528 159.116532 5.255488
v -2.378729 158.683701 1.812090
v -2.419803 158.716522 1.914463
v -2.432165 158.720825 1.811602
v -2.455239 158.805984 1.912416
v -2.479458 158.936996 1.874547
v -2.485086 158.885803 1.792907
v -2.485758 158.901535 1.780467
v -2.491341 158.921494 1.777410
v -2.495394 159.007721 1.742800
v -2.497613 158.944000 1.774033
v -2.504580 158.943161 1.782566
v -2.581020 158.411635 2.639770
v -2.755196 158.759827 2.399338
v -2.763138 158.772141 2.392087
v -2.794799 158.764114 2.408764
v -2.847918 158.688309 2.460485
v -2.848617 158.701523 2.442524
v -2.858970 158.712051 2.436220
v -2.994715 158.823318 2.405508
v -3.134067 159.384233 2.659250
vn 0.907797 0.371962 -0.193776
vn 0.719784 -0.661902 -0.209278
vn 0.488403 -0.628610 -0.605237
vn 0.418950 -0.730111 -0.539832
vn 0.422885 -0.731835 -0.534403
vn 0.600642 -0.562186 -0.568486
vn 0.126615 -0.384355 -0.914461
vn 0.093223 -0.552118 -0.828538
vn 0.106848 -0.576581 -0.810023
vn 0.486568 -0.834920 -0.257215
vn 0.418369 -0.585129 -0.694689
vn 0.641108 -0.128877 -0.756553
vn 0.697299 0.432192 -0.571826
vn 0.417579 -0.476313 -0.773792
vn 0.681921 -0.238725 -0.691371
vn 0.506836 -0.111124 -0.854850
vn 0.437253 -0.113372 -0.892164
vn 0.437887 -0.111839 -0.892046
vn 0.439559 -0.110946 -0.891336
vn 0.479280 -0.371907 -0.794969
vn 0.439356 -0.110712 -0.891464
vn 0.438901 -0.365648 -0.820772
vn 0.437526 -0.111033 -0.892324
vn 0.438284 -0.364686 -0.821529
vn 0.438085 -0.110120 -0.892163
vn 0.438109 -0.363964 -0.821943
vn 0.439062 -0.109455 -0.891765
vn 0.437339 -0.363521 -0.822549
vn 0.440433 -0.109065 -0.891136
vn 0.544412 -0.233760 -0.805588
vn 0.437158 -0.363078 -0.822841
vn 0.438160 -0.108530 -0.892321
vn 0.437866 -0.362550 -0.822697
vn 0.436900 -0.108117 -0.892989
vn 0.439848 -0.362036 -0.821866
vn 0.436408 -0.107756 -0.893273
vn 0.440042 -0.361618 -0.821946
vn 0.824820 -0.218946 0.521281
vn 0.435324 -0.106691 -0.893929
vn 0.436425 -0.361377 -0.823978
vn 0.719742 0.173808 0.672132
vn 0.437975 -0.105997 -0.892716
vn 0.438288 -0.360642 -0.823311
vn 0.436402 -0.105432 -0.893553
vn 0.436457 -0.359873 -0.824619
vn 0.439869 -0.098550 -0.892638
vn 0.439033 -0.358849 -0.823698
vn 0.578392 -0.064881 -0.813175
vn 0.440517 -0.357745 -0.823385
vn 0.579263 0.116884 -0.806717
vn 0.445328 -0.351707 -0.823398
vn 0.436069 0.065068 -0.897558
vn 0.444882 -0.354077 -0.822623
vn 0.433483 0.064507 -0.898850
vn 0.433330 0.064627 -0.898915
vn 0.433104 0.064480 -0.899035
vn 0.433457 0.065075 -0.898822
vn 0.435581 0.065578 -0.897758
vn 0.405210 -0.374272 -0.834102
vn 0.435478 0.065458 -0.897816
vn 0.365178 0.030614 -0.930434
vn 0.589883 -0.339504 0.732649
vn 0.237073 -0.446522 -0.862795
vn 0.039696 -0.259490 -0.964930
vn -0.092232 -0.304541 -0.948023
vn 0.348771 -0.440206 -0.827392
vn 0.478950 -0.035223 0.877135
vn 0.480810 0.147000 0.864415
vn -0.101348 0.145651 -0.984131
vn 0.422869 0.026471 0.905804
vn 0.438969 0.894916 -0.080193
vn 0.592064 0.428317 0.682645
vn 0.440632 0.147693 0.885455
vn 0.419176 -0.024087 0.907585
vn 0.736206 -0.582964 0.343735
vn 0.655563 -0.631986 0.413317
vn 0.438745 0.035559 0.897908
vn 0.195256 -0.414285 -0.888956
vn 0.512155 -0.146598 0.846290
vn 0.439361 -0.878263 -0.188722
vn 0.423781 -0.877525 -0.224407
vn 0.437452 -0.870754 -0.224552
vn 0.493599 -0.848896 -0.189040
vn 0.489382 -0.851420 -0.188650
vn 0.328942 -0.811006 -0.483804
vn 0.486728 -0.852508 -0.190595
vn 0.481681 -0.587614 0.650149
vn 0.494793 -0.847548 -0.191943
vn 0.495162 -0.847526 -0.191087
vn 0.490162 -0.850738 -0.189699
vn 0.496346 -0.847021 -0.190251
vn 0.388507 -0.813574 -0.432619
vn 0.355657 0.568933 -0.741500
vn 0.494153 -0.849775 -0.183562
vn 0.402312 -0.824416 -0.398098
vn 0.491062 -0.847646 -0.200883
vn 0.404472 -0.826238 -0.392089
vn 0.391614 -0.829998 -0.397166
vn 0.381347 -0.829197 -0.408666
vn 0.381129 -0.827064 -0.413166
vn 0.389999 -0.827342 -0.404234
vn 0.402928 -0.824097 -0.398138
vn 0.412995 -0.823605 -0.388729
vn 0.397213 -0.830697 -0.390083
vn 0.397488 -0.874064 -0.279311
vn 0.359163 0.786627 0.502215
vn 0.186044 -0.868041 0.460318
vn 0.288138 0.130072 0.948714
vn 0.179937 0.972228 -0.149651
vn 0.232016 0.738822 0.632701
vn 0.251413 -0.193906 0.948257
vn 0.095896 -0.905986 0.412303
vn 0.233360 -0.933698 -0.271571
vn 0.132441 0.147021 0.980227
vn 0.061401 0.641365 0.764775
vn -0.104430 -0.974095 0.200582
vn 0.054666 0.162187 0.985245
vn -0.000393 0.685785 0.727804
vn -0.000003 0.985531 -0.169495
vn -0.000001 0.712647 -0.701523
vn 0.000004 0.999718 0.023727
vn -0.000499 0.148610 -0.988896
vn -0.000045 -0.477178 -0.878806
vn 0.000007 -0.981625 0.190822
vn -0.000014 -0.971100 0.238674
vn -0.000004 -0.777709 -0.628625
vn -0.000005 -0.996895 -0.078738
vn -0.012349 -0.686123 0.727381
vn 0.104390 -0.974040 0.200868
vn -0.061633 0.640933 0.765118
vn -0.172107 0.181297 0.968251
vn -0.233284 -0.933757 -0.271432
vn -0.094470 -0.906927 0.410559
vn -0.267794 -0.280688 0.921683
vn -0.232294 0.739180 0.632180
vn -0.179466 0.972703 -0.147107
vn -0.286186 0.126348 0.949807
vn -0.189405 -0.866921 0.461057
vn -0.359442 0.786253 0.502600
vn -0.398722 -0.884102 -0.243687
vn -0.397435 -0.830803 -0.389631
vn -0.413198 -0.823722 -0.388264
vn -0.403062 -0.824241 -0.397704
vn -0.390169 -0.827468 -0.403813
vn -0.381671 -0.827040 -0.412713
vn -0.381658 -0.829247 -0.408273
vn -0.391622 -0.830179 -0.396781
vn -0.404723 -0.826332 -0.391630
vn -0.491101 -0.847600 -0.200984
vn -0.314628 0.729325 -0.607531
vn -0.402551 -0.824520 -0.397642
vn -0.494142 -0.849764 -0.183646
vn -0.429705 -0.813954 -0.390937
vn -0.496318 -0.847017 -0.190342
vn -0.490152 -0.850734 -0.189743
vn -0.495182 -0.847500 -0.191149
vn -0.494819 -0.847509 -0.192047
vn -0.476892 -0.499144 0.723484
vn -0.486649 -0.852542 -0.190643
vn -0.489416 -0.851383 -0.188727
vn -0.410569 -0.863491 -0.292942
vn -0.493571 -0.848896 -0.189114
vn -0.406420 -0.883972 -0.231121
vn -0.378075 -0.899317 -0.219747
vn -0.435686 -0.884709 -0.165736
vn -0.243178 -0.446559 -0.861075
vn -0.472531 -0.028155 0.880864
vn -0.653471 -0.624983 0.427049
vn -0.780231 -0.475280 0.406632
vn -0.419526 -0.023038 0.907451
vn -0.439881 0.147762 0.885816
vn -0.592041 0.427738 0.683028
vn -0.439213 0.895079 -0.076975
vn -0.422939 0.026903 0.905759
vn -0.480790 0.146939 0.864436
vn -0.479045 -0.034832 0.877099
vn -0.563254 -0.362051 0.742741
vn -0.719765 0.173701 0.672136
vn -0.824642 -0.219484 0.521338
vn -0.439502 -0.804557 -0.399407
vn -0.599918 -0.799865 -0.017718
vn -0.770236 -0.527702 -0.358143
vn -0.902740 -0.211151 0.374801
vn -0.840829 -0.541213 -0.009704
vn -0.896770 -0.304333 -0.321226
vn -0.843300 -0.333262 -0.421641
vn -0.851231 -0.302662 -0.428721
vn -0.605060 0.107680 -0.788865
vn -0.875539 -0.237971 -0.420478
vn -0.281659 -0.658727 -0.697673
vn -0.489768 -0.834678 -0.251872
vn -0.054576 -0.632493 -0.772641
vn -0.189097 -0.305026 -0.933382
vn -0.523150 -0.656070 -0.543955
vn -0.623662 -0.683737 -0.378880
vn -0.479720 -0.675296 -0.560218
vn -0.546489 -0.574440 -0.609400
vn -0.704382 -0.682671 -0.194438
vn -0.906005 0.376639 -0.193124
f 190//190 198//198 199//199
f 198//198 179//179 199//199
f 190//190 199//199 188//188
f 188//188 199//199 150//150
f 179//179 178//178 199//199
f 178//178 172//172 199//199
f 199//199 172//172 173//173
f 199//199 173//173 150//150
f 198//198 194//194 197//197
f 198//198 197//197 169//169
f 184//184 194//194 198//198
f 198//198 190//190 184//184
f 177//177 179//179 198//198
f 177//177 198//198 169//169
f 193//193 196//196 197//197
f 197//197 196//196 169//169
f 194//194 193//193 197//197
f 192//192 195//195 196//196
f 195//195 169//169 196//196
f 193//193 192//192 196//196
f 192//192 191//191 195//195
f 195//195 191//191 169//169
f 193//193 194//194 140//140
f 184//184 181//181 194//194
f 181//181 165//165 194//194
f 165//165 164//164 194//194
f 194//194 164//164 140//140
f 193//193 140//140 192//192
f 192//192 140//140 191//191
f 191//191 168//168 169//169
f 140//140 168//168 191//191
f 184//184 190//190 188//188
f 188//188 189//189 184//184
f 189//189 188//188 166//166
f 189//189 187//187 184//184
f 187//187 189//189 166//166
f 166//166 188//188 150//150
f 187//187 186//186 184//184
f 166//166 186//186 187//187
f 186//186 185//185 184//184
f 166//166 185//185 186//186
f 185//185 183//183 184//184
f 185//185 182//182 183//183
f 185//185 166//166 182//182
f 184//184 183//183 181//181
f 182//182 181//181 183//183
f 182//182 180//180 181//181
f 180//180 182//182 166//166
f 180//180 161//161 181//181
f 181//181 161//161 165//165
f 180//180 166//166 161//161
f 178//178 179//179 176//176
f 176//176 179//179 177//177
f 178//178 176//176 175//175
f 178//178 175//175 172//172
f 174//174 176//176 177//177
f 177//177 170//170 174//174
f 177//177 167//167 170//170
f 167//167 177//177 169//169
f 176//176 174//174 175//175
f 175//175 174//174 171//171
f 175//175 171//171 172//172
f 171//171 174//174 170//170
f 139//139 173//173 172//172
f 136//136 150//150 173//173
f 139//139 136//136 173//173
f 171//171 167//167 172//172
f 139//139 172//172 167//167
f 171//171 170//170 167//167
f 167//167 169//169 168//168
f 168//168 158//158 167//167
f 140//140 158//158 168//168
f 158//158 137//137 167//167
f 139//139 167//167 137//137
f 166//166 153//153 161//161
f 166//166 151//151 153//153
f 148//148 151//151 166//166
f 166//166 150//150 120//120
f 147//147 148//148 166//166
f 146//146 147//147 166//166
f 166//166 145//145 146//146
f 166//166 144//144 145//145
f 166//166 143//143 144//144
f 166//166 142//142 143//143
f 141//141 142//142 166//166
f 141//141 166//166 132//132
f 166//166 123//123 132//132
f 166//166 122//122 123//123
f 166//166 120//120 122//122
f 161//161 164//164 165//165
f 153//153 163//163 164//164
f 164//164 163//163 140//140
f 161//161 153//153 164//164
f 151//151 162//162 163//163
f 163//163 162//162 140//140
f 153//153 151//151 163//163
f 148//148 160//160 162//162
f 162//162 160//160 140//140
f 151//151 148//148 162//162
f 147//147 159//159 160//160
f 160//160 159//159 140//140
f 148//148 147//147 160//160
f 146//146 157//157 159//159
f 157//157 140//140 159//159
f 147//147 146//146 159//159
f 158//158 140//140 138//138
f 158//158 138//138 134//134
f 158//158 134//134 137//137
f 145//145 156//156 157//157
f 157//157 156//156 140//140
f 146//146 145//145 157//157
f 144//144 155//155 156//156
f 156//156 155//155 140//140
f 145//145 144//144 156//156
f 143//143 154//154 155//155
f 154//154 140//140 155//155
f 144//144 143//143 155//155
f 142//142 152//152 154//154
f 152//152 140//140 154//154
f 143//143 142//142 154//154
f 141//141 149//149 152//152
f 152//152 149//149 140//140
f 142//142 141//141 152//152
f 150//150 136//136 120//120
f 141//141 132//132 149//149
f 149//149 132//132 140//140
f 138//138 140//140 132//132
f 135//135 139//139 137//137
f 136//136 139//139 121//121
f 121//121 139//139 135//135
f 134//134 138//138 133//133
f 138//138 132//132 133//133
f 135//135 137//137 131//131
f 134//134 131//131 137//137
f 136//136 121//121 119//119
f 136//136 119//119 120//120
f 135//135 131//131 130//130
f 135//135 130//130 121//121
f 133//133 128//128 134//134
f 134//134 128//128 131//131
f 125//125 133//133 132//132
f 133//133 129//129 128//128
f 125//125 129//129 133//133
f 123//123 126//126 132//132
f 126//126 127//127 132//132
f 127//127 125//125 132//132
f 130//130 131//131 117//117
f 131//131 128//128 117//117
f 118//118 121//121 130//130
f 130//130 117//117 118//118
f 124//124 128//128 129//129
f 125//125 124//124 129//129
f 124//124 116//116 128//128
f 111//111 117//117 128//128
f 112//112 128//128 116//116
f 112//112 111//111 128//128
f 126//126 123//123 113//113
f 122//122 78//78 123//123
f 123//123 78//78 113//113
f 127//127 126//126 113//113
f 125//125 127//127 113//113
f 125//125 116//116 124//124
f 125//125 112//112 116//116
f 112//112 125//125 113//113
f 120//120 78//78 122//122
f 121//121 109//109 119//119
f 121//121 118//118 115//115
f 115//115 110//110 121//121
f 121//121 110//110 106//106
f 109//109 121//121 106//106
f 119//119 109//109 120//120
f 109//109 93//93 120//120
f 93//93 78//78 120//120
f 115//115 118//118 117//117
f 115//115 117//117 114//114
f 111//111 114//114 117//117
f 110//110 115//115 114//114
f 108//108 114//114 111//111
f 108//108 110//110 114//114
f 113//113 107//107 112//112
f 105//105 107//107 113//113
f 96//96 105//105 113//113
f 104//104 96//96 113//113
f 104//104 113//113 78//78
f 107//107 111//111 112//112
f 79//79 108//108 111//111
f 87//87 111//111 107//107
f 111//111 87//87 79//79
f 106//106 110//110 108//108
f 109//109 106//106 71//71
f 93//93 109//109 71//71
f 77//77 106//106 108//108
f 79//79 77//77 108//108
f 105//105 87//87 107//107
f 72//72 106//106 77//77
f 71//71 106//106 72//72
f 94//94 105//105 96//96
f 94//94 91//91 105//105
f 91//91 90//90 105//105
f 89//89 105//105 90//90
f 88//88 105//105 89//89
f 88//88 86//86 105//105
f 105//105 76//76 87//87
f 84//84 105//105 86//86
f 83//83 105//105 84//84
f 82//82 105//105 83//83
f 81//81 105//105 82//82
f 6//6 105//105 81//81
f 76//76 105//105 10//10
f 9//9 10//10 105//105
f 8//8 9//9 105//105
f 7//7 8//8 105//105
f 7//7 105//105 6//6
f 94//94 104//104 103//103
f 104//104 78//78 103//103
f 104//104 94//94 96//96
f 102//102 91//91 103//103
f 78//78 102//102 103//103
f 91//91 94//94 103//103
f 101//101 90//90 102//102
f 78//78 101//101 102//102
f 90//90 91//91 102//102
f 100//100 89//89 101//101
f 78//78 100//100 101//101
f 101//101 89//89 90//90
f 99//99 88//88 100//100
f 78//78 99//99 100//100
f 100//100 88//88 89//89
f 86//86 99//99 98//98
f 99//99 78//78 98//98
f 86//86 88//88 99//99
f 84//84 98//98 97//97
f 98//98 78//78 97//97
f 98//98 84//84 86//86
f 83//83 97//97 95//95
f 97//97 78//78 95//95
f 97//97 83//83 84//84
f 92//92 82//82 95//95
f 78//78 92//92 95//95
f 95//95 82//82 83//83
f 69//69 78//78 93//93
f 71//71 1//1 93//93
f 93//93 65//65 69//69
f 65//65 93//93 61//61
f 61//61 93//93 60//60
f 60//60 93//93 58//58
f 58//58 93//93 57//57
f 57//57 93//93 56//56
f 56//56 93//93 55//55
f 55//55 93//93 54//54
f 54//54 93//93 52//52
f 52//52 93//93 50//50
f 50//50 93//93 48//48
f 48//48 93//93 46//46
f 46//46 93//93 44//44
f 44//44 93//93 42//42
f 42//42 93//93 39//39
f 39//39 93//93 36//36
f 36//36 93//93 34//34
f 34//34 93//93 32//32
f 32//32 93//93 29//29
f 29//29 93//93 27//27
f 27//27 93//93 25//25
f 25//25 93//93 23//23
f 23//23 93//93 21//21
f 21//21 93//93 19//19
f 19//19 93//93 18//18
f 18//18 93//93 17//17
f 17//17 93//93 16//16
f 16//16 93//93 12//12
f 12//12 93//93 1//1
f 85//85 81//81 92//92
f 78//78 85//85 92//92
f 92//92 81//81 82//82
f 76//76 79//79 87//87
f 85//85 80//80 81//81
f 30//30 80//80 85//85
f 66//66 85//85 78//78
f 66//66 30//30 85//85
f 80//80 6//6 81//81
f 30//30 6//6 80//80
f 77//77 79//79 62//62
f 75//75 79//79 76//76
f 75//75 62//62 79//79
f 69//69 64//64 78//78
f 78//78 64//64 66//66
f 73//73 77//77 74//74
f 62//62 74//74 77//77
f 73//73 72//72 77//77
f 10//10 75//75 76//76
f 2//2 62//62 75//75
f 5//5 75//75 10//10
f 5//5 4//4 75//75
f 3//3 75//75 4//4
f 2//2 75//75 3//3
f 73//73 74//74 70//70
f 62//62 70//70 74//74
f 68//68 72//72 73//73
f 68//68 73//73 70//70
f 72//72 1//1 71//71
f 41//41 72//72 68//68
f 72//72 41//41 1//1
f 68//68 70//70 67//67
f 70//70 62//62 67//67
f 65//65 64//64 69//69
f 41//41 68//68 67//67
f 67//67 62//62 38//38
f 38//38 41//41 67//67
f 64//64 30//30 66//66
f 65//65 63//63 64//64
f 65//65 59//59 63//63
f 65//65 61//61 59//59
f 64//64 63//63 30//30
f 63//63 59//59 30//30
f 38//38 62//62 2//2
f 61//61 60//60 59//59
f 59//59 60//60 58//58
f 58//58 57//57 59//59
f 57//57 56//56 59//59
f 56//56 55//55 59//59
f 55//55 54//54 59//59
f 59//59 54//54 52//52
f 48//48 53//53 59//59
f 59//59 53//53 30//30
f 52//52 50//50 59//59
f 50//50 48//48 59//59
f 46//46 51//51 53//53
f 53//53 51//51 30//30
f 48//48 46//46 53//53
f 44//44 49//49 51//51
f 51//51 49//49 30//30
f 46//46 44//44 51//51
f 47//47 49//49 42//42
f 49//49 47//47 30//30
f 49//49 44//44 42//42
f 39//39 45//45 47//47
f 47//47 45//45 30//30
f 42//42 39//39 47//47
f 36//36 43//43 45//45
f 45//45 43//43 30//30
f 39//39 36//36 45//45
f 34//34 40//40 43//43
f 43//43 40//40 30//30
f 36//36 34//34 43//43
f 41//41 38//38 1//1
f 32//32 37//37 40//40
f 40//40 37//37 30//30
f 34//34 32//32 40//40
f 38//38 2//2 1//1
f 37//37 35//35 30//30
f 29//29 35//35 37//37
f 37//37 32//32 29//29
f 35//35 33//33 30//30
f 33//33 35//35 27//27
f 35//35 29//29 27//27
f 33//33 31//31 30//30
f 31//31 33//33 25//25
f 27//27 25//25 33//33
f 31//31 28//28 30//30
f 28//28 31//31 23//23
f 25//25 23//23 31//31
f 28//28 26//26 30//30
f 26//26 24//24 30//30
f 24//24 22//22 30//30
f 22//22 20//20 30//30
f 30//30 20//20 15//15
f 30//30 15//15 13//13
f 30//30 13//13 6//6
f 21//21 26//26 28//28
f 28//28 23//23 21//21
f 19//19 24//24 26//26
f 21//21 19//19 26//26
f 18//18 22//22 24//24
f 19//19 18//18 24//24
f 17//17 20//20 22//22
f 18//18 17//17 22//22
f 17//17 16//16 20//20
f 16//16 15//15 20//20
f 15//15 16//16 12//12
f 15//15 14//14 13//13
f 12//12 14//14 15//15
f 13//13 14//14 6//6
f 12//12 11//11 14//14
f 14//14 11//11 2//2
f 6//6 14//14 2//2
f 11//11 12//12 1//1
f 11//11 1//1 2//2
f 9//9 5//5 10//10
f 8//8 5//5 9//9
f 7//7 4//4 8//8
f 4//4 5//5 8//8
f 3//3 7//7 6//6
f 7//7 3//3 4//4
f 2//2 3//3 6//6
g
