# Created by Yong Hum Na(30-Aug-2010)
v 2.062120 165.908089 5.952959
v 2.133544 165.906334 5.850926
v 2.083763 166.093693 5.953007
v 2.152300 166.073580 5.850926
v 2.093694 165.904611 6.031573
v 2.089325 165.722290 5.952813
v 2.158826 165.739070 5.850926
v 2.113480 166.082453 6.031606
v 2.120660 165.726851 6.031558
v 2.213837 166.231308 5.850926
v 2.152808 166.268447 5.952967
v 2.181782 165.906488 6.105461
v 2.226451 165.584061 5.850926
v 2.163624 165.549836 5.952683
v 2.178667 166.249759 6.031658
v 2.198973 166.061975 6.105434
v 2.205340 165.752526 6.105494
v 2.192667 165.562462 6.031642
v 2.255830 166.207301 6.105443
v 2.267997 165.608718 6.105473
v 2.313946 166.367293 5.850926
v 2.264559 166.418974 5.952850
v 2.301264 165.909668 6.153484
v 2.284806 166.394787 6.031604
v 2.331792 165.452163 5.850926
v 2.280094 165.402903 5.953057
v 2.315083 166.033592 6.153484
v 2.320050 165.785852 6.153481
v 2.304703 165.423560 6.031810
v 2.348417 166.333664 6.105498
v 2.360578 166.150431 6.153479
v 2.370169 165.670556 6.153478
v 2.365434 165.486643 6.105376
v 2.445822 166.473344 5.850926
v 2.411648 166.536142 5.952822
v 2.434661 166.250168 6.153487
v 2.445813 165.911365 6.182851
v 2.424761 166.506926 6.031714
v 2.448272 165.572357 6.153483
v 2.455462 165.998499 6.182851
v 2.467679 165.351510 5.850926
v 2.430613 165.290781 5.953762
v 2.458934 165.825609 6.182850
v 2.448939 165.317631 6.031804
v 2.470444 166.431105 6.105522
v 2.487242 166.080050 6.182853
v 2.493950 165.745509 6.182854
v 2.491264 165.393708 6.105360
v 2.532290 166.328504 6.153494
v 2.538932 166.150371 6.182851
v 2.548456 165.678047 6.182856
v 2.548972 165.498376 6.153489
v 2.600466 166.540004 5.850926
v 2.583644 166.609663 5.952356
v 2.588945 166.578956 6.031528
v 2.607826 165.915582 6.197520
v 2.607083 166.205242 6.182849
v 2.612774 165.960335 6.197519
v 2.614597 165.870825 6.197519
v 2.618685 165.626090 6.182855
v 2.613456 166.493676 6.105527
v 2.624843 165.290333 5.850926
v 2.604707 165.222018 5.953567
v 2.615621 165.251909 6.031569
v 2.629124 166.002350 6.197519
v 2.632655 165.828878 6.197519
v 2.636795 165.337257 6.105446
v 2.646731 166.378416 6.153495
v 2.655733 166.037336 6.197519
v 2.660739 165.793916 6.197519
v 2.665421 165.452869 6.153494
v 2.687005 166.240410 6.182849
v 2.690841 166.066720 6.197520
v 2.696942 165.767385 6.197519
v 2.699940 165.593794 6.182851
v 2.732022 166.083607 6.197520
v 2.738845 165.750649 6.197520
v 2.767347 166.565834 5.850926
v 2.769181 166.637278 5.952896
v 2.766096 166.605999 6.031511
v 2.767879 166.517073 6.105503
v 2.770299 166.398398 6.153487
v 2.773231 166.253091 6.182853
v 2.776393 166.090624 6.197521
v 2.779962 165.918570 6.201757
v 2.783537 165.746498 6.197521
v 2.786660 165.583946 6.182845
v 2.789636 165.440127 6.153499
v 2.792093 165.320134 6.105559
v 2.793822 165.231110 6.031491
v 2.792584 165.271322 5.850926
v 2.790759 165.199871 5.952879
v 2.821087 166.086459 6.197520
v 2.827936 165.753534 6.197521
v 2.860005 166.243281 6.182854
v 2.862989 166.069739 6.197519
v 2.869096 165.771758 6.197521
v 2.872913 165.596678 6.182849
v 2.894595 166.384287 6.153474
v 2.899156 166.043191 6.197520
v 2.904178 165.799773 6.197520
v 2.913109 165.458665 6.153490
v 2.923120 166.499865 6.105447
v 2.927275 166.008215 6.197520
v 2.930798 165.836168 6.197520
v 2.944119 166.585192 6.031659
v 2.935073 166.546775 5.850926
v 2.955098 166.615298 5.953111
v 2.946416 165.343479 6.105554
v 2.941198 166.211053 6.182855
v 2.945319 165.966282 6.197519
v 2.947151 165.878143 6.197520
v 2.952868 165.631897 6.182851
v 2.952092 165.921552 6.197520
v 2.971120 165.258060 6.031327
v 2.959453 165.297169 5.850926
v 2.976444 165.227536 5.952313
v 3.010938 166.338781 6.153483
v 3.011460 166.160449 6.182855
v 3.020999 165.686759 6.182850
v 3.027630 165.508603 6.153494
v 3.068507 166.443253 6.105476
v 3.066008 166.091594 6.182851
v 3.072694 165.757059 6.182851
v 3.089492 165.405996 6.105519
v 3.111013 166.520962 6.031650
v 3.100996 166.011498 6.182851
v 3.092241 166.485596 5.850926
v 3.129589 166.546514 5.952929
v 3.104450 165.838612 6.182852
v 3.111703 166.264774 6.153472
v 3.135233 165.329943 6.031348
v 3.114103 165.925741 6.182851
v 3.125260 165.587033 6.153499
v 3.114097 165.365122 5.850926
v 3.148440 165.302078 5.951987
v 3.194479 166.350352 6.105431
v 3.189750 166.166550 6.153478
v 3.199341 165.688075 6.153485
v 3.211505 165.503459 6.105496
v 3.255406 166.413548 6.031637
v 3.239876 166.051268 6.153482
v 3.244842 165.803492 6.153484
v 3.228126 166.384962 5.850926
v 3.279824 166.434220 5.953062
v 3.275124 165.442336 6.031591
v 3.258664 165.928787 6.153484
v 3.245973 165.469830 5.850926
v 3.295332 165.417942 5.952488
v 3.291935 166.228407 6.105472
v 3.304079 165.629854 6.105469
v 3.367265 166.274625 6.031639
v 3.354587 166.084623 6.105489
v 3.360925 165.775152 6.105443
v 3.381265 165.587383 6.031646
v 3.333468 166.253047 5.850926
v 3.396296 166.287271 5.952683
v 3.378150 165.930626 6.105459
v 3.346093 165.605798 5.850926
v 3.407119 165.568663 5.952980
v 3.439258 166.110276 6.031556
v 3.446444 165.754668 6.031591
v 3.401090 166.098051 5.850926
v 3.470591 166.114836 5.952812
v 3.466238 165.932511 6.031573
v 3.407621 165.763559 5.850926
v 3.476156 165.743448 5.953012
v 3.426389 165.930789 5.850926
v 3.497812 165.929032 5.952960
vn -0.928564 0.025154 0.370319
vn 0.000000 0.000000 -1.000000
vn -0.890438 0.263787 0.370861
vn 0.000000 0.000000 -1.000000
vn -0.808823 -0.021843 0.587646
vn -0.904100 -0.215881 0.368781
vn 0.000000 0.000000 -1.000000
vn -0.786814 0.187841 0.587911
vn -0.775741 -0.230294 0.587529
vn 0.000000 0.000000 -1.000000
vn -0.792248 0.484828 0.370520
vn -0.513567 -0.016355 0.857893
vn 0.000000 0.000000 -1.000000
vn -0.817761 -0.442851 0.367628
vn -0.711567 0.383857 0.588494
vn -0.500785 0.117210 0.857599
vn -0.491359 -0.148170 0.858261
vn -0.688606 -0.423589 0.588552
vn -0.453310 0.242522 0.857725
vn -0.436410 -0.270627 0.858083
vn 0.000000 0.000000 -1.000000
vn -0.640251 0.673603 0.369239
vn -0.286946 -0.009573 0.957899
vn -0.587948 0.555495 0.587998
vn 0.000000 0.000000 -1.000000
vn -0.673677 -0.638720 0.371748
vn -0.279709 0.064861 0.957892
vn -0.274922 -0.083229 0.957857
vn -0.554472 -0.586411 0.590493
vn -0.374597 0.350524 0.858376
vn -0.253372 0.135555 0.957824
vn -0.244217 -0.151505 0.957812
vn -0.352766 -0.375464 0.857078
vn 0.000000 0.000000 -1.000000
vn -0.442298 0.817406 0.369081
vn -0.209675 0.196000 0.957925
vn -0.144763 -0.005377 0.989452
vn -0.423537 0.688139 0.589136
vn -0.196296 -0.209683 0.957863
vn -0.141167 0.032242 0.989461
vn 0.000000 0.000000 -1.000000
vn -0.484087 -0.788644 0.379079
vn -0.138493 -0.042493 0.989451
vn -0.384687 -0.709546 0.590390
vn -0.270182 0.435499 0.858686
vn -0.127789 0.067812 0.989480
vn -0.122498 -0.076801 0.989493
vn -0.243593 -0.454338 0.856878
vn -0.151567 0.243355 0.958022
vn -0.106316 0.098310 0.989460
vn -0.098180 -0.105855 0.989523
vn -0.134990 -0.253196 0.957951
vn 0.000000 0.000000 -1.000000
vn -0.216307 0.905925 0.364020
vn -0.229875 0.776114 0.587201
vn -0.063903 -0.003668 0.997949
vn -0.076988 0.122840 0.989436
vn -0.062726 0.012957 0.997947
vn -0.060865 -0.019914 0.997947
vn -0.067945 -0.127520 0.989506
vn -0.148521 0.490581 0.858645
vn 0.000000 0.000000 -1.000000
vn -0.264250 -0.887845 0.376700
vn -0.190066 -0.786427 0.587714
vn -0.057074 0.029084 0.997946
vn -0.053576 -0.035163 0.997945
vn -0.117626 -0.500528 0.857692
vn -0.083922 0.274086 0.958036
vn -0.047914 0.042485 0.997948
vn -0.042667 -0.047937 0.997939
vn -0.064363 -0.279341 0.958032
vn -0.042539 0.138608 0.989433
vn -0.035039 0.053370 0.997960
vn -0.029059 -0.057218 0.997939
vn -0.032515 -0.141155 0.989453
vn -0.019702 0.060805 0.997955
vn -0.012806 -0.062642 0.997954
vn 0.000000 0.000000 -1.000000
vn 0.026144 0.928780 0.369709
vn -0.021212 0.809350 0.586944
vn -0.015897 0.512986 0.858250
vn -0.010064 0.286735 0.957957
vn -0.005584 0.144565 0.989479
vn -0.004104 0.063648 0.997964
vn 0.000027 0.000002 1.000000
vn 0.004100 -0.063643 0.997964
vn 0.005232 -0.145196 0.989389
vn 0.010084 -0.286252 0.958101
vn 0.016655 -0.511852 0.858912
vn 0.021261 -0.809585 0.586617
vn 0.000000 0.000000 -1.000000
vn -0.026021 -0.928899 0.369417
vn 0.012804 0.062644 0.997954
vn 0.020217 -0.060364 0.997972
vn 0.032818 0.140765 0.989499
vn 0.029059 0.057216 0.997939
vn 0.035115 -0.053226 0.997965
vn 0.042541 -0.138617 0.989432
vn 0.065463 0.279935 0.957785
vn 0.042356 0.047935 0.997952
vn 0.047698 -0.042450 0.997959
vn 0.082933 -0.274590 0.957978
vn 0.117584 0.500461 0.857737
vn 0.053595 0.034945 0.997951
vn 0.057138 -0.028628 0.997956
vn 0.187959 0.786238 0.588643
vn 0.000000 0.000000 -1.000000
vn 0.262787 0.890285 0.371935
vn 0.147905 -0.490442 0.858831
vn 0.067364 0.127782 0.989512
vn 0.060866 0.019912 0.997947
vn 0.062672 -0.013017 0.997949
vn 0.077268 -0.122415 0.989467
vn 0.063903 0.003595 0.997950
vn 0.231567 -0.777515 0.584676
vn 0.000000 0.000000 -1.000000
vn 0.218381 -0.905790 0.363118
vn 0.134699 0.253571 0.957893
vn 0.098156 0.106031 0.989506
vn 0.106315 -0.098431 0.989449
vn 0.151577 -0.243332 0.958026
vn 0.242017 0.452934 0.858066
vn 0.122971 0.076563 0.989453
vn 0.128003 -0.067765 0.989456
vn 0.270244 -0.435829 0.858500
vn 0.385064 0.710833 0.588593
vn 0.138494 0.042491 0.989451
vn 0.000000 0.000000 -1.000000
vn 0.487416 0.790768 0.370286
vn 0.141102 -0.032173 0.989472
vn 0.196817 0.209710 0.957750
vn 0.424261 -0.691232 0.584979
vn 0.144734 0.005367 0.989456
vn 0.209710 -0.195233 0.958074
vn 0.000000 0.000000 -1.000000
vn 0.444310 -0.820458 0.359773
vn 0.352764 0.374322 0.857578
vn 0.244216 0.151471 0.957818
vn 0.253282 -0.135221 0.957895
vn 0.374629 -0.350503 0.858371
vn 0.556637 0.586399 0.588465
vn 0.274840 0.083375 0.957868
vn 0.279630 -0.065151 0.957895
vn 0.000000 0.000000 -1.000000
vn 0.673850 0.638724 0.371426
vn 0.588006 -0.555638 0.587806
vn 0.286937 0.009855 0.957899
vn 0.000000 0.000000 -1.000000
vn 0.640003 -0.676026 0.365220
vn 0.436430 0.270693 0.858053
vn 0.453033 -0.241867 0.858057
vn 0.688716 0.423612 0.588407
vn 0.491446 0.148299 0.858189
vn 0.500537 -0.117392 0.857719
vn 0.711568 -0.383821 0.588518
vn 0.000000 0.000000 -1.000000
vn 0.817767 0.442847 0.367619
vn 0.513593 0.016449 0.857876
vn 0.000000 0.000000 -1.000000
vn 0.792219 -0.484874 0.370521
vn 0.775750 0.230332 0.587503
vn 0.786823 -0.187868 0.587891
vn 0.000000 0.000000 -1.000000
vn 0.904094 0.215937 0.368762
vn 0.808823 0.021832 0.587647
vn 0.000000 0.000000 -1.000000
vn 0.890424 -0.263765 0.370909
vn 0.000000 0.000000 -1.000000
vn 0.928561 -0.025174 0.370325
f 1//1 8//8 3//3
f 6//6 5//5 1//1
f 1//1 5//5 8//8
f 2//2 4//4 10//10
f 13//13 7//7 2//2
f 2//2 10//10 13//13
f 3//3 8//8 15//15
f 3//3 15//15 11//11
f 6//6 9//9 5//5
f 5//5 16//16 8//8
f 9//9 12//12 5//5
f 5//5 12//12 16//16
f 14//14 9//9 6//6
f 8//8 19//19 15//15
f 8//8 16//16 19//19
f 9//9 17//17 12//12
f 14//14 18//18 9//9
f 18//18 17//17 9//9
f 91//91 13//13 10//10
f 10//10 21//21 34//34
f 34//34 53//53 10//10
f 10//10 53//53 91//91
f 11//11 15//15 24//24
f 11//11 24//24 22//22
f 12//12 27//27 16//16
f 17//17 23//23 12//12
f 12//12 23//23 27//27
f 41//41 25//25 13//13
f 91//91 41//41 13//13
f 26//26 18//18 14//14
f 15//15 19//19 30//30
f 15//15 30//30 24//24
f 16//16 31//31 19//19
f 16//16 27//27 31//31
f 18//18 20//20 17//17
f 20//20 28//28 17//17
f 17//17 28//28 23//23
f 29//29 20//20 18//18
f 26//26 29//29 18//18
f 19//19 36//36 30//30
f 19//19 31//31 36//36
f 20//20 32//32 28//28
f 29//29 33//33 20//20
f 33//33 32//32 20//20
f 22//22 24//24 38//38
f 22//22 38//38 35//35
f 23//23 40//40 27//27
f 28//28 37//37 23//23
f 23//23 37//37 40//40
f 24//24 30//30 45//45
f 24//24 45//45 38//38
f 42//42 29//29 26//26
f 27//27 46//46 31//31
f 27//27 40//40 46//46
f 32//32 43//43 28//28
f 28//28 43//43 37//37
f 44//44 33//33 29//29
f 42//42 44//44 29//29
f 30//30 36//36 49//49
f 30//30 49//49 45//45
f 31//31 50//50 36//36
f 31//31 46//46 50//50
f 33//33 39//39 32//32
f 39//39 47//47 32//32
f 32//32 47//47 43//43
f 48//48 39//39 33//33
f 44//44 48//48 33//33
f 35//35 38//38 55//55
f 35//35 55//55 54//54
f 36//36 57//57 49//49
f 36//36 50//50 57//57
f 37//37 58//58 40//40
f 43//43 56//56 37//37
f 37//37 56//56 58//58
f 38//38 45//45 61//61
f 38//38 61//61 55//55
f 39//39 51//51 47//47
f 48//48 52//52 39//39
f 52//52 51//51 39//39
f 40//40 65//65 46//46
f 40//40 58//58 65//65
f 91//91 62//62 41//41
f 63//63 44//44 42//42
f 47//47 59//59 43//43
f 43//43 59//59 56//56
f 64//64 48//48 44//44
f 63//63 64//64 44//44
f 45//45 49//49 68//68
f 45//45 68//68 61//61
f 46//46 69//69 50//50
f 46//46 65//65 69//69
f 51//51 66//66 47//47
f 47//47 66//66 59//59
f 67//67 52//52 48//48
f 64//64 67//67 48//48
f 49//49 57//57 72//72
f 49//49 72//72 68//68
f 50//50 73//73 57//57
f 50//50 69//69 73//73
f 52//52 60//60 51//51
f 60//60 70//70 51//51
f 51//51 70//70 66//66
f 71//71 60//60 52//52
f 67//67 71//71 52//52
f 53//53 78//78 107//107
f 148//148 91//91 53//53
f 107//107 128//128 53//53
f 53//53 128//128 148//148
f 54//54 55//55 80//80
f 54//54 80//80 79//79
f 55//55 61//61 81//81
f 55//55 81//81 80//80
f 58//58 56//56 85//85
f 56//56 59//59 85//85
f 57//57 76//76 72//72
f 57//57 73//73 76//76
f 65//65 58//58 85//85
f 59//59 66//66 85//85
f 60//60 74//74 70//70
f 71//71 75//75 60//60
f 75//75 74//74 60//60
f 61//61 68//68 82//82
f 61//61 82//82 81//81
f 92//92 64//64 63//63
f 90//90 67//67 64//64
f 92//92 90//90 64//64
f 69//69 65//65 85//85
f 66//66 70//70 85//85
f 89//89 71//71 67//67
f 90//90 89//89 67//67
f 68//68 72//72 83//83
f 68//68 83//83 82//82
f 73//73 69//69 85//85
f 70//70 74//74 85//85
f 88//88 75//75 71//71
f 89//89 88//88 71//71
f 72//72 76//76 84//84
f 72//72 84//84 83//83
f 76//76 73//73 85//85
f 75//75 77//77 74//74
f 74//74 77//77 85//85
f 87//87 77//77 75//75
f 88//88 87//87 75//75
f 84//84 76//76 85//85
f 77//77 86//86 85//85
f 87//87 86//86 77//77
f 79//79 80//80 106//106
f 79//79 106//106 108//108
f 80//80 81//81 103//103
f 80//80 103//103 106//106
f 81//81 82//82 99//99
f 81//81 99//99 103//103
f 82//82 83//83 95//95
f 82//82 95//95 99//99
f 83//83 84//84 93//93
f 83//83 93//93 95//95
f 93//93 84//84 85//85
f 86//86 94//94 85//85
f 96//96 93//93 85//85
f 94//94 97//97 85//85
f 100//100 96//96 85//85
f 97//97 101//101 85//85
f 104//104 100//100 85//85
f 101//101 105//105 85//85
f 111//111 104//104 85//85
f 105//105 112//112 85//85
f 114//114 111//111 85//85
f 112//112 114//114 85//85
f 98//98 86//86 87//87
f 98//98 94//94 86//86
f 102//102 87//87 88//88
f 102//102 98//98 87//87
f 109//109 88//88 89//89
f 109//109 102//102 88//88
f 115//115 89//89 90//90
f 115//115 109//109 89//89
f 117//117 90//90 92//92
f 117//117 115//115 90//90
f 116//116 91//91 148//148
f 95//95 93//93 96//96
f 113//113 97//97 94//94
f 113//113 94//94 98//98
f 95//95 96//96 110//110
f 99//99 95//95 110//110
f 110//110 96//96 100//100
f 120//120 101//101 97//97
f 120//120 97//97 113//113
f 121//121 98//98 102//102
f 121//121 113//113 98//98
f 103//103 99//99 118//118
f 99//99 110//110 118//118
f 119//119 100//100 104//104
f 110//110 100//100 119//119
f 124//124 105//105 101//101
f 124//124 101//101 120//120
f 125//125 102//102 109//109
f 125//125 121//121 102//102
f 106//106 103//103 122//122
f 103//103 118//118 122//122
f 123//123 104//104 111//111
f 119//119 104//104 123//123
f 130//130 112//112 105//105
f 130//130 105//105 124//124
f 108//108 106//106 126//126
f 106//106 122//122 126//126
f 108//108 126//126 129//129
f 132//132 109//109 115//115
f 132//132 125//125 109//109
f 118//118 110//110 119//119
f 127//127 111//111 114//114
f 123//123 111//111 127//127
f 133//133 114//114 112//112
f 133//133 112//112 130//130
f 134//134 120//120 113//113
f 134//134 113//113 121//121
f 127//127 114//114 133//133
f 136//136 115//115 117//117
f 136//136 132//132 115//115
f 148//148 135//135 116//116
f 118//118 119//119 131//131
f 122//122 118//118 131//131
f 131//131 119//119 123//123
f 139//139 124//124 120//120
f 139//139 120//120 134//134
f 140//140 121//121 125//125
f 140//140 134//134 121//121
f 126//126 122//122 137//137
f 122//122 131//131 137//137
f 138//138 123//123 127//127
f 131//131 123//123 138//138
f 143//143 130//130 124//124
f 143//143 124//124 139//139
f 146//146 125//125 132//132
f 146//146 140//140 125//125
f 129//129 126//126 141//141
f 126//126 137//137 141//141
f 142//142 127//127 133//133
f 138//138 127//127 142//142
f 128//128 144//144 156//156
f 128//128 156//156 148//148
f 129//129 141//141 145//145
f 147//147 133//133 130//130
f 147//147 130//130 143//143
f 137//137 131//131 138//138
f 149//149 132//132 136//136
f 149//149 146//146 132//132
f 142//142 133//133 147//147
f 151//151 139//139 134//134
f 151//151 134//134 140//140
f 137//137 138//138 150//150
f 141//141 137//137 150//150
f 150//150 138//138 142//142
f 154//154 143//143 139//139
f 154//154 139//139 151//151
f 155//155 140//140 146//146
f 155//155 151//151 140//140
f 145//145 141//141 152//152
f 141//141 150//150 152//152
f 153//153 142//142 147//147
f 150//150 142//142 153//153
f 158//158 147//147 143//143
f 158//158 143//143 154//154
f 145//145 152//152 157//157
f 160//160 146//146 149//149
f 160//160 155//155 146//146
f 153//153 147//147 158//158
f 156//156 163//163 148//148
f 166//166 159//159 148//148
f 166//166 148//148 163//163
f 152//152 150//150 153//153
f 162//162 154//154 151//151
f 162//162 151//151 155//155
f 152//152 153//153 161//161
f 157//157 152//152 161//161
f 161//161 153//153 158//158
f 165//165 158//158 154//154
f 165//165 154//154 162//162
f 167//167 155//155 160//160
f 167//167 162//162 155//155
f 157//157 161//161 164//164
f 161//161 158//158 165//165
f 164//164 161//161 165//165
f 169//169 165//165 162//162
f 169//169 162//162 167//167
f 163//163 168//168 166//166
f 164//164 165//165 169//169
g
