# Rhino
v -4.060110 118.294904 -0.016299
v -3.931876 117.709967 0.520524
v -3.791824 119.644408 -0.307869
v -3.753560 117.640732 -1.046978
v -3.729893 117.008587 -0.586896
v -3.725610 116.618038 0.133587
v -3.703826 119.082214 -1.253181
v -3.645391 119.832971 -1.253397
v -3.547431 117.268362 1.171117
v -3.536827 120.442787 -0.197106
v -3.443367 120.505394 -1.531623
v -3.351828 118.549412 -1.888227
v -3.330931 116.239291 -0.488836
v -3.328949 117.155922 -1.320975
v -3.272130 118.710839 1.193515
v -3.242980 116.637059 -1.006161
v -3.231474 121.119234 -0.412192
v -3.214339 119.266276 -2.164091
v -3.112354 119.833261 1.008683
v -3.081844 118.400308 1.447118
v -2.927524 119.868703 -2.506820
v -2.904263 115.964919 -0.636420
v -2.886117 116.771909 -1.456603
v -2.836491 121.247325 -1.863451
v -2.831131 117.726434 1.690522
v -2.814764 116.333862 -1.111312
v -2.739010 118.081197 -2.400782
v -2.708469 120.733957 0.816547
v -2.658456 121.734813 -0.849039
v -2.430098 116.255524 1.361871
v -2.422249 118.824318 -2.790050
v -2.362940 120.594867 -2.705442
v -2.341508 121.389379 0.451898
v -2.338608 115.661785 -0.456823
v -2.210831 118.687378 1.499331
v -2.208246 117.844135 1.784518
v -2.187797 115.991204 -1.031114
v -2.171030 118.612722 1.582726
v -2.163096 116.413654 -1.541234
v -2.053080 119.393156 -3.018731
v -1.931865 121.868663 -0.114926
v -1.919406 119.410255 1.545765
v -1.892083 121.686140 -2.006155
v -1.842482 121.980571 -1.329644
v -1.769735 117.649107 -2.638085
v -1.740968 117.755788 1.734650
v -1.564656 120.069689 -3.064230
v -1.542445 115.646032 0.122651
v -1.533590 118.505872 1.490801
v -1.513500 121.207093 -2.570837
v -1.501069 120.430593 1.217898
v -1.455123 122.036926 -0.845995
v -1.402972 118.526961 1.356934
v -1.360135 117.502092 1.609420
v -1.322968 118.492798 -2.997859
v -1.229025 121.084263 0.804523
v -1.171296 115.918688 -0.500801
v -1.066008 117.035985 1.372962
v -1.033137 121.601693 0.216795
v -1.025761 118.183913 1.324365
v -1.014140 116.292965 0.886001
v -0.992258 116.341234 -1.178592
v -0.943449 118.824102 1.341344
v -0.943191 119.140501 -3.068435
v -0.922241 120.782642 -2.742744
v -0.901351 121.885135 -0.589231
v -0.787947 118.261393 1.034776
v -0.608882 117.629840 1.019187
v -0.601378 119.819248 -2.943083
v -0.554879 119.867187 1.017707
v -0.527272 121.489961 -1.717807
v -0.523721 117.456127 -2.214698
v -0.486777 116.703034 0.401498
v -0.354791 120.514089 0.666961
v -0.337621 121.558782 -0.575788
v -0.326954 117.793087 0.538387
v -0.318135 120.551841 -2.540269
v -0.263131 121.108250 0.154117
v -0.240189 118.367601 0.714266
v -0.223789 117.027985 -0.242144
v -0.109423 118.354434 -2.458334
v 0.087452 119.275682 0.492390
v 0.104873 121.145857 -0.808539
v 0.114077 120.469786 -2.130653
v 0.126420 119.053883 -2.433406
v 0.195893 117.687188 -1.189793
v 0.198892 119.738600 -2.338600
v 0.200184 118.012642 -0.157246
v 0.242929 119.928663 0.222768
v 0.290175 120.565444 -0.209780
v 0.328526 120.522342 -1.677514
v 0.334423 120.761499 -1.214395
v 0.478490 118.775626 -0.300244
v 0.498532 118.469253 -1.363430
v 0.576122 119.798686 -1.550370
v 0.588109 120.085588 -0.800775
v 0.595200 119.432020 -0.469445
v 0.619125 119.126395 -1.414024
vn -0.986306 0.074707 0.147038
vn -0.937773 -0.034647 0.345515
vn -0.963404 0.241864 0.115564
vn -0.889535 -0.167668 -0.424988
vn -0.908201 -0.325280 -0.263371
vn -0.837985 -0.522114 0.158677
vn -0.933772 0.041384 -0.355467
vn -0.954579 0.155169 -0.254366
vn -0.723016 -0.207030 0.659080
vn -0.903492 0.369839 0.216615
vn -0.876419 0.349527 -0.331241
vn -0.796562 -0.153856 -0.584651
vn -0.681561 -0.709400 -0.179518
vn -0.690377 -0.353224 -0.631357
vn -0.592518 0.231497 0.771577
vn -0.666206 -0.500678 -0.552712
vn -0.786931 0.593468 0.168924
vn -0.788283 -0.029934 -0.614584
vn -0.611379 0.325769 0.721173
vn -0.507333 0.313210 0.802816
vn -0.666933 0.132430 -0.733255
vn -0.518680 -0.806452 -0.283912
vn -0.499606 -0.521718 -0.691523
vn -0.612415 0.625595 -0.483299
vn -0.321423 0.006916 0.946910
vn -0.430617 -0.644883 -0.631423
vn -0.552635 -0.334709 -0.763259
vn -0.507507 0.478747 0.716406
vn -0.540520 0.841062 -0.021284
vn -0.191021 -0.661596 0.725122
vn -0.456191 -0.176449 -0.872213
vn -0.398384 0.388093 -0.831068
vn -0.364887 0.706779 0.606071
vn -0.232155 -0.943126 -0.237943
vn -0.042776 0.325514 0.944569
vn 0.019159 0.054417 0.998334
vn -0.061469 -0.818079 -0.571812
vn -0.002833 0.571713 0.820449
vn -0.111828 -0.711025 -0.694218
vn -0.279865 -0.010474 -0.959982
vn -0.183757 0.914977 0.359235
vn -0.023893 0.154032 0.987777
vn -0.150708 0.803619 -0.575746
vn -0.141082 0.951075 -0.274868
vn -0.088939 -0.522336 -0.848089
vn 0.237942 0.013613 0.971184
vn -0.026220 0.221832 -0.974732
vn 0.245811 -0.968367 0.042922
vn 0.371205 0.487313 0.790401
vn 0.024226 0.619570 -0.784567
vn 0.078800 0.378281 0.922331
vn 0.049412 0.998667 -0.014930
vn 0.409432 0.332851 0.849456
vn 0.408660 -0.092731 0.907964
vn 0.060813 -0.300789 -0.951750
vn 0.179100 0.586189 0.790130
vn 0.492266 -0.833739 -0.250107
vn 0.559204 -0.307139 0.770037
vn 0.268676 0.799361 0.537433
vn 0.611280 0.224118 0.759018
vn 0.574669 -0.670330 0.469482
vn 0.502267 -0.748375 -0.433200
vn 0.389353 -0.116502 0.913691
vn 0.241840 -0.092595 -0.965888
vn 0.290904 0.484465 -0.825027
vn 0.329808 0.933640 0.139792
vn 0.673458 0.117886 0.729765
vn 0.800336 -0.063104 0.596221
vn 0.421779 0.141196 -0.895637
vn 0.514922 0.170562 0.840098
vn 0.492412 0.779635 -0.386910
vn 0.515824 -0.606977 -0.604570
vn 0.841476 -0.480359 0.247333
vn 0.582194 0.365021 0.726505
vn 0.590824 0.789839 0.164566
vn 0.856545 -0.138026 0.497272
vn 0.569028 0.415125 -0.709844
vn 0.625669 0.590423 0.509843
vn 0.646659 -0.284175 0.707868
vn 0.879235 -0.468672 0.085392
vn 0.639638 -0.349216 -0.684771
vn 0.778872 -0.025388 0.626669
vn 0.775014 0.627743 0.072746
vn 0.767582 0.392418 -0.506780
vn 0.739521 -0.119754 -0.662395
vn 0.847708 -0.523670 -0.084627
vn 0.785675 0.114949 -0.607866
vn 0.829142 -0.408176 0.381990
vn 0.830552 0.162205 0.532797
vn 0.854145 0.386963 0.347413
vn 0.860810 0.412871 -0.297562
vn 0.864782 0.492493 -0.097988
vn 0.936269 -0.184189 0.299123
vn 0.939455 -0.296649 -0.171534
vn 0.959361 0.134573 -0.248026
vn 0.970049 0.227212 0.085905
vn 0.973704 0.006097 0.227736
vn 0.976594 -0.090772 -0.194998
f 2//2 1//1 5//5
f 15//15 1//1 2//2
f 1//1 3//3 4//4
f 19//19 3//3 1//1
f 1//1 4//4 5//5
f 15//15 19//19 1//1
f 2//2 5//5 6//6
f 9//9 2//2 6//6
f 20//20 2//2 9//9
f 20//20 15//15 2//2
f 3//3 7//7 4//4
f 3//3 10//10 7//7
f 28//28 10//10 3//3
f 19//19 28//28 3//3
f 5//5 4//4 16//16
f 4//4 7//7 14//14
f 4//4 14//14 16//16
f 6//6 5//5 13//13
f 5//5 16//16 13//13
f 9//9 6//6 30//30
f 6//6 13//13 30//30
f 10//10 8//8 7//7
f 7//7 8//8 12//12
f 7//7 12//12 14//14
f 10//10 17//17 8//8
f 17//17 11//11 8//8
f 8//8 11//11 18//18
f 8//8 18//18 12//12
f 25//25 20//20 9//9
f 25//25 9//9 30//30
f 33//33 17//17 10//10
f 28//28 33//33 10//10
f 17//17 29//29 11//11
f 11//11 21//21 18//18
f 11//11 24//24 21//21
f 29//29 24//24 11//11
f 14//14 12//12 23//23
f 12//12 18//18 27//27
f 12//12 27//27 23//23
f 13//13 16//16 22//22
f 13//13 22//22 30//30
f 16//16 14//14 26//26
f 14//14 23//23 26//26
f 42//42 19//19 15//15
f 35//35 15//15 20//20
f 35//35 42//42 15//15
f 16//16 26//26 22//22
f 41//41 29//29 17//17
f 33//33 41//41 17//17
f 18//18 21//21 31//31
f 18//18 31//31 27//27
f 51//51 28//28 19//19
f 42//42 51//51 19//19
f 38//38 20//20 25//25
f 38//38 35//35 20//20
f 24//24 32//32 21//21
f 21//21 40//40 31//31
f 21//21 32//32 40//40
f 22//22 26//26 34//34
f 22//22 34//34 30//30
f 26//26 23//23 37//37
f 23//23 27//27 39//39
f 23//23 39//39 37//37
f 29//29 44//44 24//24
f 24//24 43//43 32//32
f 44//44 43//43 24//24
f 36//36 25//25 30//30
f 36//36 38//38 25//25
f 26//26 37//37 34//34
f 27//27 31//31 45//45
f 27//27 45//45 39//39
f 56//56 33//33 28//28
f 51//51 56//56 28//28
f 41//41 52//52 29//29
f 52//52 44//44 29//29
f 34//34 48//48 30//30
f 46//46 36//36 30//30
f 54//54 46//46 30//30
f 48//48 61//61 30//30
f 58//58 54//54 30//30
f 61//61 58//58 30//30
f 31//31 40//40 55//55
f 31//31 55//55 45//45
f 32//32 47//47 40//40
f 43//43 50//50 32//32
f 32//32 50//50 47//47
f 59//59 41//41 33//33
f 56//56 59//59 33//33
f 34//34 37//37 48//48
f 53//53 35//35 38//38
f 63//63 42//42 35//35
f 53//53 63//63 35//35
f 49//49 38//38 36//36
f 46//46 49//49 36//36
f 37//37 39//39 57//57
f 37//37 57//57 48//48
f 49//49 53//53 38//38
f 39//39 45//45 62//62
f 39//39 62//62 57//57
f 40//40 47//47 64//64
f 40//40 64//64 55//55
f 66//66 52//52 41//41
f 59//59 66//66 41//41
f 70//70 51//51 42//42
f 63//63 70//70 42//42
f 44//44 71//71 43//43
f 43//43 71//71 50//50
f 52//52 71//71 44//44
f 45//45 55//55 72//72
f 45//45 72//72 62//62
f 60//60 49//49 46//46
f 54//54 60//60 46//46
f 50//50 65//65 47//47
f 47//47 69//69 64//64
f 47//47 65//65 69//69
f 48//48 57//57 61//61
f 67//67 53//53 49//49
f 60//60 67//67 49//49
f 50//50 71//71 65//65
f 74//74 56//56 51//51
f 70//70 74//74 51//51
f 66//66 71//71 52//52
f 79//79 63//63 53//53
f 67//67 79//79 53//53
f 58//58 68//68 54//54
f 68//68 60//60 54//54
f 55//55 64//64 81//81
f 55//55 81//81 72//72
f 78//78 59//59 56//56
f 74//74 78//78 56//56
f 57//57 73//73 61//61
f 57//57 62//62 73//73
f 61//61 73//73 58//58
f 73//73 68//68 58//58
f 75//75 66//66 59//59
f 78//78 75//75 59//59
f 76//76 67//67 60//60
f 68//68 76//76 60//60
f 62//62 72//72 80//80
f 62//62 80//80 73//73
f 82//82 70//70 63//63
f 79//79 82//82 63//63
f 64//64 69//69 85//85
f 64//64 85//85 81//81
f 65//65 77//77 69//69
f 65//65 71//71 77//77
f 75//75 71//71 66//66
f 76//76 88//88 67//67
f 88//88 79//79 67//67
f 73//73 80//80 68//68
f 80//80 76//76 68//68
f 69//69 77//77 87//87
f 69//69 87//87 85//85
f 89//89 74//74 70//70
f 82//82 89//89 70//70
f 83//83 71//71 75//75
f 77//77 71//71 84//84
f 92//92 71//71 83//83
f 84//84 71//71 91//91
f 91//91 71//71 92//92
f 72//72 86//86 80//80
f 72//72 81//81 86//86
f 90//90 78//78 74//74
f 89//89 90//90 74//74
f 83//83 75//75 78//78
f 80//80 86//86 76//76
f 86//86 88//88 76//76
f 77//77 84//84 87//87
f 90//90 83//83 78//78
f 93//93 82//82 79//79
f 88//88 93//93 79//79
f 81//81 85//85 94//94
f 81//81 94//94 86//86
f 97//97 89//89 82//82
f 93//93 97//97 82//82
f 92//92 83//83 90//90
f 87//87 84//84 95//95
f 84//84 91//91 95//95
f 85//85 87//87 98//98
f 85//85 98//98 94//94
f 86//86 94//94 88//88
f 87//87 95//95 98//98
f 94//94 93//93 88//88
f 96//96 90//90 89//89
f 97//97 96//96 89//89
f 96//96 92//92 90//90
f 91//91 92//92 96//96
f 95//95 91//91 96//96
f 94//94 98//98 93//93
f 98//98 97//97 93//93
f 95//95 96//96 97//97
f 98//98 95//95 97//97
g
