# Rhino
v -3.912983 112.381881 -6.045530
v -3.975267 113.324020 -6.268686
v -4.038183 112.418603 -6.979740
v -4.059971 112.977256 -5.061518
v -4.407132 114.161810 -6.370340
v -4.170938 111.986925 -4.892201
v -4.411609 114.009915 -6.961988
v -4.490688 114.444090 -6.450553
v -4.276903 111.560961 -6.212198
v -4.516153 114.549548 -6.722414
v -4.562024 114.617524 -6.265825
v -4.549257 114.426349 -7.104986
v -4.506752 114.020736 -5.562841
v -4.202968 118.407755 -7.142065
v -4.361178 113.231353 -7.714564
v -4.388478 112.544041 -4.613915
v -4.259233 117.526933 -6.615038
v -4.607472 114.779853 -7.143947
v -4.270738 118.622446 -6.497872
v -4.463371 111.999722 -7.461424
v -4.311430 117.737491 -7.437319
v -4.351038 116.637439 -6.940445
v -4.350616 116.850445 -7.092390
v -4.368770 116.747312 -6.556034
v -4.613456 115.399986 -6.773988
v -4.417260 116.378309 -6.721988
v -4.676960 114.362235 -7.599259
v -4.698769 115.156794 -7.527792
v -4.691077 111.205641 -5.068244
v -4.480638 119.250527 -7.511977
v -4.645351 113.473187 -4.530585
v -4.580505 116.087617 -7.919295
v -4.562381 117.006920 -7.984915
v -4.554581 117.885690 -5.902424
v -4.574970 118.911168 -6.177547
v -4.858350 115.123770 -5.725483
v -4.794436 111.819927 -4.487566
v -4.610079 118.662783 -8.441738
v -4.684400 116.502105 -6.174030
v -4.844819 111.142618 -7.241504
v -4.711743 117.713232 -8.747593
v -4.674492 119.535707 -6.543193
v -4.869965 110.607905 -6.355537
v -4.768056 118.466276 -5.700294
v -5.064695 111.616819 -7.757089
v -5.056075 112.529692 -8.058610
v -5.024911 115.151863 -8.207214
v -4.973615 117.195887 -5.607863
v -5.048891 114.465082 -4.722595
v -5.100084 113.775863 -8.541620
v -5.026836 119.501655 -8.386916
v -5.105796 116.748855 -5.745342
v -5.064330 119.566902 -6.291899
v -5.165284 116.631749 -9.267129
v -5.329002 111.244466 -4.583528
v -5.131529 118.983596 -9.274918
v -5.235052 115.733999 -5.561826
v -5.162294 118.957614 -5.589739
v -5.247074 110.323477 -6.950254
v -5.176376 120.030022 -7.412917
v -5.394759 112.938551 -4.045599
v -5.366420 115.124769 -5.021750
v -5.367092 110.442397 -5.254824
v -5.321262 118.141800 -9.745311
v -5.392962 115.716638 -8.737362
v -5.379468 117.947229 -5.335946
v -5.407374 117.076946 -5.418021
v -5.497216 113.787959 -4.149167
v -5.628591 111.074380 -7.701703
v -5.572680 115.242540 -8.701693
v -5.471507 120.060867 -6.995715
v -5.605038 116.413672 -5.319518
v -5.791443 112.033565 -4.112707
v -5.993632 110.076295 -6.236624
v -5.749277 114.657265 -4.424733
v -5.852870 113.043218 -3.935004
v -5.930135 111.909403 -8.249577
v -5.757613 119.920670 -8.695683
v -5.803294 119.090225 -9.663384
v -5.930178 114.459452 -8.999614
v -6.215214 110.223449 -7.256514
v -5.885758 117.255445 -10.012831
v -5.808249 120.294305 -8.057148
v -6.014543 113.055769 -8.762233
v -5.896139 118.746526 -5.479606
v -6.029412 117.163723 -5.298911
v -6.084101 115.949375 -9.579402
v -6.261059 110.846125 -4.943684
v -6.022531 120.322054 -7.582831
v -6.156997 115.420757 -4.390172
v -6.086112 118.151592 -10.109893
v -6.073902 119.579670 -6.124558
v -6.428098 112.913881 -3.903757
v -6.398905 114.120674 -4.030115
v -6.735253 110.506951 -5.473414
v -6.728187 110.447671 -6.721503
v -6.516915 120.060204 -8.653557
v -6.600165 117.365177 -10.329312
v -6.546007 120.107342 -6.796331
v -6.790526 111.320981 -7.806473
v -6.605372 118.884478 -5.738996
v -6.796769 112.302652 -4.290463
v -6.671251 117.839303 -5.358520
v -6.754188 114.966951 -9.669380
v -6.701595 118.496412 -10.156810
v -6.778034 116.444518 -4.591972
v -6.702321 119.371407 -9.552942
v -6.898551 113.840208 -9.098658
v -6.927968 120.075298 -8.354425
v -7.178028 113.641671 -3.979566
v -7.243702 111.857351 -4.715753
v -7.298239 110.703930 -6.524100
v -7.253354 112.679807 -8.770447
v -7.096465 119.170783 -6.050623
v -7.229227 116.232168 -10.053017
v -7.219640 117.669635 -10.310760
v -7.418304 111.173163 -7.493167
v -7.416626 114.826100 -9.715461
v -7.406534 115.293961 -4.247245
v -7.299201 119.584635 -6.767680
v -7.352022 118.377179 -5.530268
v -7.623889 111.580275 -5.733360
v -7.469476 118.354589 -10.073409
v -7.720524 113.190290 -4.386650
v -7.588887 119.704801 -7.841308
v -7.815348 111.516422 -7.105729
v -7.781304 113.999174 -9.202873
v -7.753143 117.122602 -10.136135
v -7.703402 119.103067 -9.282758
v -7.952621 112.191288 -8.168182
v -7.954079 114.480924 -4.334560
v -7.897048 117.057684 -4.951311
v -7.862984 118.692718 -6.415467
v -8.036949 112.807944 -8.710227
v -8.159185 113.427488 -8.843622
v -8.121713 115.595421 -9.722109
v -8.240412 112.910070 -5.364791
v -8.350152 112.467414 -7.505996
v -8.217906 117.394993 -9.896944
v -8.194703 119.071954 -7.280933
v -8.380143 113.108106 -8.584997
v -8.359599 114.327705 -9.081916
v -8.397665 115.648408 -4.813912
v -8.364258 118.922384 -8.224745
v -8.492679 114.401334 -4.870457
v -8.605905 113.220770 -8.280296
v -8.599483 113.901606 -9.084643
v -8.541989 117.991163 -6.719375
v -8.685437 113.173055 -6.274320
v -8.715520 114.962597 -9.110152
v -8.704847 116.251268 -9.413947
v -8.705152 116.726021 -5.357387
v -8.847974 113.554459 -7.556636
v -8.797066 117.500458 -8.653381
v -8.795422 118.218078 -7.778819
v -8.912686 114.200718 -6.067337
v -8.910753 114.325281 -8.569648
v -8.967855 115.652487 -5.660673
v -8.993272 117.143000 -6.625951
v -9.033755 115.673912 -8.784552
v -9.131435 114.824473 -7.850229
v -9.070945 117.395754 -7.358538
v -9.171133 115.170597 -6.030352
v -9.163804 116.174886 -7.645334
vn 0.987892 -0.154274 0.016398
vn 0.956377 0.288693 -0.044722
vn 0.939364 -0.183397 -0.289759
vn 0.905088 0.200878 0.374785
vn 0.940038 0.337914 0.046289
vn 0.840430 -0.316716 0.439737
vn 0.938449 0.290538 -0.186819
vn 0.949025 0.311329 0.049250
vn 0.869742 -0.483770 -0.097549
vn 0.975820 0.212023 -0.053114
vn 0.951931 0.270537 0.143657
vn 0.959723 0.188183 -0.208611
vn 0.876400 0.402152 0.264946
vn 0.990683 0.075758 -0.113171
vn 0.857630 0.055309 -0.511285
vn 0.626334 -0.013038 0.779445
vn 0.974208 -0.089567 0.207113
vn 0.978725 0.103452 -0.177185
vn 0.936655 0.216095 0.275647
vn 0.732684 -0.352661 -0.582069
vn 0.972312 -0.079589 -0.219715
vn 0.866162 -0.369872 -0.336092
vn 0.952842 -0.191193 -0.235663
vn 0.956661 -0.139798 0.255453
vn 0.997020 -0.004632 0.077009
vn 0.933688 -0.357269 0.024216
vn 0.927012 0.155191 -0.341414
vn 0.966028 -0.047860 -0.253969
vn 0.674272 -0.600802 0.429412
vn 0.874035 0.461415 -0.152179
vn 0.667414 0.288098 0.686701
vn 0.951161 -0.170465 -0.257361
vn 0.943589 -0.108183 -0.312948
vn 0.785423 -0.021875 0.618573
vn 0.724231 0.366505 0.584092
vn 0.857181 0.282021 0.430935
vn 0.450215 -0.333503 0.828301
vn 0.909075 0.173959 -0.378577
vn 0.787426 -0.125338 0.603532
vn 0.699468 -0.504257 -0.506428
vn 0.912595 -0.069152 -0.402974
vn 0.673908 0.662952 0.326102
vn 0.713669 -0.700480 0.002307
vn 0.653612 0.154630 0.740865
vn 0.476431 -0.400539 -0.782676
vn 0.511070 -0.281675 -0.812075
vn 0.754347 -0.145998 -0.640036
vn 0.560569 -0.216140 0.799403
vn 0.655288 0.445328 0.610148
vn 0.655797 -0.044204 -0.753642
vn 0.668458 0.625406 -0.402531
vn 0.598552 -0.244262 0.762936
vn 0.344232 0.723966 0.597811
vn 0.728839 -0.282472 -0.623702
vn 0.226844 -0.562441 0.795112
vn 0.696500 0.432127 -0.572848
vn 0.699700 0.242218 0.672124
vn 0.331287 0.477309 0.813895
vn 0.489574 -0.774608 -0.400375
vn 0.554684 0.828646 -0.075311
vn 0.371398 -0.015414 0.928346
vn 0.651939 0.436133 0.620292
vn 0.247629 -0.827027 0.504683
vn 0.680681 0.076027 -0.728624
vn 0.563057 -0.418138 -0.712830
vn 0.281689 0.041000 0.958629
vn 0.400342 -0.121895 0.908222
vn 0.354767 0.268768 0.895491
vn 0.256670 -0.527034 -0.810158
vn 0.701396 -0.193450 -0.686018
vn 0.238079 0.896431 0.373806
vn 0.590012 0.131769 0.796569
vn 0.032987 -0.346360 0.937522
vn 0.002270 -0.996694 0.081211
vn 0.451793 0.363200 0.814843
vn 0.158050 0.022298 0.987179
vn 0.208167 -0.445088 -0.870955
vn 0.378540 0.768158 -0.516372
vn 0.359702 0.545059 -0.757315
vn 0.520066 -0.160674 -0.838877
vn -0.163336 -0.827612 -0.537010
vn 0.472934 -0.176478 -0.863243
vn 0.240156 0.939257 -0.245196
vn 0.281820 -0.287453 -0.915395
vn -0.091616 0.392913 0.915000
vn 0.256193 0.155116 0.954099
vn 0.522808 -0.313318 -0.792782
vn -0.208892 -0.590156 0.779795
vn 0.017667 0.998753 0.046693
vn 0.468393 0.304169 0.829512
vn 0.341482 0.160063 -0.926159
vn -0.090828 0.713578 0.694663
vn -0.110676 -0.139849 0.983968
vn 0.135228 0.192886 0.971858
vn -0.468725 -0.790419 0.394378
vn -0.458570 -0.857102 -0.234711
vn -0.132179 0.891824 -0.432641
vn 0.193341 -0.100305 -0.975991
vn -0.256566 0.898729 0.355612
vn -0.201578 -0.622453 -0.756253
vn -0.152304 0.489736 0.858465
vn -0.343706 -0.391465 0.853593
vn 0.019893 0.322034 0.946519
vn 0.306346 -0.323260 -0.895352
vn 0.035710 0.354540 -0.934359
vn 0.228834 0.381037 0.895793
vn -0.095959 0.698299 -0.709345
vn 0.153666 -0.374523 -0.914395
vn -0.379375 0.908811 -0.173600
vn -0.286645 -0.066757 0.955708
vn -0.592088 -0.482624 0.645373
vn -0.696311 -0.717651 -0.011327
vn -0.062438 -0.444548 -0.893576
vn -0.383153 0.642315 0.663796
vn 0.010169 -0.224094 -0.974514
vn -0.165687 0.046576 -0.985078
vn -0.501606 -0.728842 -0.466026
vn -0.064105 -0.370867 -0.926471
vn -0.166681 0.224373 0.960143
vn -0.520088 0.710857 0.473488
vn -0.287280 0.509545 0.811070
vn -0.831908 -0.487803 0.264532
vn -0.384261 0.375270 -0.843514
vn -0.616262 -0.284420 0.734388
vn -0.602730 0.797863 0.011402
vn -0.834481 -0.543575 -0.090376
vn -0.223264 -0.380944 -0.897238
vn -0.343816 -0.043242 -0.938041
vn -0.601324 0.634538 -0.485562
vn -0.588568 -0.618572 -0.520535
vn -0.546120 0.009544 0.837653
vn -0.388265 0.445825 0.806529
vn -0.659961 0.538752 0.523639
vn -0.391460 -0.455488 -0.799556
vn -0.190152 -0.339139 -0.921318
vn -0.425804 -0.233955 -0.874046
vn -0.837045 -0.410992 0.361166
vn -0.862889 -0.504796 -0.024572
vn -0.679791 0.164494 -0.714721
vn -0.744814 0.607092 0.276930
vn -0.610831 -0.500753 -0.613295
vn -0.185921 -0.250949 -0.949978
vn -0.641117 0.137221 0.755076
vn -0.802135 0.566191 -0.189753
vn -0.826734 -0.136847 0.545695
vn -0.859026 -0.435195 -0.269590
vn -0.488275 -0.342004 -0.802883
vn -0.755840 0.503744 0.418267
vn -0.903282 -0.402392 0.148867
vn -0.657336 -0.162368 -0.735898
vn -0.793221 -0.014273 -0.608767
vn -0.774883 0.336709 0.534960
vn -0.950857 -0.305121 -0.052647
vn -0.916273 0.248368 -0.314255
vn -0.903353 0.422782 0.072169
vn -0.932980 -0.232398 0.274844
vn -0.932171 -0.212551 -0.293051
vn -0.917068 0.032821 0.397379
vn -0.931749 0.276616 0.235219
vn -0.946671 -0.021133 -0.321508
vn -0.987287 -0.144690 -0.065792
vn -0.978081 0.208143 -0.005777
vn -0.972070 -0.059444 0.227037
vn -0.996032 0.087874 -0.014080
f 164//164 161//161 163//163
f 164//164 163//163 158//158
f 164//164 159//159 162//162
f 154//154 164//164 162//162
f 160//160 161//161 164//164
f 154//154 160//160 164//164
f 159//159 164//164 158//158
f 163//163 161//161 156//156
f 163//163 156//156 158//158
f 162//162 159//159 155//155
f 155//155 154//154 162//162
f 160//160 157//157 161//161
f 161//161 157//157 153//153
f 156//156 161//161 153//153
f 157//157 160//160 150//150
f 154//154 151//151 160//160
f 150//150 160//160 151//151
f 152//152 159//159 158//158
f 155//155 159//159 148//148
f 148//148 159//159 152//152
f 156//156 145//145 158//158
f 152//152 158//158 143//143
f 143//143 158//158 145//145
f 146//146 153//153 157//157
f 157//157 150//150 147//147
f 157//157 147//147 146//146
f 156//156 153//153 149//149
f 149//149 137//137 156//156
f 156//156 137//137 145//145
f 154//154 155//155 144//144
f 148//148 140//140 155//155
f 144//144 155//155 140//140
f 154//154 139//139 151//151
f 144//144 129//129 154//154
f 154//154 129//129 139//139
f 149//149 153//153 138//138
f 146//146 138//138 153//153
f 148//148 152//152 132//132
f 132//132 152//152 143//143
f 151//151 136//136 150//150
f 151//151 139//139 136//136
f 142//142 147//147 150//150
f 150//150 136//136 142//142
f 137//137 149//149 138//138
f 140//140 148//148 133//133
f 148//148 132//132 133//133
f 146//146 147//147 141//141
f 135//135 147//147 142//142
f 147//147 135//135 141//141
f 146//146 141//141 130//130
f 138//138 146//146 130//130
f 131//131 143//143 145//145
f 145//145 137//137 124//124
f 124//124 131//131 145//145
f 144//144 140//140 125//125
f 129//129 144//144 125//125
f 143//143 119//119 132//132
f 119//119 143//143 131//131
f 136//136 127//127 142//142
f 127//127 135//135 142//142
f 141//141 135//135 134//134
f 130//130 141//141 134//134
f 133//133 120//120 140//140
f 120//120 125//125 140//140
f 128//128 136//136 139//139
f 139//139 129//129 123//123
f 139//139 123//123 128//128
f 138//138 122//122 137//137
f 126//126 138//138 130//130
f 126//126 122//122 138//138
f 124//124 137//137 111//111
f 122//122 111//111 137//137
f 115//115 136//136 128//128
f 136//136 118//118 127//127
f 115//115 118//118 136//136
f 113//113 134//134 135//135
f 135//135 127//127 113//113
f 130//130 134//134 113//113
f 121//121 133//133 132//132
f 121//121 114//114 133//133
f 114//114 120//120 133//133
f 103//103 121//121 132//132
f 106//106 132//132 119//119
f 103//103 132//132 106//106
f 131//131 124//124 110//110
f 119//119 131//131 110//110
f 117//117 126//126 130//130
f 117//117 130//130 100//100
f 100//100 130//130 113//113
f 109//109 129//129 125//125
f 129//129 107//107 123//123
f 109//109 97//97 129//129
f 97//97 107//107 129//129
f 123//123 116//116 128//128
f 128//128 116//116 115//115
f 118//118 108//108 127//127
f 127//127 108//108 113//113
f 122//122 126//126 112//112
f 112//112 126//126 117//117
f 125//125 120//120 99//99
f 125//125 99//99 109//109
f 124//124 111//111 102//102
f 110//110 124//124 102//102
f 123//123 105//105 116//116
f 123//123 107//107 105//105
f 112//112 95//95 122//122
f 95//95 111//111 122//122
f 121//121 101//101 114//114
f 121//121 103//103 101//101
f 120//120 114//114 92//92
f 99//99 120//120 92//92
f 110//110 94//94 119//119
f 119//119 90//90 106//106
f 90//90 119//119 94//94
f 118//118 115//115 104//104
f 118//118 104//104 108//108
f 96//96 112//112 117//117
f 117//117 100//100 96//96
f 98//98 115//115 116//116
f 116//116 105//105 98//98
f 87//87 104//104 115//115
f 87//87 115//115 98//98
f 114//114 101//101 92//92
f 108//108 84//84 113//113
f 100//100 113//113 77//77
f 113//113 84//84 77//77
f 95//95 112//112 96//96
f 102//102 111//111 88//88
f 88//88 111//111 95//95
f 110//110 102//102 93//93
f 93//93 94//94 110//110
f 109//109 99//99 89//89
f 89//89 97//97 109//109
f 108//108 104//104 80//80
f 80//80 84//84 108//108
f 79//79 105//105 107//107
f 97//97 78//78 107//107
f 79//79 107//107 78//78
f 103//103 106//106 86//86
f 90//90 72//72 106//106
f 106//106 72//72 86//86
f 105//105 91//91 98//98
f 91//91 105//105 79//79
f 80//80 104//104 87//87
f 103//103 85//85 101//101
f 66//66 103//103 86//86
f 66//66 85//85 103//103
f 73//73 93//93 102//102
f 73//73 102//102 88//88
f 85//85 92//92 101//101
f 81//81 96//96 100//100
f 69//69 81//81 100//100
f 77//77 69//69 100//100
f 92//92 71//71 99//99
f 99//99 71//71 89//89
f 82//82 98//98 91//91
f 98//98 82//82 87//87
f 89//89 83//83 97//97
f 83//83 78//78 97//97
f 74//74 95//95 96//96
f 81//81 74//74 96//96
f 63//63 88//88 95//95
f 63//63 95//95 74//74
f 76//76 94//94 93//93
f 75//75 90//90 94//94
f 68//68 94//94 76//76
f 75//75 94//94 68//68
f 73//73 76//76 93//93
f 92//92 85//85 58//58
f 92//92 53//53 71//71
f 53//53 92//92 58//58
f 64//64 82//82 91//91
f 91//91 79//79 64//64
f 62//62 90//90 75//75
f 90//90 57//57 72//72
f 57//57 90//90 62//62
f 60//60 83//83 89//89
f 89//89 71//71 60//60
f 55//55 73//73 88//88
f 63//63 55//55 88//88
f 54//54 87//87 82//82
f 70//70 80//80 87//87
f 87//87 65//65 70//70
f 54//54 65//65 87//87
f 86//86 72//72 67//67
f 86//86 67//67 66//66
f 58//58 85//85 66//66
f 50//50 84//84 80//80
f 77//77 84//84 46//46
f 50//50 46//46 84//84
f 60//60 78//78 83//83
f 54//54 82//82 64//64
f 81//81 59//59 74//74
f 81//81 69//69 59//59
f 80//80 70//70 47//47
f 50//50 80//80 47//47
f 51//51 79//79 78//78
f 64//64 79//79 56//56
f 56//56 79//79 51//51
f 60//60 51//51 78//78
f 45//45 69//69 77//77
f 46//46 45//45 77//77
f 76//76 73//73 61//61
f 68//68 76//76 61//61
f 49//49 75//75 68//68
f 75//75 49//49 62//62
f 63//63 74//74 43//43
f 74//74 59//59 43//43
f 61//61 73//73 37//37
f 73//73 55//55 37//37
f 72//72 52//52 67//67
f 57//57 39//39 72//72
f 72//72 39//39 52//52
f 71//71 42//42 60//60
f 53//53 42//42 71//71
f 47//47 70//70 65//65
f 69//69 40//40 59//59
f 69//69 45//45 40//40
f 31//31 68//68 61//61
f 68//68 31//31 49//49
f 48//48 66//66 67//67
f 48//48 67//67 52//52
f 58//58 66//66 44//44
f 48//48 34//34 66//66
f 66//66 34//34 44//44
f 54//54 47//47 65//65
f 64//64 56//56 38//38
f 54//54 64//64 41//41
f 64//64 38//38 41//41
f 29//29 55//55 63//63
f 29//29 63//63 43//43
f 57//57 62//62 36//36
f 49//49 36//36 62//62
f 37//37 16//16 61//61
f 61//61 16//16 31//31
f 51//51 60//60 30//30
f 60//60 42//42 30//30
f 59//59 40//40 43//43
f 35//35 53//53 58//58
f 35//35 58//58 44//44
f 36//36 39//39 57//57
f 56//56 51//51 38//38
f 29//29 37//37 55//55
f 54//54 32//32 47//47
f 33//33 54//54 41//41
f 33//33 32//32 54//54
f 42//42 53//53 35//35
f 39//39 48//48 52//52
f 51//51 30//30 38//38
f 47//47 27//27 50//50
f 15//15 46//46 50//50
f 50//50 27//27 15//15
f 49//49 13//13 36//36
f 31//31 13//13 49//49
f 34//34 48//48 39//39
f 28//28 47//47 32//32
f 28//28 27//27 47//47
f 46//46 20//20 45//45
f 46//46 15//15 20//20
f 40//40 45//45 20//20
f 44//44 34//34 35//35
f 43//43 40//40 9//9
f 29//29 43//43 9//9
f 42//42 35//35 19//19
f 30//30 42//42 19//19
f 41//41 38//38 21//21
f 33//33 41//41 21//21
f 9//9 40//40 20//20
f 36//36 25//25 39//39
f 39//39 17//17 34//34
f 25//25 26//26 39//39
f 39//39 26//26 24//24
f 39//39 24//24 17//17
f 38//38 30//30 14//14
f 38//38 14//14 21//21
f 6//6 37//37 29//29
f 16//16 37//37 6//6
f 36//36 11//11 25//25
f 13//13 11//11 36//36
f 35//35 34//34 19//19
f 34//34 17//17 19//19
f 33//33 23//23 32//32
f 33//33 21//21 23//23
f 28//28 32//32 25//25
f 25//25 32//32 26//26
f 26//26 32//32 23//23
f 4//4 31//31 16//16
f 31//31 4//4 13//13
f 30//30 19//19 14//14
f 9//9 6//6 29//29
f 18//18 27//27 28//28
f 18//18 28//28 25//25
f 18//18 12//12 27//27
f 7//7 15//15 27//27
f 27//27 12//12 7//7
f 26//26 22//22 24//24
f 26//26 23//23 22//22
f 25//25 10//10 18//18
f 25//25 11//11 10//10
f 24//24 22//22 23//23
f 23//23 17//17 24//24
f 21//21 17//17 23//23
f 14//14 17//17 21//21
f 20//20 15//15 3//3
f 9//9 20//20 3//3
f 14//14 19//19 17//17
f 10//10 12//12 18//18
f 16//16 6//6 4//4
f 15//15 7//7 2//2
f 3//3 15//15 2//2
f 5//5 11//11 13//13
f 2//2 5//5 13//13
f 13//13 4//4 2//2
f 10//10 7//7 12//12
f 10//10 11//11 8//8
f 8//8 11//11 5//5
f 10//10 8//8 5//5
f 5//5 7//7 10//10
f 1//1 6//6 9//9
f 9//9 3//3 1//1
f 2//2 7//7 5//5
f 1//1 4//4 6//6
f 1//1 2//2 4//4
f 2//2 1//1 3//3
g
