# Rhino
v 2.133543 165.906334 5.926956
v 2.133544 165.906334 5.926955
v 2.152300 166.073580 5.926956
v 2.152300 166.073580 5.926955
v 2.155571 165.906334 5.987428
v 2.158826 165.739070 5.926956
v 2.158826 165.739070 5.926955
v 2.173686 166.068133 5.987440
v 2.179997 165.744519 5.987428
v 2.213837 166.231308 5.926955
v 2.213837 166.231308 5.926956
v 2.220151 165.907675 6.039834
v 2.226451 165.584061 5.926955
v 2.226451 165.584061 5.926956
v 2.233128 166.220445 5.987440
v 2.236387 166.053181 6.039834
v 2.242048 165.763559 6.039834
v 2.245318 165.594920 5.987428
v 2.289688 166.189148 6.039834
v 2.300618 165.628913 6.039834
v 2.313946 166.367293 5.926955
v 2.313946 166.367293 5.926956
v 2.322874 165.910375 6.080594
v 2.329828 166.352325 5.987440
v 2.331792 165.452163 5.926955
v 2.331792 165.452163 5.926956
v 2.336142 166.028694 6.080594
v 2.340760 165.792104 6.080594
v 2.347071 165.468456 5.987428
v 2.376379 166.307456 6.039834
v 2.379651 166.140207 6.080594
v 2.388570 165.681949 6.080594
v 2.391842 165.514702 6.039834
v 2.445822 166.473344 5.926955
v 2.445822 166.473344 5.926956
v 2.450438 166.235397 6.080594
v 2.456751 165.911765 6.107613
v 2.457209 166.454319 5.987440
v 2.463063 165.588133 6.080594
v 2.466126 165.996057 6.107613
v 2.467679 165.351510 5.926955
v 2.467679 165.351510 5.926956
v 2.469400 165.828813 6.107613
v 2.478317 165.371928 5.987428
v 2.490593 166.398555 6.039834
v 2.496893 166.074921 6.107613
v 2.503208 165.751306 6.107613
v 2.509519 165.427673 6.039834
v 2.543689 166.310170 6.080594
v 2.546960 166.142938 6.107613
v 2.555877 165.686039 6.107613
v 2.559147 165.517434 6.080594
v 2.600466 166.540004 5.926955
v 2.600466 166.540004 5.926956
v 2.606584 166.519588 5.987428
v 2.612654 165.915855 6.121644
v 2.612895 166.195956 6.107613
v 2.617512 165.959352 6.121644
v 2.619197 165.872325 6.121644
v 2.623824 165.635720 6.107613
v 2.624516 166.457034 6.039834
v 2.624843 165.290333 5.926955
v 2.624843 165.290333 5.926956
v 2.630126 165.312089 5.987428
v 2.633434 166.000148 6.121644
v 2.636705 165.831531 6.121644
v 2.645622 165.374642 6.039834
v 2.653037 166.357772 6.080594
v 2.659350 166.034123 6.121644
v 2.663966 165.797535 6.121644
v 2.670279 165.473905 6.080594
v 2.690213 166.229933 6.107613
v 2.693484 166.062686 6.121644
v 2.699142 165.771706 6.121644
v 2.702403 165.604458 6.107613
v 2.733506 166.079012 6.121644
v 2.739817 165.755381 6.121644
v 2.767347 166.565834 5.926955
v 2.767347 166.565834 5.926956
v 2.767769 166.544077 5.987428
v 2.769030 166.478774 6.039834
v 2.771043 166.376798 6.080594
v 2.773647 166.242168 6.107613
v 2.776699 166.085816 6.121644
v 2.779960 165.918570 6.125728
v 2.783231 165.751306 6.121644
v 2.786272 165.594920 6.107613
v 2.788890 165.461684 6.080594
v 2.790889 165.358333 6.039834
v 2.792148 165.293046 5.987428
v 2.792584 165.271322 5.926955
v 2.792584 165.271322 5.926956
v 2.820115 166.081727 6.121644
v 2.826413 165.758095 6.121644
v 2.857518 166.232649 6.107613
v 2.860789 166.065418 6.121644
v 2.866447 165.775781 6.121644
v 2.869705 165.607156 6.107613
v 2.889650 166.363203 6.080594
v 2.895953 166.039572 6.121644
v 2.900578 165.802983 6.121644
v 2.906880 165.479351 6.080594
v 2.914294 166.462482 6.039834
v 2.923223 166.005578 6.121644
v 2.926483 165.838334 6.121644
v 2.929793 166.525035 5.987428
v 2.935073 166.546775 5.926955
v 2.935073 166.546775 5.926956
v 2.935413 165.380089 6.039834
v 2.936104 166.201403 6.107613
v 2.940719 165.964782 6.121644
v 2.942417 165.879131 6.121644
v 2.947034 165.641151 6.107613
v 2.947264 165.921285 6.121644
v 2.953346 165.317537 5.987428
v 2.959453 165.297169 5.926955
v 2.959453 165.297169 5.926956
v 3.000781 166.319691 6.080594
v 3.004040 166.152443 6.107613
v 3.012970 165.694202 6.107613
v 3.016230 165.526936 6.080594
v 3.050401 166.409433 6.039834
v 3.056713 166.085816 6.107613
v 3.063025 165.762185 6.107613
v 3.069340 165.438551 6.039834
v 3.081603 166.466556 5.987428
v 3.090530 166.008294 6.107613
v 3.092241 166.485596 5.926955
v 3.092241 166.485596 5.926956
v 3.093791 165.841049 6.107613
v 3.096868 166.248990 6.080594
v 3.102721 165.382806 5.987428
v 3.103167 165.925342 6.107613
v 3.109481 165.601743 6.080594
v 3.114097 165.365122 5.926955
v 3.114097 165.365122 5.926956
v 3.168088 166.322404 6.039834
v 3.171349 166.155157 6.080594
v 3.180277 165.698272 6.080594
v 3.183539 165.529668 6.039834
v 3.212858 166.368651 5.987428
v 3.219173 166.045004 6.080594
v 3.223789 165.808413 6.080594
v 3.228126 166.384962 5.926955
v 3.228126 166.384962 5.926956
v 3.230101 165.484798 5.987428
v 3.237055 165.928058 6.080594
v 3.245973 165.469830 5.926955
v 3.245973 165.469830 5.926956
v 3.259313 166.208210 6.039834
v 3.270243 165.647956 6.039834
v 3.314612 166.242168 5.987428
v 3.317872 166.073580 6.039834
v 3.323530 165.783959 6.039834
v 3.326803 165.616695 5.987428
v 3.333468 166.253047 5.926955
v 3.333468 166.253047 5.926956
v 3.339779 165.929432 6.039834
v 3.346093 165.605798 5.926955
v 3.346093 165.605798 5.926956
v 3.379921 166.092605 5.987428
v 3.386236 165.768990 5.987428
v 3.401090 166.098051 5.926955
v 3.401091 166.098051 5.926956
v 3.404361 165.930789 5.987428
v 3.407621 165.763559 5.926955
v 3.407621 165.763559 5.926956
v 3.426389 165.930789 5.926955
v 3.426389 165.930789 5.926956
vn -0.939411 0.023087 0.342013
vn 0.000000 0.000000 -1.000000
vn -0.901448 0.264548 0.342645
vn 0.000000 0.000000 -1.000000
vn -0.813853 -0.022659 0.580630
vn -0.914126 -0.220706 0.340091
vn 0.000000 0.000000 -1.000000
vn -0.791879 0.188345 0.580907
vn -0.780448 -0.232386 0.580430
vn 0.000000 0.000000 -1.000000
vn -0.802708 0.488483 0.342118
vn -0.504665 -0.015613 0.863174
vn 0.000000 0.000000 -1.000000
vn -0.826354 -0.450152 0.338383
vn -0.716313 0.385557 0.581585
vn -0.492101 0.115660 0.862820
vn -0.482810 -0.145120 0.863617
vn -0.692502 -0.426911 0.581539
vn -0.445327 0.238764 0.862946
vn -0.429061 -0.265623 0.863337
vn 0.000000 0.000000 -1.000000
vn -0.649573 0.679749 0.340581
vn -0.284227 -0.009294 0.958712
vn -0.592170 0.558500 0.580872
vn 0.000000 0.000000 -1.000000
vn -0.679976 -0.647904 0.343298
vn -0.276987 0.064419 0.958712
vn -0.272391 -0.082237 0.958666
vn -0.557256 -0.590511 0.583748
vn -0.367785 0.344713 0.863659
vn -0.250868 0.134469 0.958636
vn -0.242025 -0.149857 0.958627
vn -0.347337 -0.369051 0.862066
vn 0.000000 0.000000 -1.000000
vn -0.449482 0.825967 0.340214
vn -0.207517 0.194280 0.958745
vn -0.143865 -0.005257 0.989583
vn -0.426779 0.691923 0.582324
vn -0.194550 -0.207503 0.958693
vn -0.140265 0.032124 0.989593
vn 0.000000 0.000000 -1.000000
vn -0.487520 -0.798758 0.352576
vn -0.137658 -0.042142 0.989583
vn -0.386401 -0.714161 0.583669
vn -0.265020 0.428130 0.863984
vn -0.126940 0.067460 0.989614
vn -0.121768 -0.076242 0.989626
vn -0.240100 -0.446733 0.861848
vn -0.149931 0.241146 0.958837
vn -0.105598 0.097761 0.989592
vn -0.097606 -0.105117 0.989658
vn -0.133828 -0.250668 0.958778
vn 0.000000 0.000000 -1.000000
vn -0.221254 0.916209 0.334079
vn -0.231997 0.780853 0.580040
vn -0.063503 -0.003589 0.997975
vn -0.076442 0.122142 0.989565
vn -0.062322 0.012929 0.997972
vn -0.060500 -0.019735 0.997973
vn -0.067595 -0.126660 0.989640
vn -0.145471 0.481942 0.864043
vn 0.000000 0.000000 -1.000000
vn -0.264842 -0.898528 0.350009
vn -0.190785 -0.791534 0.580582
vn -0.056688 0.028960 0.997972
vn -0.053274 -0.034899 0.997970
vn -0.116094 -0.491712 0.862984
vn -0.082945 0.271530 0.958849
vn -0.047578 0.042256 0.997973
vn -0.042447 -0.047606 0.997964
vn -0.063901 -0.276680 0.958835
vn -0.042195 0.137801 0.989561
vn -0.034768 0.053061 0.997986
vn -0.028938 -0.056837 0.997964
vn -0.032398 -0.140260 0.989585
vn -0.019513 0.060437 0.997981
vn -0.012782 -0.062235 0.997980
vn 0.000000 0.000000 -1.000000
vn 0.024125 0.939686 0.341185
vn -0.022002 0.814451 0.579815
vn -0.015137 0.503734 0.863726
vn -0.009789 0.284105 0.958743
vn -0.005472 0.143662 0.989612
vn -0.004026 0.063244 0.997990
vn 0.000028 0.000001 1.000000
vn 0.004027 -0.063234 0.997991
vn 0.005104 -0.144336 0.989516
vn 0.009807 -0.283540 0.958910
vn 0.015832 -0.502429 0.864473
vn 0.022015 -0.814637 0.579554
vn 0.000000 0.000000 -1.000000
vn -0.023998 -0.939774 0.340954
vn 0.012779 0.062244 0.997979
vn 0.020036 -0.059990 0.997998
vn 0.032706 0.139839 0.989634
vn 0.028938 0.056837 0.997964
vn 0.034842 -0.052916 0.997991
vn 0.042196 -0.137811 0.989559
vn 0.065044 0.277314 0.958575
vn 0.042129 0.047602 0.997978
vn 0.047356 -0.042222 0.997985
vn 0.081929 -0.272072 0.958783
vn 0.116082 0.491690 0.862998
vn 0.053291 0.034678 0.997977
vn 0.056751 -0.028494 0.997982
vn 0.188430 0.791229 0.581765
vn 0.000000 0.000000 -1.000000
vn 0.263385 0.901267 0.344014
vn 0.144725 -0.481518 0.864405
vn 0.067003 0.126919 0.989648
vn 0.060500 0.019733 0.997973
vn 0.062266 -0.012993 0.997975
vn 0.076730 -0.121712 0.989595
vn 0.063503 0.003514 0.997975
vn 0.233779 -0.782284 0.577390
vn 0.000000 0.000000 -1.000000
vn 0.223474 -0.915874 0.333518
vn 0.133600 0.251093 0.958699
vn 0.097590 0.105302 0.989640
vn 0.105607 -0.097898 0.989577
vn 0.149944 -0.241128 0.958840
vn 0.238141 0.444833 0.863373
vn 0.122253 0.075999 0.989585
vn 0.127169 -0.067427 0.989587
vn 0.265052 -0.428186 0.863947
vn 0.386828 0.715585 0.581637
vn 0.137655 0.042142 0.989583
vn 0.000000 0.000000 -1.000000
vn 0.491236 0.801240 0.341618
vn 0.140199 -0.032053 0.989604
vn 0.195124 0.207608 0.958554
vn 0.427623 -0.695300 0.577665
vn 0.143835 0.005245 0.989588
vn 0.207536 -0.193478 0.958903
vn 0.000000 0.000000 -1.000000
vn 0.451703 -0.829200 0.329228
vn 0.347120 0.367588 0.862779
vn 0.242019 0.149855 0.958629
vn 0.250748 -0.134117 0.958717
vn 0.367834 -0.344724 0.863634
vn 0.559628 0.590518 0.581468
vn 0.272303 0.082383 0.958678
vn 0.276910 -0.064729 0.958713
vn 0.000000 0.000000 -1.000000
vn 0.679968 0.647875 0.343366
vn 0.592178 -0.558501 0.580863
vn 0.284218 0.009583 0.958712
vn 0.000000 0.000000 -1.000000
vn 0.649205 -0.682468 0.335813
vn 0.429073 0.265642 0.863325
vn 0.445033 -0.238091 0.863283
vn 0.692540 0.426903 0.581500
vn 0.482907 0.145247 0.863541
vn 0.491846 -0.115842 0.862941
vn 0.716322 -0.385540 0.581586
vn 0.000000 0.000000 -1.000000
vn 0.826358 0.450146 0.338381
vn 0.504692 0.015711 0.863156
vn 0.000000 0.000000 -1.000000
vn 0.802665 -0.488437 0.342285
vn 0.780451 0.232425 0.580409
vn 0.791904 -0.188375 0.580863
vn 0.000000 0.000000 -1.000000
vn 0.914118 0.220767 0.340073
vn 0.813854 0.022652 0.580627
vn 0.000000 0.000000 -1.000000
vn 0.901431 -0.264522 0.342711
vn 0.000000 0.000000 -1.000000
vn 0.939408 -0.023111 0.342022
f 1//1 8//8 3//3
f 6//6 5//5 1//1
f 1//1 5//5 8//8
f 2//2 4//4 10//10
f 13//13 7//7 2//2
f 2//2 10//10 13//13
f 3//3 8//8 15//15
f 3//3 15//15 11//11
f 6//6 9//9 5//5
f 5//5 16//16 8//8
f 9//9 12//12 5//5
f 5//5 12//12 16//16
f 14//14 9//9 6//6
f 8//8 19//19 15//15
f 8//8 16//16 19//19
f 9//9 17//17 12//12
f 14//14 18//18 9//9
f 18//18 17//17 9//9
f 91//91 13//13 10//10
f 10//10 21//21 34//34
f 34//34 53//53 10//10
f 10//10 53//53 91//91
f 11//11 15//15 24//24
f 11//11 24//24 22//22
f 12//12 27//27 16//16
f 17//17 23//23 12//12
f 12//12 23//23 27//27
f 41//41 25//25 13//13
f 91//91 41//41 13//13
f 26//26 18//18 14//14
f 15//15 19//19 30//30
f 15//15 30//30 24//24
f 16//16 31//31 19//19
f 16//16 27//27 31//31
f 18//18 20//20 17//17
f 20//20 28//28 17//17
f 17//17 28//28 23//23
f 29//29 20//20 18//18
f 26//26 29//29 18//18
f 19//19 36//36 30//30
f 19//19 31//31 36//36
f 20//20 32//32 28//28
f 29//29 33//33 20//20
f 33//33 32//32 20//20
f 22//22 24//24 38//38
f 22//22 38//38 35//35
f 23//23 40//40 27//27
f 28//28 37//37 23//23
f 23//23 37//37 40//40
f 24//24 30//30 45//45
f 24//24 45//45 38//38
f 42//42 29//29 26//26
f 27//27 46//46 31//31
f 27//27 40//40 46//46
f 32//32 43//43 28//28
f 28//28 43//43 37//37
f 44//44 33//33 29//29
f 42//42 44//44 29//29
f 30//30 36//36 49//49
f 30//30 49//49 45//45
f 31//31 50//50 36//36
f 31//31 46//46 50//50
f 33//33 39//39 32//32
f 39//39 47//47 32//32
f 32//32 47//47 43//43
f 48//48 39//39 33//33
f 44//44 48//48 33//33
f 35//35 38//38 55//55
f 35//35 55//55 54//54
f 36//36 57//57 49//49
f 36//36 50//50 57//57
f 37//37 58//58 40//40
f 43//43 56//56 37//37
f 37//37 56//56 58//58
f 38//38 45//45 61//61
f 38//38 61//61 55//55
f 39//39 51//51 47//47
f 48//48 52//52 39//39
f 52//52 51//51 39//39
f 40//40 65//65 46//46
f 40//40 58//58 65//65
f 91//91 62//62 41//41
f 63//63 44//44 42//42
f 47//47 59//59 43//43
f 43//43 59//59 56//56
f 64//64 48//48 44//44
f 63//63 64//64 44//44
f 45//45 49//49 68//68
f 45//45 68//68 61//61
f 46//46 69//69 50//50
f 46//46 65//65 69//69
f 51//51 66//66 47//47
f 47//47 66//66 59//59
f 67//67 52//52 48//48
f 64//64 67//67 48//48
f 49//49 57//57 72//72
f 49//49 72//72 68//68
f 50//50 73//73 57//57
f 50//50 69//69 73//73
f 52//52 60//60 51//51
f 60//60 70//70 51//51
f 51//51 70//70 66//66
f 71//71 60//60 52//52
f 67//67 71//71 52//52
f 53//53 78//78 107//107
f 148//148 91//91 53//53
f 107//107 128//128 53//53
f 53//53 128//128 148//148
f 54//54 55//55 80//80
f 54//54 80//80 79//79
f 55//55 61//61 81//81
f 55//55 81//81 80//80
f 58//58 56//56 85//85
f 56//56 59//59 85//85
f 57//57 76//76 72//72
f 57//57 73//73 76//76
f 65//65 58//58 85//85
f 59//59 66//66 85//85
f 60//60 74//74 70//70
f 71//71 75//75 60//60
f 75//75 74//74 60//60
f 61//61 68//68 82//82
f 61//61 82//82 81//81
f 92//92 64//64 63//63
f 90//90 67//67 64//64
f 92//92 90//90 64//64
f 69//69 65//65 85//85
f 66//66 70//70 85//85
f 89//89 71//71 67//67
f 90//90 89//89 67//67
f 68//68 72//72 83//83
f 68//68 83//83 82//82
f 73//73 69//69 85//85
f 70//70 74//74 85//85
f 88//88 75//75 71//71
f 89//89 88//88 71//71
f 72//72 76//76 84//84
f 72//72 84//84 83//83
f 76//76 73//73 85//85
f 75//75 77//77 74//74
f 74//74 77//77 85//85
f 87//87 77//77 75//75
f 88//88 87//87 75//75
f 84//84 76//76 85//85
f 77//77 86//86 85//85
f 87//87 86//86 77//77
f 79//79 80//80 106//106
f 79//79 106//106 108//108
f 80//80 81//81 103//103
f 80//80 103//103 106//106
f 81//81 82//82 99//99
f 81//81 99//99 103//103
f 82//82 83//83 95//95
f 82//82 95//95 99//99
f 83//83 84//84 93//93
f 83//83 93//93 95//95
f 93//93 84//84 85//85
f 86//86 94//94 85//85
f 96//96 93//93 85//85
f 94//94 97//97 85//85
f 100//100 96//96 85//85
f 97//97 101//101 85//85
f 104//104 100//100 85//85
f 101//101 105//105 85//85
f 111//111 104//104 85//85
f 105//105 112//112 85//85
f 114//114 111//111 85//85
f 112//112 114//114 85//85
f 98//98 86//86 87//87
f 98//98 94//94 86//86
f 102//102 87//87 88//88
f 102//102 98//98 87//87
f 109//109 88//88 89//89
f 109//109 102//102 88//88
f 115//115 89//89 90//90
f 115//115 109//109 89//89
f 117//117 90//90 92//92
f 117//117 115//115 90//90
f 116//116 91//91 148//148
f 95//95 93//93 96//96
f 113//113 97//97 94//94
f 113//113 94//94 98//98
f 95//95 96//96 110//110
f 99//99 95//95 110//110
f 110//110 96//96 100//100
f 120//120 101//101 97//97
f 120//120 97//97 113//113
f 121//121 98//98 102//102
f 121//121 113//113 98//98
f 103//103 99//99 118//118
f 99//99 110//110 118//118
f 119//119 100//100 104//104
f 110//110 100//100 119//119
f 124//124 105//105 101//101
f 124//124 101//101 120//120
f 125//125 102//102 109//109
f 125//125 121//121 102//102
f 106//106 103//103 122//122
f 103//103 118//118 122//122
f 123//123 104//104 111//111
f 119//119 104//104 123//123
f 130//130 112//112 105//105
f 130//130 105//105 124//124
f 108//108 106//106 126//126
f 106//106 122//122 126//126
f 108//108 126//126 129//129
f 132//132 109//109 115//115
f 132//132 125//125 109//109
f 118//118 110//110 119//119
f 127//127 111//111 114//114
f 123//123 111//111 127//127
f 133//133 114//114 112//112
f 133//133 112//112 130//130
f 134//134 120//120 113//113
f 134//134 113//113 121//121
f 127//127 114//114 133//133
f 136//136 115//115 117//117
f 136//136 132//132 115//115
f 148//148 135//135 116//116
f 118//118 119//119 131//131
f 122//122 118//118 131//131
f 131//131 119//119 123//123
f 139//139 124//124 120//120
f 139//139 120//120 134//134
f 140//140 121//121 125//125
f 140//140 134//134 121//121
f 126//126 122//122 137//137
f 122//122 131//131 137//137
f 138//138 123//123 127//127
f 131//131 123//123 138//138
f 143//143 130//130 124//124
f 143//143 124//124 139//139
f 146//146 125//125 132//132
f 146//146 140//140 125//125
f 129//129 126//126 141//141
f 126//126 137//137 141//141
f 142//142 127//127 133//133
f 138//138 127//127 142//142
f 128//128 144//144 156//156
f 128//128 156//156 148//148
f 129//129 141//141 145//145
f 147//147 133//133 130//130
f 147//147 130//130 143//143
f 137//137 131//131 138//138
f 149//149 132//132 136//136
f 149//149 146//146 132//132
f 142//142 133//133 147//147
f 151//151 139//139 134//134
f 151//151 134//134 140//140
f 137//137 138//138 150//150
f 141//141 137//137 150//150
f 150//150 138//138 142//142
f 154//154 143//143 139//139
f 154//154 139//139 151//151
f 155//155 140//140 146//146
f 155//155 151//151 140//140
f 145//145 141//141 152//152
f 141//141 150//150 152//152
f 153//153 142//142 147//147
f 150//150 142//142 153//153
f 158//158 147//147 143//143
f 158//158 143//143 154//154
f 145//145 152//152 157//157
f 160//160 146//146 149//149
f 160//160 155//155 146//146
f 153//153 147//147 158//158
f 156//156 163//163 148//148
f 166//166 159//159 148//148
f 166//166 148//148 163//163
f 152//152 150//150 153//153
f 162//162 154//154 151//151
f 162//162 151//151 155//155
f 152//152 153//153 161//161
f 157//157 152//152 161//161
f 161//161 153//153 158//158
f 165//165 158//158 154//154
f 165//165 154//154 162//162
f 167//167 155//155 160//160
f 167//167 162//162 155//155
f 157//157 161//161 164//164
f 161//161 158//158 165//165
f 164//164 161//161 165//165
f 169//169 165//165 162//162
f 169//169 162//162 167//167
f 163//163 168//168 166//166
f 164//164 165//165 169//169
g
