# Rhino
v -3.935396 118.294307 -0.037128
v -3.813365 117.729861 0.473927
v -3.673307 119.606895 -0.321884
v -3.642129 117.677117 -1.000711
v -3.621244 116.707113 0.110424
v -3.617813 117.071478 -0.562104
v -3.588623 119.075517 -1.210649
v -3.529234 119.803176 -1.220419
v -3.454499 117.313874 1.086741
v -3.427929 120.380490 -0.221788
v -3.338110 120.444706 -1.488072
v -3.254285 118.572598 -1.816069
v -3.247811 116.352900 -0.472982
v -3.242508 117.220017 -1.252373
v -3.194988 118.686618 1.098515
v -3.160865 116.724368 -0.949784
v -3.138966 121.024048 -0.429145
v -3.119173 119.265642 -2.085354
v -3.036012 119.783572 0.921175
v -3.015203 118.370930 1.346329
v -2.847688 119.841137 -2.412551
v -2.842190 116.091775 -0.610023
v -2.823882 116.859602 -1.381805
v -2.785018 117.741164 1.572025
v -2.765201 121.147267 -1.802794
v -2.760429 116.440192 -1.047433
v -2.672834 118.131288 -2.305950
v -2.647582 120.655758 0.732920
v -2.597401 121.607173 -0.843313
v -2.402931 116.363598 1.271033
v -2.368797 118.846689 -2.679228
v -2.316254 120.528628 -2.600589
v -2.309388 115.805099 -0.437541
v -2.299421 121.278897 0.384808
v -2.202401 117.851730 1.659972
v -2.199081 118.653696 1.384250
v -2.174740 116.118891 -0.974899
v -2.163205 118.552718 1.479834
v -2.145712 116.525541 -1.466696
v -2.020936 119.388566 -2.896317
v -1.913262 119.386010 1.425515
v -1.911760 121.732328 -0.151648
v -1.874949 121.562493 -1.936889
v -1.827388 121.839558 -1.296242
v -1.761866 117.769321 1.613286
v -1.759252 117.725460 -2.533650
v -1.568664 118.456126 1.391221
v -1.564609 115.791722 0.110066
v -1.562807 120.029053 -2.940386
v -1.516641 121.107996 -2.473861
v -1.509928 120.367325 1.109307
v -1.461404 121.891068 -0.841002
v -1.443999 118.495142 1.252372
v -1.402110 117.531470 1.495773
v -1.332229 118.533833 -2.877479
v -1.250317 120.989953 0.715253
v -1.220349 116.048706 -0.480025
v -1.125456 117.096397 1.276174
v -1.090764 118.167375 1.228720
v -1.073524 116.402103 0.825031
v -1.064226 121.479426 0.159541
v -1.045027 116.457775 -1.132512
v -0.988839 118.839185 1.230591
v -0.974607 119.148896 -2.944913
v -0.957692 120.703359 -2.638611
v -0.938782 121.746862 -0.600805
v -0.862141 118.255702 0.945419
v -0.697432 117.654159 0.942471
v -0.654190 119.791229 -2.827949
v -0.617039 119.835076 0.918257
v -0.584791 121.371097 -1.668774
v -0.584368 117.544020 -2.138558
v -0.578790 116.786697 0.365870
v -0.425167 120.451215 0.583609
v -0.424341 117.823364 0.477162
v -0.405975 121.437929 -0.590164
v -0.387501 120.483132 -2.448945
v -0.337243 121.013193 0.098651
v -0.322910 117.106049 -0.254749
v -0.318615 118.407684 0.631522
v -0.188269 118.402817 -2.370064
v -0.008070 119.274386 0.419573
v 0.012824 121.046468 -0.812105
v 0.020526 120.404639 -2.063414
v 0.034264 119.066621 -2.346750
v 0.094789 117.762965 -1.174032
v 0.099662 118.071235 -0.197866
v 0.101399 119.714711 -2.258348
v 0.140766 119.896741 0.162472
v 0.186399 120.499466 -0.246587
v 0.223690 120.454221 -1.635689
v 0.229864 120.681462 -1.197188
v 0.363435 118.799548 -0.331795
v 0.383505 118.510192 -1.337071
v 0.457435 119.771714 -1.514256
v 0.468647 120.044072 -0.805792
v 0.474713 119.424975 -0.492159
v 0.498158 119.134781 -1.384613
vn -0.986772 0.073510 0.144489
vn -0.939170 -0.032411 0.341919
vn -0.963687 0.242008 0.112866
vn -0.887255 -0.169692 -0.428932
vn -0.839490 -0.521290 0.153341
vn -0.906671 -0.324418 -0.269631
vn -0.933155 0.041043 -0.357124
vn -0.954795 0.154095 -0.254208
vn -0.724560 -0.205758 0.657782
vn -0.903616 0.370216 0.215447
vn -0.877368 0.347526 -0.330835
vn -0.797341 -0.153861 -0.583587
vn -0.681463 -0.707648 -0.186661
vn -0.688924 -0.354280 -0.632352
vn -0.591784 0.231281 0.772206
vn -0.663466 -0.499046 -0.557463
vn -0.787348 0.592779 0.169396
vn -0.788782 -0.030860 -0.613898
vn -0.611507 0.325897 0.721007
vn -0.504492 0.306076 0.807344
vn -0.667695 0.130374 -0.732929
vn -0.517776 -0.804527 -0.290935
vn -0.501515 -0.521347 -0.690420
vn -0.322048 0.007275 0.946696
vn -0.613425 0.625003 -0.482785
vn -0.429910 -0.642918 -0.633904
vn -0.554519 -0.333503 -0.762420
vn -0.506745 0.479632 0.716354
vn -0.540521 0.841091 -0.020053
vn -0.191254 -0.660400 0.726150
vn -0.457388 -0.176006 -0.871675
vn -0.399628 0.386767 -0.831089
vn -0.229766 -0.942339 -0.243321
vn -0.363794 0.707018 0.606449
vn 0.019409 0.053618 0.998373
vn -0.035531 0.307387 0.950921
vn -0.062739 -0.817042 -0.573154
vn 0.001223 0.534715 0.845031
vn -0.115113 -0.710556 -0.694160
vn -0.281214 -0.011402 -0.959577
vn -0.021758 0.155944 0.987526
vn -0.182475 0.914883 0.360128
vn -0.150799 0.804311 -0.574755
vn -0.140166 0.951712 -0.273127
vn 0.238457 0.014564 0.971044
vn -0.091306 -0.521057 -0.848624
vn 0.366358 0.470445 0.802785
vn 0.249896 -0.967382 0.041522
vn -0.027908 0.220683 -0.974946
vn 0.023979 0.619518 -0.784616
vn 0.080685 0.378140 0.922226
vn 0.051043 0.998599 -0.013934
vn 0.404379 0.309386 0.860673
vn 0.408886 -0.089093 0.908226
vn 0.059355 -0.299574 -0.952225
vn 0.180907 0.585527 0.790210
vn 0.492398 -0.833556 -0.250456
vn 0.560095 -0.302207 0.771340
vn 0.609072 0.225636 0.760342
vn 0.577815 -0.666468 0.471116
vn 0.270212 0.798553 0.537864
vn 0.501746 -0.748281 -0.433965
vn 0.397135 -0.100824 0.912205
vn 0.240625 -0.092377 -0.966212
vn 0.290646 0.484147 -0.825304
vn 0.331208 0.933136 0.139851
vn 0.672186 0.117728 0.730962
vn 0.799584 -0.059170 0.597633
vn 0.420706 0.140828 -0.896199
vn 0.515861 0.170702 0.839493
vn 0.493030 0.779242 -0.386916
vn 0.515803 -0.605746 -0.605821
vn 0.842650 -0.477573 0.248726
vn 0.582892 0.363961 0.726477
vn 0.856770 -0.133173 0.498207
vn 0.591662 0.789261 0.164328
vn 0.568802 0.415031 -0.710080
vn 0.626443 0.589351 0.510132
vn 0.880612 -0.465917 0.086274
vn 0.655985 -0.270611 0.704594
vn 0.639776 -0.348064 -0.685228
vn 0.779036 -0.024864 0.626485
vn 0.775597 0.627076 0.072286
vn 0.767283 0.392271 -0.507347
vn 0.739647 -0.119169 -0.662361
vn 0.850535 -0.518988 -0.085094
vn 0.835050 -0.396557 0.381357
vn 0.785485 0.115000 -0.608103
vn 0.830353 0.161444 0.533339
vn 0.854417 0.386031 0.347781
vn 0.860706 0.412273 -0.298690
vn 0.865123 0.491698 -0.098974
vn 0.936265 -0.183534 0.299539
vn 0.939830 -0.295736 -0.171054
vn 0.959388 0.134278 -0.248082
vn 0.970200 0.226504 0.086068
vn 0.973489 0.005775 0.228660
vn 0.976770 -0.090576 -0.194207
f 2//2 1//1 6//6
f 15//15 1//1 2//2
f 1//1 3//3 4//4
f 19//19 3//3 1//1
f 1//1 4//4 6//6
f 15//15 19//19 1//1
f 2//2 6//6 5//5
f 9//9 2//2 5//5
f 20//20 2//2 9//9
f 20//20 15//15 2//2
f 3//3 7//7 4//4
f 3//3 10//10 7//7
f 28//28 10//10 3//3
f 19//19 28//28 3//3
f 6//6 4//4 16//16
f 4//4 7//7 14//14
f 4//4 14//14 16//16
f 5//5 6//6 13//13
f 9//9 5//5 30//30
f 5//5 13//13 30//30
f 6//6 16//16 13//13
f 10//10 8//8 7//7
f 7//7 8//8 12//12
f 7//7 12//12 14//14
f 10//10 17//17 8//8
f 17//17 11//11 8//8
f 8//8 11//11 18//18
f 8//8 18//18 12//12
f 24//24 20//20 9//9
f 24//24 9//9 30//30
f 34//34 17//17 10//10
f 28//28 34//34 10//10
f 17//17 29//29 11//11
f 11//11 21//21 18//18
f 11//11 25//25 21//21
f 29//29 25//25 11//11
f 14//14 12//12 23//23
f 12//12 18//18 27//27
f 12//12 27//27 23//23
f 13//13 16//16 22//22
f 13//13 22//22 30//30
f 16//16 14//14 26//26
f 14//14 23//23 26//26
f 41//41 19//19 15//15
f 36//36 15//15 20//20
f 36//36 41//41 15//15
f 16//16 26//26 22//22
f 42//42 29//29 17//17
f 34//34 42//42 17//17
f 18//18 21//21 31//31
f 18//18 31//31 27//27
f 51//51 28//28 19//19
f 41//41 51//51 19//19
f 38//38 20//20 24//24
f 38//38 36//36 20//20
f 25//25 32//32 21//21
f 21//21 40//40 31//31
f 21//21 32//32 40//40
f 22//22 26//26 33//33
f 22//22 33//33 30//30
f 26//26 23//23 37//37
f 23//23 27//27 39//39
f 23//23 39//39 37//37
f 35//35 24//24 30//30
f 35//35 38//38 24//24
f 29//29 44//44 25//25
f 25//25 43//43 32//32
f 44//44 43//43 25//25
f 26//26 37//37 33//33
f 27//27 31//31 46//46
f 27//27 46//46 39//39
f 56//56 34//34 28//28
f 51//51 56//56 28//28
f 42//42 52//52 29//29
f 52//52 44//44 29//29
f 33//33 48//48 30//30
f 45//45 35//35 30//30
f 54//54 45//45 30//30
f 48//48 60//60 30//30
f 58//58 54//54 30//30
f 60//60 58//58 30//30
f 31//31 40//40 55//55
f 31//31 55//55 46//46
f 32//32 49//49 40//40
f 43//43 50//50 32//32
f 32//32 50//50 49//49
f 33//33 37//37 48//48
f 61//61 42//42 34//34
f 56//56 61//61 34//34
f 47//47 38//38 35//35
f 45//45 47//47 35//35
f 53//53 36//36 38//38
f 63//63 41//41 36//36
f 53//53 63//63 36//36
f 37//37 39//39 57//57
f 37//37 57//57 48//48
f 47//47 53//53 38//38
f 39//39 46//46 62//62
f 39//39 62//62 57//57
f 40//40 49//49 64//64
f 40//40 64//64 55//55
f 70//70 51//51 41//41
f 63//63 70//70 41//41
f 66//66 52//52 42//42
f 61//61 66//66 42//42
f 44//44 71//71 43//43
f 43//43 71//71 50//50
f 52//52 71//71 44//44
f 59//59 47//47 45//45
f 54//54 59//59 45//45
f 46//46 55//55 72//72
f 46//46 72//72 62//62
f 67//67 53//53 47//47
f 59//59 67//67 47//47
f 48//48 57//57 60//60
f 50//50 65//65 49//49
f 49//49 69//69 64//64
f 49//49 65//65 69//69
f 50//50 71//71 65//65
f 74//74 56//56 51//51
f 70//70 74//74 51//51
f 66//66 71//71 52//52
f 80//80 63//63 53//53
f 67//67 80//80 53//53
f 58//58 68//68 54//54
f 68//68 59//59 54//54
f 55//55 64//64 81//81
f 55//55 81//81 72//72
f 78//78 61//61 56//56
f 74//74 78//78 56//56
f 57//57 73//73 60//60
f 57//57 62//62 73//73
f 60//60 73//73 58//58
f 73//73 68//68 58//58
f 75//75 67//67 59//59
f 68//68 75//75 59//59
f 76//76 66//66 61//61
f 78//78 76//76 61//61
f 62//62 72//72 79//79
f 62//62 79//79 73//73
f 82//82 70//70 63//63
f 80//80 82//82 63//63
f 64//64 69//69 85//85
f 64//64 85//85 81//81
f 65//65 77//77 69//69
f 65//65 71//71 77//77
f 76//76 71//71 66//66
f 75//75 87//87 67//67
f 87//87 80//80 67//67
f 73//73 79//79 68//68
f 79//79 75//75 68//68
f 69//69 77//77 88//88
f 69//69 88//88 85//85
f 89//89 74//74 70//70
f 82//82 89//89 70//70
f 83//83 71//71 76//76
f 77//77 71//71 84//84
f 92//92 71//71 83//83
f 84//84 71//71 91//91
f 91//91 71//71 92//92
f 72//72 86//86 79//79
f 72//72 81//81 86//86
f 90//90 78//78 74//74
f 89//89 90//90 74//74
f 79//79 86//86 75//75
f 86//86 87//87 75//75
f 83//83 76//76 78//78
f 77//77 84//84 88//88
f 90//90 83//83 78//78
f 93//93 82//82 80//80
f 87//87 93//93 80//80
f 81//81 85//85 94//94
f 81//81 94//94 86//86
f 97//97 89//89 82//82
f 93//93 97//97 82//82
f 92//92 83//83 90//90
f 88//88 84//84 95//95
f 84//84 91//91 95//95
f 85//85 88//88 98//98
f 85//85 98//98 94//94
f 86//86 94//94 87//87
f 94//94 93//93 87//87
f 88//88 95//95 98//98
f 96//96 90//90 89//89
f 97//97 96//96 89//89
f 96//96 92//92 90//90
f 91//91 92//92 96//96
f 95//95 91//91 96//96
f 94//94 98//98 93//93
f 98//98 97//97 93//93
f 95//95 96//96 97//97
f 98//98 95//95 97//97
g
