# Rhino
v -0.549413 157.277512 -5.010404
v -0.555341 156.933060 -5.253548
v -0.673756 156.479187 -5.164158
v -0.675319 156.768967 -4.635529
v -0.682076 157.551834 -5.645764
v -0.703930 157.747269 -5.105941
v -0.708337 157.366806 -4.528738
v -0.756268 156.391342 -5.495711
v -0.762494 157.970642 -5.738909
v -0.763867 156.901947 -5.641809
v -0.806357 157.690353 -4.579497
v -0.833390 158.046982 -6.040949
v -0.836635 158.148590 -6.134268
v -0.838635 158.156601 -6.133719
v -0.839891 158.151367 -6.151118
v -0.847253 158.086517 -6.100995
v -0.859236 158.114792 -5.908620
v -0.884890 156.308380 -4.655567
v -0.886340 157.771011 -6.026259
v -0.906344 156.236862 -5.179262
v -0.911854 158.017929 -5.529877
v -0.918142 156.514511 -4.312297
v -0.925667 156.449966 -5.576587
v -0.952661 157.464340 -4.344023
v -0.980407 158.037048 -5.869125
v -1.001510 156.917755 -4.228654
v -1.023317 156.939560 -5.692485
v -1.039490 157.705383 -4.812742
v -1.054266 157.841629 -5.905735
v -1.134047 156.194336 -4.779925
v -1.164522 157.777863 -5.452436
v -1.183041 156.438019 -4.383327
v -1.197340 156.465759 -5.205537
v -1.234738 157.199554 -4.389168
v -1.241701 157.269760 -5.504333
v -1.284791 156.791077 -4.259847
v -1.307628 156.327332 -4.707327
v -1.308945 157.371674 -4.904428
v -1.360819 156.776276 -4.687672
v -1.735519 156.862122 -6.093007
v -1.748056 157.270935 -5.807324
v -1.838374 156.369034 -6.004101
v -1.872770 156.692612 -5.344992
v -1.889509 157.558289 -6.606000
v -1.935647 156.265457 -6.444936
v -1.962453 157.433426 -5.223289
v -1.977733 156.774109 -6.647213
v -1.987475 157.833267 -5.909027
v -2.029705 158.103241 -6.692707
v -2.102456 156.140442 -5.381054
v -2.116325 156.056076 -6.058021
v -2.123952 157.829025 -5.278745
v -2.175551 156.287430 -6.556211
v -2.179856 156.378265 -4.945416
v -2.179874 158.248657 -7.259011
v -2.197437 158.272232 -6.894176
v -2.204666 158.590393 -7.584745
v -2.233892 158.543045 -7.618855
v -2.242627 158.622879 -7.621340
v -2.249901 158.312988 -7.551130
v -2.282967 157.893433 -7.227479
v -2.301002 158.095657 -6.382058
v -2.304732 157.551605 -4.981601
v -2.328065 156.860245 -4.850861
v -2.393160 156.768402 -6.729329
v -2.395403 158.135406 -6.845296
v -2.425369 155.955872 -5.566518
v -2.449187 157.779190 -5.543002
v -2.494947 157.864288 -6.908927
v -2.530127 156.263321 -5.063612
v -2.538467 156.262070 -6.100389
v -2.615620 157.778580 -6.298573
v -2.672215 157.179474 -5.053589
v -2.673155 156.098251 -5.494386
v -2.674239 157.178375 -6.389893
v -2.710785 156.682007 -4.918486
v -2.768613 157.337646 -5.668664
v -2.790810 156.647369 -5.451417
v -4.367662 161.417831 -6.707754
v -4.421681 161.404160 -2.969464
v -4.424474 160.984711 -5.947520
v -4.425130 160.628159 -6.671608
v -4.444299 161.709045 -5.955816
v -4.447055 160.611526 -3.163561
v -4.453851 162.178345 -6.596986
v -4.466675 160.282944 -5.925387
v -4.468325 160.741531 -2.285133
v -4.506285 159.886230 -5.891893
v -4.508772 161.880478 -2.151356
v -4.513596 162.156281 -5.966678
v -4.530084 161.297699 -2.158142
v -4.539783 160.009125 -6.436581
v -4.585124 160.202042 -2.545371
v -4.593195 161.212463 -3.800965
v -4.614655 159.986832 -3.348915
v -4.621081 161.729980 -7.339911
v -4.629531 160.664581 -3.873928
v -4.636145 161.533813 -1.610197
v -4.643579 160.963928 -7.353373
v -4.652998 162.251373 -3.055406
v -4.654138 162.430054 -5.996034
v -4.656043 161.834167 -3.792778
v -4.663901 159.811218 -5.878756
v -4.668243 162.618423 -6.581447
v -4.685454 160.330139 -7.133179
v -4.686034 160.559464 -5.420033
v -4.689976 161.157333 -5.424572
v -4.689996 161.512177 -4.523419
v -4.692296 160.695129 -4.620384
v -4.693780 162.288422 -2.330452
v -4.709122 161.002243 -1.523150
v -4.717531 161.848465 -1.356983
v -4.723437 160.032562 -6.804306
v -4.729465 160.393051 -4.018861
v -4.732850 160.052368 -5.452497
v -4.740506 161.799652 -5.471495
v -4.744794 162.287048 -7.144283
v -4.771089 161.458008 -0.898392
v -4.816721 159.946960 -3.910132
v -4.831830 160.006958 -6.288815
v -4.842722 159.914673 -2.618202
v -4.857162 162.367401 -3.905533
v -4.899014 158.874695 -3.597684
v -4.900155 160.853638 -0.719312
v -4.910712 162.633942 -6.017847
v -4.917792 161.888870 -7.515226
v -4.951505 162.105957 -5.444339
v -4.953605 159.420059 -3.903318
v -4.953866 159.400528 -3.380864
v -4.965084 160.350662 -6.938332
v -4.988518 162.576416 -6.628350
v -4.991242 158.978119 -3.687890
v -5.026142 160.689209 -7.515383
v -5.034994 160.149307 -5.536074
v -5.048175 162.581863 -4.117617
v -5.056191 161.281967 -7.594913
v -5.063426 162.472565 -2.455352
v -5.072512 160.488602 -0.698674
v -5.078685 160.531830 -7.587630
v -5.113793 159.709671 -4.120650
v -5.140447 162.092407 -5.327454
v -5.150053 162.750885 -3.497601
v -5.153290 160.743896 -4.654365
v -5.154061 159.464661 -3.782855
v -5.165545 162.463089 -5.881811
v -5.168456 161.938370 -7.085347
v -5.186873 162.648148 -4.143925
v -5.205161 161.837692 -0.853749
v -5.207165 161.383514 -0.350761
v -5.245456 160.426666 -1.716859
v -5.249382 161.020752 -7.151307
v -5.252177 162.135178 -1.843042
v -5.254485 160.700897 -6.104537
v -5.286159 162.210495 -6.221232
v -5.287539 160.785263 -0.320233
v -5.296131 160.266708 -2.607850
v -5.313235 159.959686 -3.505256
v -5.322492 161.334976 -4.655517
v -5.350258 160.568512 -0.756539
v -5.406885 161.554977 -6.184077
v -5.440442 162.554245 -4.040426
v -5.500656 161.692307 -0.349311
v -5.518009 162.595718 -2.702765
v -5.568335 160.801514 -0.359877
v -5.613657 160.699509 -3.481467
v -5.687694 161.121155 -4.344826
v -5.689319 161.167953 -2.539889
v -5.693691 161.789429 -0.669694
v -5.696678 162.580841 -3.419700
v -5.702085 161.108246 -0.801316
v -5.703303 161.364563 -0.366686
v -5.757089 161.934402 -4.123643
v -5.818297 162.333557 -2.723534
v -5.857843 160.851212 -1.758085
v -5.869618 161.846588 -2.705059
v -5.879013 161.479965 -3.433198
v -5.910831 161.723038 -0.781396
v -5.911017 161.556061 -0.805390
v -5.931878 162.110352 -3.306530
v -6.025566 161.873886 -1.802400
vn -0.987090 -0.126738 -0.097928
vn -0.976506 0.141809 0.162255
vn -0.905568 0.422149 0.041680
vn -0.916715 0.179412 -0.356994
vn -0.954792 -0.046668 0.293589
vn -0.755833 -0.628659 -0.183041
vn -0.845961 -0.174973 -0.503721
vn -0.621776 0.596568 0.507445
vn -0.862419 -0.504315 -0.043590
vn -0.668191 0.226995 0.708516
vn -0.368038 -0.789094 -0.491812
vn -0.962838 0.258722 -0.077504
vn 0.994401 0.023162 -0.103106
vn -0.641204 0.690229 0.335322
vn 0.924856 0.192414 -0.328051
vn -0.945768 0.206913 0.250420
vn -0.974904 0.114228 -0.191087
vn -0.937004 0.267881 -0.224195
vn -0.994861 0.081392 -0.060227
vn -0.990416 -0.067963 -0.120235
vn -0.992471 -0.018840 -0.121025
vn -0.484075 0.451157 -0.749752
vn -0.773022 0.131227 0.620658
vn -0.937742 -0.172209 -0.301636
vn -0.728842 0.656589 -0.194112
vn -0.985146 0.150790 -0.082153
vn -0.997831 -0.029211 0.058998
vn -0.996614 -0.054963 0.061159
vn -0.824417 0.151325 -0.545378
vn -0.275670 -0.957495 0.084912
vn -0.872238 0.488853 0.014965
vn -0.772777 -0.504663 0.384878
vn -0.801025 -0.444239 -0.401262
vn -0.744898 0.382100 0.546925
vn -0.919655 -0.064677 -0.387365
vn -0.689351 -0.051592 0.722588
vn -0.864956 -0.496401 0.073733
vn -0.945531 0.311505 0.094534
vn -0.997523 -0.048377 0.051059
vn -0.988029 0.098428 0.118787
vn -0.975922 -0.186536 -0.113049
vn -0.924503 0.380429 0.023820
vn -0.914475 0.132535 -0.382321
vn -0.955040 -0.084979 0.284039
vn -0.675707 0.572301 0.464640
vn -0.825473 -0.233951 -0.513674
vn -0.700935 0.222273 0.677705
vn -0.677761 -0.713190 -0.178885
vn -0.750627 -0.651517 -0.109934
vn -0.931574 0.272612 -0.240524
vn -0.973083 -0.180085 -0.143801
vn -0.307075 -0.843199 -0.441271
vn -0.789057 0.050438 0.612246
vn -0.467095 0.438419 -0.767861
vn -0.966889 0.112161 -0.229230
vn -0.992148 0.046219 -0.116218
vn 0.536572 0.824003 0.181959
vn 0.341066 -0.232199 -0.910910
vn -0.809104 0.526945 -0.260153
vn 0.791179 -0.335826 -0.511133
vn -0.977019 0.147791 0.153599
vn -0.974347 -0.135351 -0.179803
vn -0.921876 -0.239729 -0.304427
vn -0.991079 0.068218 -0.114491
vn -0.988149 -0.085898 0.127214
vn -0.751217 0.659058 -0.036256
vn -0.153486 -0.984805 0.081252
vn -0.989940 -0.113207 0.084867
vn -0.914775 0.180919 -0.361186
vn -0.711115 -0.583081 0.392851
vn -0.729204 -0.559682 -0.393723
vn -0.890120 0.455573 0.011793
vn -0.777386 0.333968 0.533044
vn -0.804257 -0.590503 0.066908
vn -0.943037 -0.088034 -0.320830
vn -0.702612 -0.124283 0.700636
vn -0.962145 0.263370 0.070090
vn -0.990991 -0.129344 0.034750
vn 0.989482 0.018372 -0.143482
vn 0.994762 0.090921 -0.046718
vn 0.968243 -0.017774 0.249378
vn 0.973022 -0.151737 -0.173793
vn 0.952315 0.096465 0.289467
vn 0.987150 -0.124817 -0.099781
vn 0.947272 0.304243 -0.100556
vn 0.972065 -0.096485 0.213962
vn 0.929844 -0.233767 0.284154
vn 0.812383 -0.547616 0.200377
vn 0.912891 0.338474 0.228179
vn 0.888500 0.307382 0.340711
vn 0.979896 -0.010824 0.199215
vn 0.672382 -0.692236 -0.262131
vn 0.817535 -0.482376 0.314562
vn 0.982286 0.029175 -0.185102
vn 0.918865 -0.380034 -0.106124
vn 0.771200 0.148166 -0.619110
vn 0.959527 -0.125727 -0.251992
vn 0.976922 -0.020081 0.212649
vn 0.755039 -0.123982 -0.643851
vn 0.842603 0.536617 -0.045409
vn 0.733056 0.549168 0.401302
vn 0.962247 0.216454 -0.165008
vn -0.107786 -0.992122 0.063844
vn 0.523038 0.840278 -0.142700
vn 0.485623 -0.598739 -0.636931
vn 0.960186 -0.047035 0.275373
vn 0.953038 0.047604 0.299086
vn 0.704506 0.179157 -0.686713
vn 0.628297 -0.537580 0.562361
vn 0.574743 0.741782 0.345587
vn 0.922616 -0.300187 0.242214
vn 0.729826 0.598627 0.330152
vn -0.160615 -0.899826 -0.405607
vn 0.896489 -0.231957 -0.377498
vn 0.562261 -0.601343 0.567669
vn 0.828531 0.277797 0.486175
vn 0.242437 0.714928 -0.655822
vn 0.886308 0.191890 0.421469
vn 0.893769 -0.308042 -0.326017
vn -0.611542 -0.774528 -0.161624
vn 0.255901 -0.861145 0.439254
vn 0.861691 0.477501 -0.171704
vn 0.583355 -0.716950 -0.381681
vn 0.877385 -0.293974 0.379176
vn 0.093094 0.918884 0.383386
vn -0.109675 0.458581 -0.881859
vn 0.534849 0.547414 0.643641
vn 0.777129 -0.299032 -0.553760
vn -0.063722 -0.861862 0.503123
vn -0.744099 -0.603794 -0.285918
vn -0.550695 0.784244 -0.285827
vn -0.674128 -0.620048 -0.401362
vn 0.327872 -0.683325 -0.652355
vn -0.636708 -0.724951 0.262770
vn 0.663715 0.645915 -0.377194
vn -0.085760 0.057839 -0.994636
vn 0.191559 0.920931 0.339399
vn 0.337240 -0.864676 0.372297
vn 0.581164 -0.757372 -0.297719
vn 0.001100 -0.500013 -0.866017
vn 0.657466 0.598010 0.458391
vn 0.249561 0.968134 -0.020885
vn -0.756545 -0.634976 0.156347
vn -0.991266 -0.127484 0.033746
vn -0.889546 0.451536 0.069451
vn -0.858928 0.345085 -0.378364
vn 0.004178 0.758607 -0.651535
vn 0.264729 0.875248 0.404796
vn 0.502385 0.221677 0.835744
vn 0.199125 -0.929705 0.309834
vn -0.964308 -0.242931 -0.105336
vn 0.137594 0.897996 0.417936
vn -0.940221 -0.338750 -0.035122
vn -0.958293 0.283349 0.037269
vn 0.169741 -0.427365 0.888002
vn -0.791934 -0.591049 0.153304
vn -0.928915 -0.358448 -0.092910
vn -0.837843 0.265061 -0.477244
vn -0.532946 -0.817189 0.219476
vn -0.979369 0.200846 0.022279
vn -0.511715 0.630370 -0.583764
vn -0.039567 0.629543 0.775957
vn -0.338423 0.901666 0.269200
vn -0.677838 -0.557639 0.479139
vn -0.882500 -0.454314 -0.121622
vn -0.841224 -0.430165 -0.327567
vn -0.950859 -0.301319 -0.071235
vn -0.366307 0.839933 0.400414
vn -0.697170 0.708846 -0.107199
vn -0.914675 -0.387328 0.115532
vn -0.640909 0.034400 0.766846
vn -0.766220 0.300149 -0.568170
vn -0.888593 0.452742 0.073669
vn -0.860748 -0.508716 0.017889
vn -0.996569 -0.082738 0.002042
vn -0.983896 -0.175686 -0.032916
vn -0.821742 0.397058 0.408761
vn -0.954173 -0.233540 0.187115
vn -0.984706 0.165775 -0.053600
vn -0.856687 0.489006 0.164197
f 16//16 12//12 14//14
f 12//12 13//13 14//14
f 13//13 15//15 14//14
f 12//12 9//9 17//17
f 12//12 25//25 17//17
f 12//12 29//29 25//25
f 12//12 19//19 29//29
f 12//12 19//19 13//13
f 13//13 19//19 15//15
f 15//15 19//19 14//14
f 14//14 19//19 16//16
f 16//16 19//19 12//12
f 27//27 10//10 19//19
f 27//27 23//23 10//10
f 23//23 8//8 10//10
f 10//10 5//5 19//19
f 5//5 12//12 19//19
f 5//5 9//9 12//12
f 19//19 27//27 35//35
f 27//27 33//33 35//35
f 27//27 23//23 33//33
f 23//23 20//20 33//33
f 23//23 20//20 8//8
f 8//8 20//20 3//3
f 8//8 3//3 10//10
f 10//10 3//3 2//2
f 10//10 2//2 5//5
f 5//5 2//2 1//1
f 5//5 1//1 6//6
f 5//5 6//6 9//9
f 9//9 6//6 21//21
f 9//9 21//21 17//17
f 17//17 25//25 21//21
f 25//25 31//31 21//21
f 25//25 29//29 31//31
f 29//29 35//35 31//31
f 29//29 19//19 35//35
f 21//21 31//31 28//28
f 31//31 38//38 28//28
f 31//31 35//35 38//38
f 35//35 39//39 38//38
f 35//35 33//33 39//39
f 33//33 37//37 39//39
f 33//33 30//30 37//37
f 33//33 20//20 30//30
f 20//20 18//18 30//30
f 20//20 18//18 3//3
f 3//3 18//18 4//4
f 3//3 4//4 2//2
f 2//2 4//4 1//1
f 1//1 4//4 7//7
f 1//1 7//7 6//6
f 6//6 7//7 11//11
f 6//6 11//11 28//28
f 6//6 28//28 21//21
f 11//11 24//24 28//28
f 28//28 34//34 24//24
f 28//28 38//38 34//34
f 38//38 39//39 34//34
f 39//39 36//36 34//34
f 39//39 32//32 36//36
f 39//39 37//37 32//32
f 37//37 30//30 32//32
f 30//30 18//18 32//32
f 18//18 32//32 22//22
f 18//18 22//22 4//4
f 4//4 22//22 26//26
f 4//4 26//26 7//7
f 7//7 26//26 24//24
f 7//7 24//24 11//11
f 36//36 32//32 26//26
f 36//36 26//26 34//34
f 34//34 26//26 24//24
f 26//26 22//22 32//32
f 60//60 58//58 55//55
f 55//55 58//58 57//57
f 57//57 58//58 59//59
f 55//55 49//49 56//56
f 55//55 66//66 56//56
f 55//55 69//69 66//66
f 55//55 61//61 69//69
f 55//55 57//57 61//61
f 57//57 59//59 61//61
f 59//59 58//58 61//61
f 58//58 60//60 61//61
f 60//60 55//55 61//61
f 65//65 47//47 61//61
f 65//65 53//53 47//47
f 53//53 45//45 47//47
f 47//47 44//44 61//61
f 44//44 55//55 61//61
f 44//44 49//49 55//55
f 61//61 65//65 75//75
f 65//65 71//71 75//75
f 65//65 53//53 71//71
f 53//53 51//51 71//71
f 53//53 51//51 45//45
f 45//45 51//51 42//42
f 45//45 42//42 47//47
f 47//47 42//42 40//40
f 47//47 40//40 44//44
f 44//44 40//40 41//41
f 44//44 41//41 48//48
f 44//44 48//48 49//49
f 49//49 48//48 62//62
f 49//49 62//62 56//56
f 56//56 66//66 62//62
f 66//66 72//72 62//62
f 66//66 69//69 72//72
f 69//69 75//75 72//72
f 69//69 61//61 75//75
f 62//62 72//72 68//68
f 72//72 77//77 68//68
f 72//72 75//75 77//77
f 75//75 78//78 77//77
f 75//75 71//71 78//78
f 71//71 74//74 78//78
f 71//71 67//67 74//74
f 71//71 51//51 67//67
f 51//51 50//50 67//67
f 51//51 50//50 42//42
f 42//42 50//50 43//43
f 42//42 43//43 40//40
f 40//40 43//43 41//41
f 41//41 43//43 46//46
f 41//41 46//46 48//48
f 48//48 46//46 52//52
f 48//48 52//52 68//68
f 48//48 68//68 62//62
f 52//52 63//63 68//68
f 68//68 73//73 63//63
f 68//68 77//77 73//73
f 77//77 78//78 73//73
f 78//78 76//76 73//73
f 78//78 70//70 76//76
f 78//78 74//74 70//70
f 74//74 67//67 70//70
f 67//67 50//50 70//70
f 50//50 70//70 54//54
f 50//50 54//54 43//43
f 43//43 54//54 64//64
f 43//43 64//64 46//46
f 46//46 64//64 63//63
f 46//46 63//63 52//52
f 76//76 70//70 64//64
f 76//76 64//64 73//73
f 73//73 64//64 63//63
f 64//64 54//54 70//70
f 139//139 136//136 133//133
f 133//133 136//136 99//99
f 133//133 99//99 105//105
f 99//99 136//136 96//96
f 96//96 136//136 126//126
f 96//96 126//126 117//117
f 126//126 136//136 146//146
f 136//136 151//151 146//146
f 136//136 139//139 151//151
f 139//139 133//133 151//151
f 133//133 130//130 151//151
f 133//133 105//105 130//130
f 105//105 113//113 130//130
f 105//105 92//92 113//113
f 105//105 82//82 92//92
f 105//105 99//99 82//82
f 99//99 79//79 82//82
f 99//99 96//96 79//79
f 96//96 85//85 79//79
f 96//96 117//117 85//85
f 117//117 104//104 85//85
f 117//117 131//131 104//104
f 117//117 146//146 131//131
f 117//117 126//126 146//146
f 131//131 154//154 145//145
f 131//131 146//146 154//154
f 146//146 160//160 154//154
f 146//146 151//151 160//160
f 151//151 153//153 160//160
f 151//151 130//130 153//153
f 130//130 120//120 153//153
f 130//130 113//113 120//120
f 113//113 92//92 120//120
f 92//92 103//103 120//120
f 92//92 88//88 103//103
f 92//92 86//86 88//88
f 92//92 82//82 86//86
f 82//82 81//81 86//86
f 82//82 79//79 81//81
f 79//79 83//83 81//81
f 79//79 85//85 83//83
f 85//85 90//90 83//83
f 85//85 101//101 90//90
f 85//85 104//104 101//101
f 104//104 125//125 101//101
f 104//104 131//131 125//125
f 131//131 145//145 125//125
f 153//153 134//134 143//143
f 153//153 120//120 134//134
f 120//120 103//103 134//134
f 103//103 115//115 134//134
f 103//103 88//88 115//115
f 88//88 86//86 115//115
f 86//86 106//106 115//115
f 86//86 81//81 106//106
f 81//81 107//107 106//106
f 81//81 83//83 107//107
f 83//83 116//116 107//107
f 83//83 90//90 116//116
f 90//90 101//101 116//116
f 101//101 127//127 116//116
f 101//101 125//125 127//127
f 125//125 141//141 127//127
f 125//125 145//145 141//141
f 145//145 108//108 141//141
f 145//145 154//154 108//108
f 154//154 160//160 108//108
f 160//160 158//158 108//108
f 160//160 153//153 158//158
f 153//153 143//143 158//158
f 108//108 158//158 172//172
f 158//158 166//166 172//172
f 158//158 143//143 166//166
f 143//143 109//109 166//166
f 143//143 134//134 109//109
f 134//134 115//115 109//109
f 115//115 106//106 109//109
f 106//106 107//107 109//109
f 107//107 116//116 109//109
f 116//116 127//127 109//109
f 127//127 141//141 109//109
f 141//141 108//108 109//109
f 108//108 140//140 109//109
f 108//108 128//128 140//140
f 108//108 119//119 128//128
f 108//108 114//114 119//119
f 108//108 97//97 114//114
f 108//108 94//94 97//97
f 108//108 102//102 94//94
f 108//108 122//122 102//102
f 108//108 135//135 122//122
f 108//108 147//147 135//135
f 108//108 161//161 147//147
f 108//108 172//172 161//161
f 135//135 147//147 142//142
f 147//147 161//161 142//142
f 161//161 169//169 142//142
f 161//161 172//172 169//169
f 172//172 179//179 169//169
f 172//172 176//176 179//179
f 172//172 166//166 176//176
f 166//166 165//165 176//176
f 166//166 109//109 165//165
f 109//109 157//157 165//165
f 109//109 144//144 157//157
f 109//109 140//140 144//144
f 140//140 132//132 144//144
f 140//140 128//128 132//132
f 128//128 123//123 132//132
f 128//128 129//129 123//123
f 128//128 119//119 129//129
f 119//119 95//95 129//129
f 119//119 114//114 95//95
f 114//114 97//97 95//95
f 97//97 84//84 95//95
f 97//97 94//94 84//84
f 94//94 80//80 84//84
f 94//94 102//102 80//80
f 102//102 100//100 80//80
f 102//102 122//122 100//100
f 122//122 142//142 100//100
f 122//122 135//135 142//142
f 129//129 121//121 156//156
f 129//129 95//95 121//121
f 95//95 93//93 121//121
f 95//95 84//84 93//93
f 84//84 87//87 93//93
f 84//84 80//80 87//87
f 80//80 91//91 87//87
f 80//80 89//89 91//91
f 80//80 100//100 89//89
f 100//100 110//110 89//89
f 100//100 137//137 110//110
f 100//100 142//142 137//137
f 142//142 163//163 137//137
f 142//142 169//169 163//163
f 169//169 173//173 163//163
f 169//169 179//179 173//173
f 179//179 175//175 173//173
f 179//179 176//176 175//175
f 176//176 167//167 175//175
f 176//176 165//165 167//167
f 165//165 156//156 167//167
f 165//165 157//157 156//156
f 144//144 132//132 129//129
f 144//144 129//129 157//157
f 157//157 129//129 156//156
f 129//129 132//132 123//123
f 87//87 91//91 111//111
f 91//91 98//98 111//111
f 91//91 89//89 98//98
f 89//89 112//112 98//98
f 89//89 152//152 112//112
f 89//89 110//110 152//152
f 110//110 137//137 152//152
f 137//137 180//180 152//152
f 137//137 163//163 180//180
f 163//163 173//173 180//180
f 173//173 175//175 180//180
f 175//175 167//167 180//180
f 167//167 174//174 180//180
f 167//167 156//156 174//174
f 156//156 150//150 174//174
f 156//156 121//121 150//150
f 121//121 93//93 150//150
f 93//93 87//87 150//150
f 87//87 111//111 150//150
f 98//98 112//112 118//118
f 112//112 148//148 118//118
f 112//112 152//152 148//148
f 152//152 180//180 148//148
f 180//180 168//168 148//148
f 180//180 177//177 168//168
f 180//180 178//178 177//177
f 180//180 170//170 178//178
f 180//180 174//174 170//170
f 174//174 159//159 170//170
f 174//174 150//150 159//159
f 150//150 138//138 159//159
f 150//150 124//124 138//138
f 150//150 111//111 124//124
f 111//111 118//118 124//124
f 111//111 98//98 118//118
f 138//138 124//124 155//155
f 124//124 149//149 155//155
f 124//124 118//118 149//149
f 118//118 148//148 149//149
f 148//148 162//162 149//149
f 148//148 168//168 162//162
f 168//168 171//171 162//162
f 168//168 177//177 171//171
f 177//177 178//178 171//171
f 178//178 170//170 171//171
f 170//170 164//164 171//171
f 170//170 159//159 164//164
f 159//159 155//155 164//164
f 159//159 138//138 155//155
f 171//171 164//164 155//155
f 171//171 155//155 149//149
f 171//171 149//149 162//162
g
