# Rhino

v 0.04780999943614006 81.20695495605469 5.282303810119629
v 0.0477139987051487 80.33992767333984 5.333731174468994
v 0.04462499916553497 79.7606201171875 5.371400833129883
v 0.04422499984502792 81.86371612548828 5.243834018707275
v -0.009324000217020512 80.36526489257813 5.926806449890137
v -0.009862000122666359 80.30870056152344 4.756903171539307
v -0.01061199977993965 81.34178161621094 5.87636661529541
v -0.01124699972569943 80.858154296875 5.917537212371826
v -0.01169299986213446 81.28620910644531 4.693418025970459
v -0.01204599998891354 81.88242340087891 5.809268951416016
v -0.01220699958503246 80.80097198486328 4.707597255706787
v -0.01258500013500452 79.74211883544922 4.821347713470459
v -0.01269099954515696 79.79513549804688 5.932611465454102
v -0.01379499956965447 81.83002471923828 4.698171615600586
v -0.09335500001907349 79.19462585449219 5.411614418029785
v -0.09523800015449524 82.40386199951172 5.208835601806641
v -0.141523003578186 79.18289947509766 4.880882263183594
v -0.1430850028991699 82.41674041748047 5.753637313842773
v -0.1434420049190521 79.23611450195313 5.950653553009033
v -0.1460009962320328 82.36308288574219 4.685058116912842
v -0.1968059986829758 81.37596130371094 6.405186176300049
v -0.1975609958171845 80.37821197509766 6.461510181427002
v -0.1994390040636063 80.27577209472656 4.249014854431152
v -0.2002889961004257 81.27451324462891 4.1926589012146
v -0.2011310011148453 81.92600250244141 6.310853004455566
v -0.2033309936523438 79.79803466796875 6.433293342590332
v -0.2034769952297211 79.70177459716797 4.344415664672852
v -0.2063670009374619 80.88223266601563 6.467794418334961
v -0.20660400390625 81.82881927490234 4.223043918609619
v -0.2092259973287582 80.77857208251953 4.186007499694824
v -0.2653949856758118 82.30188751220703 6.147949695587158
v -0.2654579877853394 79.3082275390625 4.500784873962402
v -0.2680369913578033 79.39453887939453 6.323447227478027
v -0.2721590101718903 82.21224212646484 4.32855224609375
v -0.4852490127086639 78.86473083496094 5.435781002044678
v -0.4869900047779083 82.72601318359375 5.186572074890137
v -0.5270910263061523 78.87741088867188 4.847208499908447
v -0.5285900235176086 82.71353912353516 5.787448406219482
v -0.5295799970626831 78.93849182128906 6.027497291564941
v -0.5312070250511169 82.65078735351563 4.609774112701416
v -0.5450050234794617 81.4029541015625 6.756643295288086
v -0.546051025390625 80.37880706787109 6.813185691833496
v -0.5470060110092163 80.25019836425781 3.909862041473389
v -0.548130989074707 81.2745361328125 3.853539943695068
v -0.5493919849395752 79.12416076660156 4.323246002197266
v -0.5497289896011353 82.48027038574219 6.331894874572754
v -0.5526760220527649 81.96587371826172 6.64008092880249
v -0.5529760122299194 79.2296142578125 6.527355670928955
v -0.554364025592804 79.66488647460938 4.025960445404053
v -0.5551930069923401 79.786376953125 6.762693405151367
v -0.5556550025939941 82.36832427978516 4.134157657623291
v -0.5574899911880493 81.84042358398438 3.906014919281006
v -0.5640799999237061 80.89608764648438 6.821860313415527
v -0.5654339790344238 80.76535797119141 3.844851016998291
v -0.9875169992446899 82.37142944335938 4.032466888427734
v -0.9875169992446899 81.83377075195313 3.794655561447144
v -0.9875169992446899 82.49172973632813 6.438246250152588
v -0.9875169992446899 81.27002716064453 3.733425378799439
v -0.9875169992446899 81.96685028076172 6.754875659942627
v -0.9875169992446899 80.76090240478516 3.732164859771729
v -0.9875169992446899 81.4072265625 6.878601551055908
v -0.9875169992446899 80.24585723876953 3.789110898971558
v -0.9875169992446899 80.90071105957031 6.935153484344482
v -0.9875169992446899 79.66323852539063 3.912662029266357
v -0.9875169992446899 80.38304138183594 6.934473037719727
v -0.9875169992446899 79.11439514160156 4.217161178588867
v -0.9875169992446899 79.79310607910156 6.875228881835938
v -0.9875180125236511 82.70602416992188 4.554243564605713
v -0.9875180125236511 82.81862640380859 5.180059909820557
v -0.9875180125236511 82.77562713623047 5.835132598876953
v -0.9875180125236511 78.81684875488281 4.798372745513916
v -0.9875180125236511 79.22686767578125 6.630748748779297
v -0.9875180125236511 78.77342224121094 5.442253589630127
v -0.9875180125236511 78.88387298583984 6.0827317237854
v -1.40960705280304 80.76535797119141 3.844851016998291
v -1.410961985588074 80.89608764648438 6.821860313415527
v -1.417551994323731 81.84042358398438 3.906014919281006
v -1.419386982917786 82.36832427978516 4.134154796600342
v -1.419849038124085 79.786376953125 6.762693405151367
v -1.420676946640015 79.66488647460938 4.025960445404053
v -1.422065019607544 79.2296142578125 6.527356624603272
v -1.422364950180054 81.96587371826172 6.640079975128174
v -1.425312995910645 82.48027038574219 6.331894874572754
v -1.425649046897888 79.12416076660156 4.323246002197266
v -1.426910996437073 81.2745361328125 3.853539943695068
v -1.428035974502564 80.25019836425781 3.909862041473389
v -1.428990960121155 80.37880706787109 6.81318473815918
v -1.430037021636963 81.4029541015625 6.756643295288086
v -1.443835973739624 82.65078735351563 4.609774112701416
v -1.44546103477478 78.93849182128906 6.027497291564941
v -1.446452975273132 82.71353912353516 5.787448406219482
v -1.447950959205627 78.87741088867188 4.847208499908447
v -1.488054037094116 82.72601318359375 5.186572074890137
v -1.489791989326477 78.86473083496094 5.435781002044678
v -1.702885031700134 82.21224212646484 4.32855224609375
v -1.707007050514221 79.39453887939453 6.323447227478027
v -1.70958399772644 79.3082275390625 4.500784873962402
v -1.709647059440613 82.30188751220703 6.147949695587158
v -1.765813946723938 80.77857208251953 4.186008453369141
v -1.768435955047607 81.82881927490234 4.223043918609619
v -1.768671035766602 80.88223266601563 6.467793941497803
v -1.771561026573181 79.7017822265625 4.344416618347168
v -1.771705985069275 79.79803466796875 6.433293342590332
v -1.773905992507935 81.92600250244141 6.31085205078125
v -1.774749040603638 81.27452087402344 4.192659854888916
v -1.775599002838135 80.27577209472656 4.249014854431152
v -1.777477979660034 80.37821197509766 6.461509227752686
v -1.778229951858521 81.37596130371094 6.405186176300049
v -1.829038977622986 82.36307525634766 4.685060501098633
v -1.831598043441773 79.23610687255859 5.950653076171875
v -1.831954956054688 82.41674041748047 5.753635406494141
v -1.833516001701355 79.18289947509766 4.880884647369385
v -1.879801034927368 82.40386199951172 5.208835601806641
v -1.881687045097351 79.19462585449219 5.411614418029785
v -1.961244940757752 81.83001708984375 4.698173999786377
v -1.962347030639648 79.79513549804688 5.932611465454102
v -1.962450981140137 79.74211883544922 4.821348667144775
v -1.962829947471619 80.80097198486328 4.707597255706787
v -1.962991952896118 81.88242340087891 5.809268951416016
v -1.963343977928162 81.28620910644531 4.693418025970459
v -1.963791012763977 80.858154296875 5.917537212371826
v -1.964424014091492 81.34178161621094 5.87636661529541
v -1.965173959732056 80.30870056152344 4.756903171539307
v -1.965713977813721 80.36526489257813 5.926806449890137
v -2.019263982772827 81.86371612548828 5.243834018707275
v -2.01966404914856 79.7606201171875 5.371400833129883
v -2.022752046585083 80.33992767333984 5.333731174468994
v -2.022849082946777 81.20695495605469 5.282303810119629
vn 0.9999915361404419 0.003255645278841257 -0.002518537919968367
vn 0.9999848008155823 -0.005363055970519781 -0.001263072015717626
vn 0.9874457716941834 -0.1577896773815155 0.007295486051589251
vn 0.98594731092453 0.1666413247585297 -0.01177343539893627
vn 0.9755808711051941 -0.00187952967826277 0.2196324467658997
vn 0.9731455445289612 -0.02823559008538723 -0.2284523546695709
vn 0.9698972702026367 0.03175541758537293 0.2414349615573883
vn 0.9667817950248718 0.01437620166689158 0.2551986277103424
vn 0.9659473896026611 0.005306077655404806 -0.2586842179298401
vn 0.9644100069999695 0.1466148346662521 0.220039501786232
vn 0.9628176093101502 -0.01494713593274355 -0.2697383463382721
vn 0.9624242782592773 -0.1404365599155426 -0.2324156612157822
vn 0.9650236368179321 -0.1128149032592773 0.2366478443145752
vn 0.9610047936439514 0.1206511333584786 -0.248823419213295
vn 0.8501881957054138 -0.5257934331893921 0.02685740031301975
vn 0.8434939384460449 0.5362482070922852 -0.03091678582131863
vn 0.8298828601837158 -0.5246834754943848 -0.1897410899400711
vn 0.8246808648109436 0.5368580222129822 0.1780026853084564
vn 0.8324630856513977 -0.5005564689636231 0.2375887632369995
vn 0.8235844373703003 0.5112550258636475 -0.2456154078245163
vn 0.844237744808197 0.08044613897800446 0.5298972129821777
vn 0.8439018726348877 -0.01928813010454178 0.5361507534980774
vn 0.8345007300376892 -0.08032615482807159 -0.5451203584671021
vn 0.8333613872528076 0.02216171287000179 -0.5522840619087219
vn 0.8252004384994507 0.2253835499286652 0.5179251432418823
vn 0.825828492641449 -0.1541191786527634 0.5424523949623108
vn 0.8164951205253601 -0.2138189673423767 -0.5362995266914368
vn 0.8034136891365051 0.03273055329918861 0.5945209264755249
vn 0.8137972354888916 0.1626050025224686 -0.55793696641922
vn 0.7925918102264404 -0.03301163017749786 -0.6088583469390869
vn 0.7659313678741455 0.4870895743370056 0.419634222984314
vn 0.7645273208618164 -0.4677905738353729 -0.4434749186038971
vn 0.7726592421531677 -0.4190061092376709 0.4768978357315064
vn 0.7583942413330078 0.4286399483680725 -0.491025447845459
vn 0.4974618256092072 -0.8663365244865418 0.04463996738195419
vn 0.4907508492469788 0.8699589967727661 -0.04832152649760246
vn 0.4110809564590454 -0.8800767660140991 -0.2376496344804764
vn 0.4064201414585114 0.8866639733314514 0.2205667942762375
vn 0.4127301275730133 -0.8526584506034851 0.320355087518692
vn 0.4061579406261444 0.8528622984886169 -0.328118234872818
vn 0.5009137988090515 0.140457808971405 0.8540239930152893
vn 0.5008620619773865 -0.04213311523199081 0.8645009994506836
vn 0.4930761456489563 -0.136651486158371 -0.8591870069503784
vn 0.4928569793701172 0.04633567854762077 -0.8688756823539734
vn 0.4420988261699677 -0.6546779870986939 -0.613143801689148
vn 0.4424858689308167 0.6778337955474854 0.5871521234512329
vn 0.4772197604179382 0.3263871073722839 0.8159244656562805
vn 0.4482181668281555 -0.5930228233337402 0.6688978672027588
vn 0.4706961512565613 -0.3075046837329865 -0.8269740343093872
vn 0.4780548214912415 -0.2186641693115234 0.8506759405136108
vn 0.4379620850086212 0.594538688659668 -0.6743240356445313
vn 0.4691560864448547 0.2263787090778351 -0.853607177734375
vn 0.421746164560318 0.04976129531860352 0.905347466468811
vn 0.4163291156291962 -0.04891015589237213 -0.9078975319862366
vn 2.99999987873889e-06 0.5709121227264404 -0.8210111856460571
vn 1.999999312829459e-06 0.2057735621929169 -0.9785996079444885
vn 1.000000338535756e-06 0.6721107959747315 0.7404505610466003
vn 1.999999085455784e-06 0.03945285454392433 -0.9992214441299439
vn 9.999995427278918e-07 0.3172890543937683 0.9483288526535034
vn 1.999999540203135e-06 -0.05379851162433624 -0.9985517859458923
vn 2.000000222324161e-06 0.1482615470886231 0.9889481663703919
vn 1.99999976757681e-06 -0.144450768828392 -0.9895119667053223
vn 1.999999085455784e-06 0.05491248890757561 0.9984911680221558
vn 2.000000677071512e-06 -0.3002894222736359 -0.953848123550415
vn 1.999999994950485e-06 -0.03617369011044502 0.9993455410003662
vn 2.000000449697836e-06 -0.6451894044876099 -0.7640226483345032
vn 1.999999312829459e-06 -0.1977208852767944 0.9802583456039429
vn 1.000000452222594e-06 0.9085171818733215 -0.4178474843502045
vn 1.000000338535756e-06 0.9984503388404846 -0.05564948171377182
vn 9.999997701015673e-07 0.9535667896270752 0.3011816740036011
vn 9.999997701015673e-07 -0.9461618661880493 -0.3236937820911408
vn 2.000000677071512e-06 -0.5691810250282288 0.822212278842926
vn 1.000000452222594e-06 -0.9986674189567566 0.05160758644342423
vn 9.999996564147295e-07 -0.9123147130012512 0.4094898104667664
vn -0.4163271188735962 -0.04891045391559601 -0.9078984260559082
vn -0.421745777130127 0.0497615672647953 0.9053475856781006
vn -0.4691548645496368 0.226377010345459 -0.8536083102226257
vn -0.4379608929157257 0.5945377945899963 -0.6743256449699402
vn -0.4780558049678803 -0.2186632007360458 0.850675642490387
vn -0.4706968665122986 -0.3075054883956909 -0.8269733190536499
vn -0.44821697473526 -0.5930219292640686 0.6688994765281677
vn -0.4772209525108337 0.326386958360672 0.8159238696098328
vn -0.4424851536750794 0.6778326034545898 0.5871540307998657
vn -0.4420980513095856 -0.6546767950057983 -0.6131457090377808
vn -0.4928569793701172 0.04633567854762077 -0.8688756823539734
vn -0.4930761456489563 -0.136651486158371 -0.8591870069503784
vn -0.5008627772331238 -0.04213310405611992 0.8645005822181702
vn -0.5009158253669739 0.1404584497213364 0.8540226817131043
vn -0.4061620235443115 0.8528612852096558 -0.3281158208847046
vn -0.4127289354801178 -0.8526593446731567 0.3203543126583099
vn -0.4064210057258606 0.886663556098938 0.2205666899681091
vn -0.4110811650753021 -0.8800768852233887 -0.2376488000154495
vn -0.4907550513744354 0.8699564933776856 -0.04832376167178154
vn -0.4974618256092072 -0.8663365244865418 0.04463996738195419
vn -0.7584001421928406 0.4286367297172546 -0.4910190999507904
vn -0.7726608514785767 -0.4190024137496948 0.4768985211849213
vn -0.7645307779312134 -0.4677858054637909 -0.4434739053249359
vn -0.7659340500831604 0.4870852828025818 0.4196343719959259
vn -0.7925940752029419 -0.03301165625452995 -0.6088553667068481
vn -0.8137990832328796 0.1625989526510239 -0.5579360127449036
vn -0.8034160137176514 0.03273153677582741 0.594517707824707
vn -0.8164973258972168 -0.2138152122497559 -0.5362976789474487
vn -0.8258287906646729 -0.1541155576705933 0.5424529314041138
vn -0.8252014517784119 0.2253784984350205 0.5179257988929749
vn -0.83336341381073 0.02216172404587269 -0.5522809624671936
vn -0.8345028758049011 -0.08032713085412979 -0.5451169610023499
vn -0.8439031839370728 -0.01928781718015671 0.536148726940155
vn -0.8442397713661194 0.08044712245464325 0.5298938155174255
vn -0.8235889673233032 0.5112496614456177 -0.2456114739179611
vn -0.8324639201164246 -0.500555694103241 0.2375874519348145
vn -0.8246830701828003 0.5368552803993225 0.1780005097389221
vn -0.8298848867416382 -0.5246803164482117 -0.1897410899400711
vn -0.84349524974823 0.5362458825111389 -0.03092125616967678
vn -0.850189208984375 -0.5257918238639832 0.0268558356910944
vn -0.9610059857368469 0.1206479817628861 -0.2488203197717667
vn -0.9650241136550903 -0.1128108501434326 0.2366476655006409
vn -0.9624248147010803 -0.1404333263635635 -0.2324155122041702
vn -0.9628179669380188 -0.01494778320193291 -0.269737184047699
vn -0.9644100666046143 0.146611362695694 0.2200416773557663
vn -0.9659473896026611 0.00530292047187686 -0.2586842477321625
vn -0.9667816758155823 0.01437840890139341 0.2551989257335663
vn -0.9698967933654785 0.03175507485866547 0.2414370626211166
vn -0.973145604133606 -0.02823653630912304 -0.2284520417451859
vn -0.9755808115005493 -0.001880482654087246 0.2196327447891235
vn -0.98594731092453 0.1666413247585297 -0.01177343539893627
vn -0.9874462485313416 -0.1577869057655335 0.007294546812772751
vn -0.9999848008155823 -0.005362418480217457 -0.001264334772713482
vn -0.9999915361404419 0.003254695329815149 -0.00251822522841394
f 124//124 128//128 127//127
f 128//128 123//123 127//127
f 119//119 125//125 128//128
f 125//125 115//115 128//128
f 124//124 121//121 128//128
f 128//128 118//118 123//123
f 128//128 121//121 122//122
f 122//122 119//119 128//128
f 120//120 118//118 128//128
f 115//115 120//120 128//128
f 117//117 126//126 127//127
f 126//126 116//116 127//127
f 116//116 124//124 127//127
f 123//123 117//117 127//127
f 126//126 117//117 112//112
f 110//110 116//116 126//126
f 126//126 112//112 114//114
f 110//110 126//126 114//114
f 125//125 119//119 111//111
f 109//109 115//115 125//125
f 125//125 111//111 113//113
f 109//109 125//125 113//113
f 121//121 124//124 107//107
f 124//124 116//116 103//103
f 124//124 103//103 107//107
f 123//123 118//118 106//106
f 102//102 117//117 123//123
f 102//102 123//123 106//106
f 122//122 121//121 108//108
f 104//104 119//119 122//122
f 104//104 122//122 108//108
f 121//121 101//101 108//108
f 101//101 121//121 107//107
f 118//118 120//120 105//105
f 120//120 115//115 100//100
f 120//120 100//100 105//105
f 111//111 119//119 98//98
f 119//119 104//104 98//98
f 118//118 99//99 106//106
f 99//99 118//118 105//105
f 112//112 117//117 97//97
f 117//117 102//102 97//97
f 116//116 110//110 96//96
f 103//103 116//116 96//96
f 115//115 109//109 95//95
f 100//100 115//115 95//95
f 112//112 94//94 114//114
f 94//94 110//110 114//114
f 111//111 93//93 113//113
f 93//93 109//109 113//113
f 92//92 112//112 97//97
f 112//112 92//92 94//94
f 91//91 111//111 98//98
f 111//111 91//91 93//93
f 110//110 90//90 96//96
f 94//94 90//90 110//110
f 109//109 89//89 95//95
f 93//93 89//89 109//109
f 82//82 104//104 108//108
f 101//101 88//88 108//108
f 88//88 82//82 108//108
f 103//103 79//79 107//107
f 87//87 101//101 107//107
f 79//79 87//87 107//107
f 80//80 102//102 106//106
f 99//99 86//86 106//106
f 86//86 80//80 106//106
f 100//100 77//77 105//105
f 85//85 99//99 105//105
f 77//77 85//85 105//105
f 104//104 83//83 98//98
f 104//104 82//82 83//83
f 81//81 103//103 96//96
f 81//81 79//79 103//103
f 102//102 84//84 97//97
f 102//102 80//80 84//84
f 101//101 76//76 88//88
f 87//87 76//76 101//101
f 78//78 100//100 95//95
f 78//78 77//77 100//100
f 99//99 75//75 86//86
f 85//85 75//75 99//99
f 83//83 91//91 98//98
f 84//84 92//92 97//97
f 90//90 81//81 96//96
f 89//89 78//78 95//95
f 94//94 92//92 73//73
f 90//90 94//94 73//73
f 93//93 91//91 69//69
f 89//89 93//93 69//69
f 71//71 92//92 84//84
f 92//92 71//71 73//73
f 70//70 91//91 83//83
f 91//91 70//70 69//69
f 81//81 90//90 74//74
f 74//74 90//90 73//73
f 78//78 89//89 68//68
f 68//68 89//89 69//69
f 59//59 82//82 88//88
f 88//88 76//76 61//61
f 59//59 88//88 61//61
f 87//87 79//79 67//67
f 76//76 87//87 65//65
f 87//87 67//67 65//65
f 64//64 80//80 86//86
f 86//86 75//75 62//62
f 64//64 86//86 62//62
f 85//85 77//77 56//56
f 75//75 85//85 58//58
f 85//85 56//56 58//58
f 84//84 80//80 66//66
f 71//71 84//84 66//66
f 83//83 82//82 57//57
f 70//70 83//83 57//57
f 82//82 59//59 57//57
f 79//79 81//81 72//72
f 81//81 74//74 72//72
f 80//80 64//64 66//66
f 67//67 79//79 72//72
f 77//77 78//78 55//55
f 78//78 68//68 55//55
f 56//56 77//77 55//55
f 63//63 76//76 65//65
f 76//76 63//63 61//61
f 75//75 60//60 62//62
f 60//60 75//75 58//58
f 39//39 74//74 73//73
f 74//74 48//48 72//72
f 74//74 39//39 48//48
f 71//71 37//37 73//73
f 35//35 39//39 73//73
f 37//37 35//35 73//73
f 50//50 67//67 72//72
f 48//48 50//50 72//72
f 45//45 71//71 66//66
f 45//45 37//37 71//71
f 70//70 38//38 69//69
f 46//46 70//70 57//57
f 46//46 38//38 70//70
f 40//40 68//68 69//69
f 36//36 40//40 69//69
f 38//38 36//36 69//69
f 68//68 51//51 55//55
f 68//68 40//40 51//51
f 67//67 42//42 65//65
f 67//67 50//50 42//42
f 64//64 49//49 66//66
f 49//49 45//45 66//66
f 53//53 63//63 65//65
f 42//42 53//53 65//65
f 43//43 64//64 62//62
f 43//43 49//49 64//64
f 63//63 53//53 61//61
f 60//60 54//54 62//62
f 54//54 43//43 62//62
f 41//41 59//59 61//61
f 53//53 41//41 61//61
f 54//54 60//60 58//58
f 59//59 47//47 57//57
f 41//41 47//47 59//59
f 56//56 44//44 58//58
f 44//44 54//54 58//58
f 47//47 46//46 57//57
f 52//52 56//56 55//55
f 56//56 52//52 44//44
f 51//51 52//52 55//55
f 30//30 54//54 44//44
f 43//43 54//54 30//30
f 28//28 53//53 42//42
f 41//41 53//53 28//28
f 29//29 52//52 51//51
f 44//44 52//52 24//24
f 52//52 29//29 24//24
f 51//51 40//40 34//34
f 29//29 51//51 34//34
f 26//26 50//50 48//48
f 42//42 50//50 22//22
f 50//50 26//26 22//22
f 45//45 49//49 27//27
f 49//49 43//43 23//23
f 27//27 49//49 23//23
f 48//48 39//39 33//33
f 26//26 48//48 33//33
f 46//46 47//47 25//25
f 47//47 41//41 21//21
f 25//25 47//47 21//21
f 38//38 46//46 31//31
f 46//46 25//25 31//31
f 37//37 45//45 32//32
f 45//45 27//27 32//32
f 30//30 44//44 24//24
f 43//43 30//30 23//23
f 28//28 42//42 22//22
f 41//41 28//28 21//21
f 20//20 40//40 36//36
f 40//40 20//20 34//34
f 19//19 39//39 35//35
f 39//39 19//19 33//33
f 36//36 38//38 18//18
f 18//18 38//38 31//31
f 35//35 37//37 17//17
f 17//17 37//37 32//32
f 20//20 36//36 16//16
f 36//36 18//18 16//16
f 19//19 35//35 15//15
f 35//35 17//17 15//15
f 14//14 29//29 34//34
f 20//20 14//14 34//34
f 13//13 26//26 33//33
f 19//19 13//13 33//33
f 27//27 12//12 32//32
f 12//12 17//17 32//32
f 25//25 10//10 31//31
f 10//10 18//18 31//31
f 11//11 30//30 24//24
f 30//30 11//11 23//23
f 29//29 9//9 24//24
f 29//29 14//14 9//9
f 8//8 28//28 22//22
f 28//28 8//8 21//21
f 6//6 27//27 23//23
f 6//6 12//12 27//27
f 26//26 5//5 22//22
f 26//26 13//13 5//5
f 7//7 25//25 21//21
f 7//7 10//10 25//25
f 9//9 11//11 24//24
f 11//11 6//6 23//23
f 5//5 8//8 22//22
f 8//8 7//7 21//21
f 4//4 20//20 16//16
f 4//4 14//14 20//20
f 3//3 19//19 15//15
f 3//3 13//13 19//19
f 18//18 4//4 16//16
f 18//18 10//10 4//4
f 17//17 3//3 15//15
f 17//17 12//12 3//3
f 9//9 14//14 1//1
f 14//14 4//4 1//1
f 5//5 13//13 2//2
f 13//13 3//3 2//2
f 12//12 6//6 2//2
f 3//3 12//12 2//2
f 1//1 11//11 9//9
f 6//6 11//11 1//1
f 10//10 7//7 1//1
f 4//4 10//10 1//1
f 7//7 8//8 1//1
f 1//1 8//8 5//5
f 6//6 1//1 2//2
f 1//1 5//5 2//2
